<?xml version="1.0" standalone="no"?><!DOCTYPE svg PUBLIC "-//W3C//DTD SVG 1.1//EN" "http://www.w3.org/Graphics/SVG/1.1/DTD/svg11.dtd"><svg t="1532501977019" class="icon" style="" viewBox="0 0 1024 1024" version="1.1" xmlns="http://www.w3.org/2000/svg" p-id="13507" xmlns:xlink="http://www.w3.org/1999/xlink" ><defs><style type="text/css"></style></defs><path d="M957.2 498.6C839.3 388.3 721.4 278 603.8 167.4c-30.5-28.7-60-58.5-89.9-87.8h-4.4c-23.8 27.2-47.5 54.3-72.8 83.2 127.8 117.6 254.9 234.6 383.6 353-124.4 121-247.8 241-372.7 362.5 30.2 24.7 59.3 48.5 80.2 65.5 149.1-144.8 296-287.5 445.3-432.4-7-5.6-11.8-8.9-15.9-12.8z" p-id="13508" fill="#a1a1a1"></path><path d="M125.7 80.4c-7.4 8-13.1 14.3-19.1 20.5-18.5 19.1-37.1 38.2-55.7 57.3v4.4C178.7 280 306.5 397.3 435.5 515.7 310.4 637.3 187 757.2 62.5 878.3c30.7 25.1 59.2 48.4 80.9 66.1 148.8-144.5 295.6-287.1 444-431.2C432.2 367.7 279.6 224.7 125.7 80.4z" p-id="13509" fill="#a1a1a1"></path></svg>