<?xml version="1.0" standalone="no"?><!DOCTYPE svg PUBLIC "-//W3C//DTD SVG 1.1//EN" "http://www.w3.org/Graphics/SVG/1.1/DTD/svg11.dtd"><svg t="1533207970116" class="icon" style="" viewBox="0 0 1024 1024" version="1.1" xmlns="http://www.w3.org/2000/svg" p-id="9998" xmlns:xlink="http://www.w3.org/1999/xlink" width="16" height="16"><defs><style type="text/css"></style></defs><path d="M207.36 404.992c67.072 33.28 159.232 54.272 261.632 54.272 101.888 0 194.56-20.48 261.12-54.272 33.28-16.896 60.416-36.352 79.36-58.88 18.944-22.016 29.184-46.592 29.184-71.68 0-10.24-2.56-19.968-5.632-29.184-28.16-88.064-179.712-155.648-364.032-155.648-183.808 0-335.36 67.584-363.52 155.648-3.584 9.728-6.144 19.456-6.144 29.184 0 25.6 10.24 49.664 29.184 71.68 17.92 22.528 45.056 41.984 78.848 58.88z" p-id="9999" fill="#ffffff"></path><path d="M730.112 496.64c26.112 0 51.2 4.608 74.752 12.8 21.504-23.552 33.28-49.152 33.28-76.8 0-18.432-7.168-35.84-16.896-52.736-21.504 36.352-64.512 67.072-121.344 90.624-44.544 24.576-131.072 41.472-230.912 41.472-100.352 0-186.368-16.896-230.912-41.472C180.736 447.488 138.24 416.256 116.736 379.904c-10.24 16.896-17.408 34.304-17.408 52.736 0 101.888 165.376 184.832 369.664 184.832 22.016 0 44.032-1.024 65.024-3.072 36.864-70.144 111.104-117.76 196.096-117.76zM535.552 826.368c-21.504 1.536-44.032 2.56-67.072 2.56-100.352 0-186.368-16.896-230.912-41.472-57.344-23.04-99.84-54.272-121.344-90.112-10.24 16.896-17.408 34.304-17.408 52.736 0 101.888 165.376 184.832 369.664 184.832 57.344 0 111.616-6.656 159.744-17.92-38.912-20.992-71.168-52.224-92.672-90.624z" p-id="10000" fill="#ffffff"></path><path d="M513.536 669.184c-14.336 0.512-29.696 1.024-45.056 1.024-100.352 0-186.368-16.896-230.912-41.472-57.344-23.04-99.84-54.272-121.344-90.112-10.24 16.896-17.408 34.304-17.408 52.736 0 101.888 165.376 184.832 369.664 184.832 15.872 0 31.232-0.512 46.592-1.536-4.608-17.92-7.168-36.352-7.168-55.808 0-16.896 2.048-33.792 5.632-49.664zM737.28 534.528c-103.936 0-187.904 83.968-187.904 187.904s83.968 187.904 187.904 187.904 187.904-83.968 187.904-187.904-83.968-187.904-187.904-187.904z m115.712 209.92h-93.696v93.696c0 12.288-9.728 22.016-22.016 22.016s-22.016-9.728-22.016-22.016v-93.696h-93.696c-12.288 0-22.016-9.728-22.016-22.016s9.728-22.016 22.016-22.016h93.696v-93.696c0-12.288 9.728-22.016 22.016-22.016s22.016 9.728 22.016 22.016v93.696h93.696c12.288 0 22.016 9.728 22.016 22.016s-9.728 22.016-22.016 22.016z" p-id="10001" fill="#ffffff"></path></svg>