<?xml version="1.0" standalone="no"?><!DOCTYPE svg PUBLIC "-//W3C//DTD SVG 1.1//EN" "http://www.w3.org/Graphics/SVG/1.1/DTD/svg11.dtd"><svg t="1530671053953" class="icon" style="" viewBox="0 0 1024 1024" version="1.1" xmlns="http://www.w3.org/2000/svg" p-id="5188" xmlns:xlink="http://www.w3.org/1999/xlink"><defs><style type="text/css"></style></defs><path d="M655.3 351.7c17.3 0 32.5-14.2 32.5-32V175.4c0-17.8-15.2-32-32.5-32-17.8 0-31.5 14.2-31.5 32v144.3c-0.5 17.8 13.7 32 31.5 32z m-63.5-128.1H431.2v47.8h160.6v-47.8z m188 0h-60v47.8h62c18.3 0 33.5 15.2 33.5 33.5v111.3H207.1V304.9c0-18.3 15.2-33.5 33.5-33.5h62.5v-47.8h-59.5c-46.2 0-83.8 38.1-83.8 84.4v488.3c0 46.2 36.6 84.4 82.8 84.4h537.6c46.2 0 83.8-38.1 83.8-84.4V308c-0.4-46.8-38-84.4-84.2-84.4z m36.1 575.2c0 18.3-15.2 33.5-33.5 33.5H240.6c-18.3 0-33.5-15.2-33.5-33.5V464h608.8v334.8z m-481.2-191c26.4 0 48.3-21.9 48.3-48.3s-21.3-48.3-48.3-48.3c-26.4 0-48.3 21.9-48.3 48.3 0 26.9 21.8 48.3 48.3 48.3z m176.3 0c26.4 0 48.3-21.9 48.3-48.3S538 511.2 511 511.2c-26.4 0-48.3 21.9-48.3 48.3 0 26.9 21.9 48.3 48.3 48.3zM333.6 784.6c26.4 0 48.3-21.9 48.3-48.3S360.6 688 333.6 688c-26.4 0-48.3 21.9-48.3 48.3 0.1 26.5 21.9 48.3 48.3 48.3z m177.4 0c26.4 0 48.3-21.9 48.3-48.3S538 688 511 688c-26.4 0-48.3 21.9-48.3 48.3 0 26.5 21.9 48.3 48.3 48.3z m176.3-176.8c26.4 0 48.3-21.9 48.3-48.3s-21.3-48.3-48.3-48.3c-26.4 0-48.3 21.9-48.3 48.3 0 26.9 21.4 48.3 48.3 48.3zM366.7 351.7c17.3 0 32.5-14.2 32.5-32V175.4c0-17.8-15.2-32-32.5-32-17.8 0-31.5 14.2-31.5 32v144.3c0 17.8 14.2 32 31.5 32z m0 0" p-id="5189" fill="#515151"></path></svg>