<?xml version="1.0" standalone="no"?><!DOCTYPE svg PUBLIC "-//W3C//DTD SVG 1.1//EN" "http://www.w3.org/Graphics/SVG/1.1/DTD/svg11.dtd"><svg t="1522136285019" class="icon" style="" viewBox="0 0 1024 1024" version="1.1" xmlns="http://www.w3.org/2000/svg" p-id="4914" xmlns:xlink="http://www.w3.org/1999/xlink"><defs><style type="text/css"></style></defs><path d="M707.6 420.8L484 644.4c-5.3 5.3-12.6 8.5-20.6 8.5-8.1 0-15.3-3.3-20.6-8.5L316.4 518c-5.3-5.3-8.5-12.5-8.5-20.6 0-16.1 13.1-29.1 29.1-29.1 8.1 0 15.3 3.3 20.6 8.5l105.7 105.7 202.9-202.9c5.3-5.3 12.6-8.5 20.6-8.5 16.1 0 29.1 13.1 29.1 29.1 0.2 8.1-3.1 15.4-8.3 20.6z" p-id="4915"></path><path d="M512 950.7C270.1 950.7 73.3 753.9 73.3 512 73.3 270.1 270.1 73.3 512 73.3S950.7 270.1 950.7 512c0 32.5-3.6 64.8-10.6 96.2-4.1 18.1-22 29.5-40.2 25.5-18.1-4.1-29.6-22-25.5-40.2 5.9-26.6 9-54 9-81.5 0-204.8-166.6-371.4-371.4-371.4-204.8 0-371.4 166.6-371.4 371.4 0 204.8 166.6 371.4 371.4 371.4 35.1 0 69.9-4.9 103.2-14.5 17.8-5.2 36.5 5.1 41.7 23 5.1 17.9-5.2 36.5-23 41.6-39.4 11.4-80.4 17.2-121.9 17.2z" p-id="4916"></path><path d="M769.3 815.1c0 14 5.7 27.8 15.6 37.7 9.9 9.9 23.7 15.6 37.7 15.6 14 0 27.8-5.7 37.7-15.6 9.9-9.9 15.6-23.7 15.6-37.7 0-14-5.7-27.8-15.6-37.7-9.9-9.9-23.7-15.6-37.7-15.6-14 0-27.8 5.7-37.7 15.6-9.8 9.9-15.6 23.7-15.6 37.7z" p-id="4917"></path></svg>