<?xml version="1.0" standalone="no"?><!DOCTYPE svg PUBLIC "-//W3C//DTD SVG 1.1//EN" "http://www.w3.org/Graphics/SVG/1.1/DTD/svg11.dtd"><svg t="1531642318490" class="icon" style="" viewBox="0 0 1024 1024" version="1.1" xmlns="http://www.w3.org/2000/svg" p-id="3131" xmlns:xlink="http://www.w3.org/1999/xlink" width="16" height="16"><defs><style type="text/css"></style></defs><path d="M510.796592 786.864138c-5.270027 0-10.559497-1.072425-15.464203-3.245927l-408.995021-180.439582c-19.37528-8.537444-28.141944-31.188326-19.6045-50.564629 8.537444-19.349697 31.213909-28.14092 50.564629-19.6045l393.499096 173.58957 393.525702-173.613106c19.37528-8.537444 42.021046 0.25378 50.558489 19.6045 8.537444 19.37528-0.228197 42.022069-19.6045 50.559513L526.287401 783.592628C521.351995 785.767154 516.062526 786.864138 510.796592 786.864138L510.796592 786.864138zM510.796592 486.126726c-5.270027 0-10.559497-1.072425-15.464203-3.242857L86.337367 302.440194c-19.37528-8.537444-28.141944-31.18321-19.6045-50.559513 8.537444-19.37528 31.213909-28.14706 50.564629-19.609617l393.499096 173.593663 393.525702-173.6172c19.37528-8.537444 42.021046 0.228197 50.558489 19.6045 8.537444 19.380396-0.228197 42.027186-19.6045 50.563606l-408.988882 180.439582C521.351995 485.054301 516.062526 486.126726 510.796592 486.126726L510.796592 486.126726zM510.796592 486.126726" p-id="3132"></path></svg>