<?xml version="1.0" standalone="no"?><!DOCTYPE svg PUBLIC "-//W3C//DTD SVG 1.1//EN" "http://www.w3.org/Graphics/SVG/1.1/DTD/svg11.dtd"><svg t="1530514253054" class="icon" style="" viewBox="0 0 1024 1024" version="1.1" xmlns="http://www.w3.org/2000/svg" p-id="5477" xmlns:xlink="http://www.w3.org/1999/xlink" width="16" height="16"><defs><style type="text/css"></style></defs><path d="M668.1 282.5c2.5 2 11.4 2 13.4 6.5-2.5-4.5 2-4.5 2-6.5-7 0-8.9 0-13.4-2 1.9 2.5-4.5 0-2 2z m17.4 5c2 4.5 4.5 4.5 6.5 6.5-4.5 0-6.5 2.5-6.5 4.5 4.5 2 8.9 2 8.9 6.5 2.5-2 4.5-6.5 4.5-10.9-4.5 6.8-4.5-8.6-13.4-6.6z m-30.8-18.4c2 0 0 4.5 2 6.5 4.5 0 7 2 8.9 2 2.5 0 0-4 4.5-2v-6.5c-4.5 0-4.5-4-10.9-2v-4.5c-2.5 2.5-2.5-2-4.5-2 0 4.5 2 4.5 2 4 2.4 2.5-2 0-2 4.5zM307.8 749.2c4.5-2 4.5 2 6.5 2 0-4 1.5-6 3.5-8-3-3-6.5-5.5-9.9-7.5 0 2 0 4.5-4.5 4.5-2 4.5 4.5 0 2 4.5 2 0 0-4.5 4.5-4.5 1.8 4.5-4.6 4.5-2.1 9z m83.5-508.4c4.5-4.5 11.4-4.5 13.4-8.9 0 2 0 2 2 2 8.9-6.5 28.8-4.5 37.8-10.9 10.9 4.5 25.8-3.5 40.8-2h10.8c0-2.5-4.5-2.5-4.5-4.5 2.5 0 4.5-2.5 4.5-4.5h-10.9c0 2.5 2 4.5 0 4.5h-1c4 0 6.5 2 2 4 0-2 0-2-2-4h-1v-4c-2.5 0-8.9 0-8.9 2-4-4.5-17.4-2-21.9 0 0 2.5 2 4.5-2 4.5s2.5-4.5-2-4.5c-2 0-2 4.5-6.5 4.5-4.5-6.5-17.4-2-26.3 0-2.5 4.5 4 0 2 4.5-4.5-2.5 0 4-4.5 2 2-6.5 0 0-4.5-4.5 0 2 2 6.5 0 6.5V223c-15.4 0-19.9 8.9-35.3 8.9 2.5 2.5-2 2.5-2 4.5-21.9 8.9-41.7 19.9-57.2 33.3 2.5 0 4.5-2 4.5 0 0 4.5-4.5 6.5-4.5 10.9 24-13.5 46.3-33.4 77.2-39.8z m75.5-24.4c-2.5 2.5-4.5 4.5-8.9 4.5 2.4-4.5 6.9-2 8.9-4.5z m37.3-2c2.5 4.5 0 2 4 9.4 4.5 0 8.9 4.5 10.9 0 2 4.5 13.4 0 15.4 4.5-2-4.5 4.5-6.5 8.9-4.5v2c-2 0-6.5-2.5-6.5 2 8.9-2.5 8.9 4 17.9 2-2.5-4.5 2-4.5 2-6.5-6.5-2-2 4.5-6.5 4.5v-8.9c-15.4 0-17.4 0-30.8-4.5-2.5 2.5-4.5 4.5-8.9 4.5v-4.5h-6.4z m198.8 90.5h-6.5c0 4.5 2 4.5 2 6.5 4.5 0 4.5-2.5 6.5-4.5-2 0-2 0-2-2zM495.1 676.1c0-2.5-2-4.5-6.5-4.5 2.5 2 2.5 4.5 6.5 4.5zM213.3 769c2 2-0.5 6.5 2 6.5 0-2 2-6.5-2-6.5z m345.4-547.6v10.9c6.5-2 10.9 4.5 15.4 0 4 8.9 12.9 8.9 21.9 10.9 0-2-2-6.5 0-6.5 0 2 4.5 4.5 4.5 6.5-4.5 2.5 0-4-4.5-2 0 4.5 7 6.5 13.4 6.5 0-2.5 0-2.5 2-4.5-2 0-2 0-2-2h0.5v-4.5c-4.5 2.5-13.4-2-15.4-6.5-2 0-2 2-2 2 0-4-8-4.5-10.4-1.5 2-6-8 1.5-16.9-1 0-2-2-2 0-6.5-4.5 0.2-2-3.8-6.5-1.8z m49.7 19.9c0 1 0 2-1 2 0 0-2 0-2-2h3z m122.8-30.9c-2 6.5-8.9 17.9 0 19.9 4.5 2 0-4.5 4.5-2 2 4.5-4.5 0-2 4.5 8.9 6.5 13.4 17.9 28.8 19.9 0 2-6.5-2-4.5 2 2 0 4.5 2 4.5 6.5 1.5 0.5 2 0.5 2 0 1-0.5 1.5-1 2-1-1.5 7 13.4 5.5 7.5 9.4 2 0 2-2 6.5 0 0 0-2-2 0-2 2 4.5 2 0 4.5 0 0 2 4.5 4.5 2 10.9h-4.5v4.5c4.5 0 4.5 0 8.9-2 0 2-2 4.5-6.5 4.5 4.5 4.5 2 4.5 6.5 8.9l21.9-6.5c-2 0-4.5 2-4.5 0v-4.5c-4.5-2-6.5-6.5-8.9-10.9-2-2-2 4.5-4.5 0 0 0 2 0 2-2-2-2-4.5-2-4.5-4.5-2-2-4.5 4.5-6.5 0h4.5c0-2-4.5-4.5-4.5-8.9h-6.5v-6.5c-17.9-8.9-19.9-30.8-44.2-30.8 0 0 2 4.5 0 4.5 2-4.5-4.5-6.5 0-8.9 2 4.5 2-2 6.5 2 0-6.5-8.9-13.4-15.4-8.9-0.1 1.9 4.4 0 4.4 1.9z m-23.9 97c0 4.5-4.5 2-2 6.5 4.5 0 2-4 6.5-2 2-4.5-4.5-0.1-4.5-4.5z m-88.4-57.7c-2 2.5 0 2.5 0 4.5 4.5 2.5 4.5-2 6.5-2 0 4.5 4.5 4.5 8.9 6.5 2.5-4.5-4-4.5-2-8.9v-4.6c-4.5 2.5-6.5-2-10.9-2 0 4.5 4 2 2 6.5h-4.5z m-46.2 536.7c-6.5 4.5-17.9 4.5-21.9 8.9-2-4.5-6.5 0-8.9 2-13.4-4.5-30.8 4.5-48.7 2 0 0 0 2-2 2 0-2 2-2 2-2-13.4 0-21.9-2-30.8 2v-4.5c-6.5 0-10.9 0-15.4-2-4.5 2-4.5 4.5-4.5 6.5 0-2-2-2-2-2 2 0 2-2 2-4.5-6.5 0-10.9-2-15.4-4.5 0 2 2 4.5 0 4.5-4.5-4.5-10.9-6.5-15.4-8.9 0 2 2 4.5 0 4.5 0 0-2 2-2 0 0 0 2 0 2-2-6.5 0-10.9-2-17.9-4.5-2 0 0 4.5-2 4.5 0 0-2 2-2 0 2 0 2 0 2-4.5-4.5-2-8.9 2-13.4 0 0-2 6.5 2 4.5-2-13.4-2-17.9-13.4-30.8-15.4 0 2-2 4.5-4.5 4.5-2-4.5 2-4.5 2-6.5-11.4-6.5-21.4-13.9-31.3-21.4 0.5-0.5 0.5-1 0.5-1l-1 1s0.5 0 0.5 0.5c-1 3 0.5 5 0.5 7.5h-4.5c2 4.5 6.5 6.5 10.9 8.9 2-4.5-4.5 0-2-4.5h4.5c0 4.5 2 6.5 2 8.9 2 0 2-2 2-2 4.5 6.5 10.9 13.4 24.4 13.4-2 2 0 2 0 4.5 4.5 0 6.5 2 8.9 2 0-2 4.5-4.5 6.5-2-2 0-2 2-2 6.5 4.5 0 8.9 0 10.9 4.5 4.5 2 0-4.5 4.5-2-2 4.5 4.5 0 2 4.5 19.9 4.5 44.2 17.9 66.1 13.4 2 0 0 4.5 4.5 4.5s2-4.5 6.5-4.5v4.5c6.5-2 13.4 0 19.9 2-2-4.5 2-4.5 2-6.5-2 0-4.5 4.5-6.5 0 2-2 4.5-2 6.5-4.5 0 2 4.5 0 4.5 2v2c-4.5 0-4.5 0-4.5 4.5 13.4 0 24.4-2 41.7-2 0-2-2-4.5 0-4.5v4.5c4.5-4.5 15.4-2 19.9-6.5 0 0 0 2 2 2 17.9-6.5 39.8-8.9 53.2-19.9 6.5 0 17.9-2 19.9-8.9 0 0 0 2 2 2 8.4-7 19.4-10.9 27.8-17.4 1.5-0.5 2-0.5 2.5-1 2.5-2 4.5-4 6.5-6.5 2-2-4.5 2-2-2 6.5 2 8.9 0 8.9-4.5 2 0 0 2 0 4.5 4.5 0 2-6.5 10.9-4.5 2-2-4.5-4.5 0-6.5 1.5 1.5 3 2 4 2l0.5 0.5v-0.3c1.5-0.5 2.5-2.5 4-4h2.5v-2c1-0.5 2.5-0.5 4.5-0.5v-4.5c10.9-4.5 15.4-15.4 26.3-21.9 0-8.9 8.9-8.9 8.9-17.9h4.5c0-4.5 4.5-10.9 0-15.4 6.5 2 8.9-2 10.9-4.5 15.4-28.8 26.3-48.7 35.3-84-6.5-2-6.5 6.5-13.4 4.5-8.9 39.8-19.9 57.6-39.8 84 0 4.5 2 13.4 0 15.4-2-2-4.5-2-8.9-2-17.9 21.9-37.8 44.2-61.6 59.6v2c-8.9-2-15.4 4.5-19.9 10.9-15.4 2-26.3 15.4-44.2 17.9 0 2 2 4.5 0 4.5-4.5-4.5-15.4 0-17.9 6.5-2.2 0.1 1.7-6.3-2.2-4.4z m112.8-492.5s-1-2-1-4c-0.5 1.5-1.5 3-1.5 4h2.5z m-445.3 62.2c0 6.5-4.5 6.5-6.5 10.9 2 0 6.5-2 6.5 0-2 0-2 0-2 4.5 19.9-17.9 28.8-42.2 48.7-57.6-2.5-2.5-3-4.5-2.5-7h2c0.5-1 1.5-1.5 2.5-2 0 1.5-1 3.5-1 4.5 2-5 4-8.9 5.5-12.4-0.5 0-0.5 0-1 0.5 0 3-1.5 4.5-3 6 0-0.5 0-1.5-0.5-2-1 2-3 2-4 3 0.5-1 1-2.5 1.5-3.5-4.5 1-5 4.5-8.9 6.5 0 2 2 6.5 0 6.5-2-8.9-6.5 6.5-10.9 4.5 2 6.5-10.9 8.9-4.5 15.4-4.5 2.5 0-4-4.5-2v6.5c-6.5-2.5-4.5 6.5-10.9 6.5 0 4.5-4 4.5-2 8.9 2.5 0 4.5-2 4.5 0v2.5c-4.5 0-7 2.5-8.9 4.5-0.1-0.3 1.9-6.7-0.1-4.7zM219.3 778v6.5c2 0 4.5-2 4.5-4.5-4.5 2 0-4.5-4.5-2z m466.2-490.5c-0.5 0.5-1 1.5-1 2.5 0.5-1 1-2 1-2.5z" p-id="5478"></path><path d="M288.4 301.4v-1c0-2-2 0-2 0s0 0.5-0.5 0.5h2c0.5 0 0.5 0 0.5 0.5z m422.4-85.5c0 1 1 1.5 2 1.5 0-0.5-0.5-1.5-2-1.5zM310.2 287c-2.5-6.5 2-8.9 2-15.4-4.5 0-2 4.5-6.5 4.5-2.5 4.5 4 0 2 4.5-4.5 2.5 0-4-4.5-2 0 0 2 4.5 0 4.5h-4.5c0 2-2.5 2-4.5 2 1.5 5 0.5 8.4-1 12.4 8.1-2.6 11.1-9 17-10.5zM187 268.1c0.5-0.5 0-0.5 0 0z" p-id="5479"></path><path d="M146.2 378.9s-2-4.5 0-6.5c2 0-2 8.9 2 6.5-2-10.9 4.5-10.9 4.5-17.9-1-0.5-1.5-2-2.5-4 1-1 1.5-2.5 2-4 3.5 0.5 1.5 4 5.5 2 2-4.5-4.5 0-2-4.5 1.5 1.5 0.5-2 1-3.5-0.5 0.5-1.5 0.5-2.5 0 0.5-0.5 1-0.5 1.5-0.5 0-2-4.5-4.5-2-6.5 0 2 4.5 0 2 4.5 2 2 0-2 2-2l2 2c-1 0-1.5 1-2 1.5-0.5 0-0.5 0-0.5 0.5 0.5 0 0.5 0 0.5-0.5 0 0.5 0.5 2 2 2 10.9-21.9 21.9-44.2 39.8-59.6v-6.5h4.5c0-10.9 10.9-8.9 13.4-19.9h4.5c2-6.5 8.9-13.4 15.4-17.9 8.9-6.5 13.4-15.4 21.9-17.9 2-4.5 4.5-6.5 6.5-8.9 6.5 2 4.5-4.5 10.9-4.5 8.9-13.4 30.8-17.9 44.2-30.8 33.3-10.9 61.6-28.8 103.9-33.3 2-2-4.5-2 0-4.5 26.3 2 61.6-4.5 96.9-2 0-2 0-4.5 4.5-2-2 2 2 2 2 4.5 8.9-2 17.9 4.5 21.9 0 4.5 4.5 17.9 8.9 19.9 0v6.5c4.5 0 8.9 0 10.9 2 2-4.5-2-4.5-2-6.5 4.5 2 0-4.5 4.5-2 2 4.5-4.5 0-2 4.5 2 0 2 2 2 4.5 8.9 0 17.9 4.5 24.4 6.5 0 0 0-2 2-2-4.5-2 2-4.5-2-8.9h4.5c0 2 0 2 2 4.5-4.5 2-4.5 4.5-4.5 10.9 2 2 0-4.5 2-4.5 0 0 2-2 2 0 0 0-2 0-2 2 2 0 2 0 2 2 2 2 2-2 4.5-2v4.5c35.3 10.9 61.6 30.8 90.4 48.7 0-2 4.5-4.5 6.5-2-1.5 0-0.5 3.5-1.5 4.5 0-0.5 0-0.5-0.5 0h4.5c2-6.5 2-15.4 2-21.9-6.5 2-6.5-6.5-13.4-4.5 2-2 0-2 0-4.5-24.4-13.4-46.2-26.3-70.6-37.8-2 0 0 4.5-4.5 2v-4.5c-10.9 0-17.9-10.9-28.8-6.5 2 0 2 0 2 2-4.5 2-8.9 2-13.4 4.5 0-4.5 4.5-2 4.5-6.5 2-2-2 4.5 2 2 0-2 4.5 0 2-4.5-15.4-4.5-30.8-8.9-48.7-10.9 0 2 0 4.5-2 4.5 2-4.5-4.5-4.5-8.9-4.5 0 2-2 4.5-6.5 4.5v-6.5c-10.9-2-19.9 6.5-21.9-2-6.5 2-6.5 0-13.4 2-6.5-4.5-21.9 0-35.3 2 0 4.5-6.5 2-2 6.5-1 0-3 0.5-4.5 1v-1l-1 1c-1 0-1.5 0-1.5-1 0-2 4.5-2 2-4.5-17.9-2-26.3 4.5-41.7 2 2 2-2 2-2 4.5-8.9-2-24.4 4.5-33.3 8.9-4.5 2 0-4.5-4.5-2-8.9 4.5-17.9 4.5-26.3 8.9 0 2 2 4.5 0 4.5-2-6.5-8.9 0-10.9 0 0 2 2 6.5 0 6.5s2-8.9-2-6.5l-4.9 4.6c-59.6 24.4-101.4 61.6-141.1 105.9 0 2 4.5 2 4.5 4.5-4.5-2 0 4.5-4.5 2 0-2 2-4.5-1.5-4.5 0.5 1 1 4.5-0.5 4.5h-0.5c0-1-2-0.5 0 0 0 0.5-0.5 1-1.5 2-2 2-6.5 2-6.5 4.5v4.5c-2 0-4.5 0-6.5 2 0 2 0 6.5-2 8.9-2 4.5-2 2-4.5 6.5l-4.5 2c0 2 0 6.5-2 8.9 4.5 2 0-6.5 4.5-4.5 0 4.5-2 6.5-2 10.9 0 0 1 2 1.5 4.5h-1c0-1-0.5-2-0.5-4h-8.4c-4.5 8.9-6.5 17.9-10.9 24.4 2 0 2 6.5 0 8.9 0 0 0-2-2-2 1 1 1 3 2 4.5-4.5 0-2 13.4-8.9 8.9 2-4.5 2-6.5 4.5-10.9h-4.5c0 2 2 8.9-2 8.9 0 2 4.5 2 2 6.5h-6.5c2 4.5-2 4.5-2 6.5 4.5-2 4.5 2 6.5 2 2-2 0-6.5 4.5-6.5-2 6.5-2 8.9 0 15.4-2 0-6.5 2-6.5 0-2-2 2-2 2-4.5-6.5 2-4.5-2-8.9-2 2 8.9-2 10.9 0 17.9h-4.5c0 15.4-6.5 26.3-8.9 41.7-2 15.4 0 19.9-4.5 35.3h19.9c0-41.7 10.9-64.1 21.8-94.9z m7.5-31.3c0.5 2-0.5 2.5-1 3.5 0-1.5 0.5-2.5 1-3.5z" p-id="5480"></path><path d="M202.4 435.1h6.5s0-2 2-2c0-2-2-8.9 0-10.9h2c2.5-2.5 0 2 4.5 2 0-2 4-4.5 2-10.9 8.9-8.9 8.9-26.3 17.9-35.3-4.5-4.5 0-2.5 0-8.9h-8.9s0 2-2 2c0 2.5 2 4.5 2 8.9h-6c-6.6 17.3-15.5 33.2-20 55.1z m8.5 11.4v-8.9c-8.9 0-8.9 8.9-10.9 10.9 1.9 0 6.4-2 10.9-2z m428.3-190.3c-2.5 2.5-4.5 2.5-4.5 4.5 4.5 2 6.5 4.5 10.9 6.5 0-2 2-2 6.5-2-2-4.5-2-2 0-6.5-4.5 2.5 0-4-4.5-2 0 2-2 4.5-2 6.5-4.5-2.5 0-7 0-8.9-7 0-4.5-6.5-13.4-4.5 2.6 4.4 4.6 4.4 7 6.4zM251.6 801.3c1.5 0 3-1 4-1 0-0.5 0.5-0.5 0.5-1-2-1.9-2 2-4.5 2z m215.2 99.9h4.5c-2-7 4.5-7 4.5-8.9-2.5-2-9 2.5-9 8.9z m2-14.4c-1.5-3.5-1.5-1.5 0-6-6.5-2-13.4-2-21.9 0 0-2-4.5-4.5-6.5-4.5 0 2 2 4.5 0 4.5s-2-2-2-4.5c-4.5 2-8.9 2-10.9 0-1.5 3-1 5.5-1 7.5 0.5 4 1 7.5-1.5 8.4 4.5 2 4.5 6.5 10.9 4.5 2-4.5-4.5 0-2-4.5 6.5 0 19.9-4.5 15.4 4.5v-4.5c-4.5 2-4.5 4.5-6.5 6.5 8.9 0 19.9 2 21.9-4.5v6.5c2 0 2-8.9 2-13.4 1.1-0.5 1.6-0.5 2.1-0.5z m6.9-3c2 2-2.5 0-2.5 4.5h4.5c0-2.5 0-4.5-2-4.5z m333-194.3c-2 4.5 4.5 0 2 4.5-2 0-2 4.5-6.5 2-2 6.5-4.5 13.4-4.5 21.9l-2-2c2 0 2 0 2-4.5-4.5 6.5-8.9 10.9-13.4 17.9-2 2 4.5 4.5 2 6.5 0 0-2 0-2-4.5-4.5 4.5-8.9 8.9-8.9 15.4-2 2-2 0-4.5 0 0 2 0 6.5-6.5 6.5-4.5 8.9-19.9 15.4-15.4 24.4l-4.5-4.5v4.5c-15.4 4.5-21.9 19.9-37.8 26.3 0 1 0.5 1.5 1 1.5-3.5-1-6 2.5-9.9 2.5v4.5c-21.9 13.4-44.2 21.9-64.1 35.3-2-2-13.4 2-15.4 6.5 0 0 0-2-2-2-8.9 6.5-24.4 8.9-37.8 10.9-2 4.5 2 2 2 6.5-2 0-4.5 2-6.5 0 2 0 2 0 2-2-4.5 2 0-4.5-4.5-2-6.5 4.5-21.9 0-26.3 6.5-4.5-4.5-15.4 0-19.9 0 4.5 4.5-2 4.5 0 10.9h0.5c-0.5 1 1 4-2.5 2 2-4.5-4.5-2-4.5-4.5-2-2 2-2 2-4.5-6.5 0-4.5 10.9-13.4 6.5 0-2-2-4.5 0-4.5 4.5-2 0 6.5 4.5 4.5v-10.9c-4.5-2-6.5 4.5-8.9 0 0 4.5-8.9 2-10.9 2 0 2 2 6.5 0 6.5-2-6.5-2 4.5-4.5 2-2-4.5 4.5-4.5 2-8.9h-10.9c0 2 6.5 2 6.5 4.5 0 0 0 4.5-2 4.5s0-4.5-4.5-2c2 2 4.5 6.5 0 10.9 4 0.5 7.5 0.5 10.9 0.5-1 1-2.5 2-4 2 0 2 0 4.5 2 4.5 1.5-3 7.5-3 8-5 1.5 0 3-0.5 4.5-0.5v4.5c2-2 2 4.5 2 0-2-2 0-2 0-4.5h-1.5c9.9-1 17.9-2.5 23.9 0.5 7-1.5 16.4-2 23.4-4-0.5 1-1.5 2-1.5 4h4.5c0-2.5 0.5-4 0.5-5 2.5-1 4.5-2 6-3.5 2 2-2 2-2 4.5 6.5-2 15.4-2 17.9-6.5 2 0 2 0 2 2 4.5 0 4.5-4.5 8.9-4.5 0 2 0 4.5 2 4.5 4.5-2 6.5-4.5 13.4-4.5 0-2-2-6.5 0-6.5 2 6.5 8.9 2 13.4 2 0-1.5-3-3-3-4.5h3v2c0.5 0 1 0 1.5-0.5 3.5-0.5 6.5-1.5 9.9-2.5 0 1 0.5 1.5 2 0.5 0-0.5 0.5-1 0.5-1 8-2.5 15.4-5.5 22.4-8.4 1 2 2.5 2.5 4 1v-3c7.5-3.5 14.9-7.5 21.9-11.4v1h6.5c0-1.5 1-4.5 1-5 1-0.5 2.5-1.5 3.5-2 1.5 0 2.5-1 3.5-2 3-1.5 6.5-3 9.9-5 0-2-2-4.5 0-6.5 0 2 0 4.5 2 4.5 15.4-6.5 26.3-17.9 39.8-26.3 2-4.5-4.5 0-2-4.5 4.5-2 0 4.5 4.5 2 0-2-2-6.5 0-6.5s-2 6.5 2 4.5c13.4-17.9 33.3-28.8 44.2-48.7-2 0-4.5 2-4.5 0 2 0 2-2 4.5-2v4.5c6.5-2 8.9-10.9 13.4-17.9 2-2 4.5-2 6.5-4.5 2-2 0-6.5 2-8.9 2-2 6.5-4.5 8.9-6.5 2-4.5 2-8.9 4.5-13.4 0-2 4.5 0 4.5-2v-4.5l6.5-6.5c2-6.5 4.5-15.4 6.5-19.9 2 0 4.5 0 4.5-2s-2-6.5 0-8.9c0-2 4.5-2 4.5-4.5v-6.5s4.5 0 4.5-2v-6.5s4.5-2 4.5-4.5c0-6.5 0-13.4 2-19.9 0 0 4.5-2 4.5-4.5 2-13.4 2-28.8 6.5-39.8l-17.9-4.5c-9.5 48.9-22.4 93.1-49.3 121.4zM531.9 887.3s-2 0-2-4.5c-0.5 0-0.5 0-1-0.5 1.5-0.5 3-1 3 0.5 0 2 2 4.5 0 4.5z m149.6-42.2c1-0.5 1.5-1 2-1-0.5 0.5-1.5 1-2 1z m-457.7-71.6V769h-4.5c2 4.5-2 4.5-2 6.5 4.5 2 4.5-2 6.5-2z" p-id="5481"></path><path d="M398.2 867.9c-17.9-2-33.3-8.9-48.7-15.4v2c0-4.5-6.5 0-4.5-4.5-4.5 0-6.5 2-8.9-2-4.5-4.5-8.9-8.9-17.9-8.9 0 2-2 4.5-4.5 4.5 0-2 4.5-2 2-6.5-6.5-2-10.9-8.9-17.9-10.9l-4.5 4.5c-2-2-4.5-2-6.5-4.5 2-8.9-10.9-13.4-19.9-15.4 2-6.5-6.5-2-4.5-8.9-2-2-2 2-4.5 2 0-1-1.5-1-2.5-1.5-1.5 4.5 0 9.9-4 9.9 2-4.5-4.5-2-4.5-4.5v-4.5h5.5c-4.5-2-4.5-6.5 0-8.9 0-4.5-2 2-6.5 4.5-2 2 4.5 2 0 4.5 0 0 0-2-2-2-2 2-2 6.5-2 10.9 6.5 0 6.5 4.5 10.9 6.5 0-2 0-4.5 2-4.5v6.5c10.9 6.5 21.9 15.4 35.3 21.9 2-8.9 8.9 4.5 13.4-2 0 2 2 2 2 4.5-4.5 0-4.5 2-4.5 6.5 8.9-2 10.9 2 15.4 6.5 2-2-4.5-4.5 0-6.5 2 2 2 4.5 2 8.9 8.9 2 15.4 4.5 24.4 8.9 2-4.5-4.5-4.5-4.5-8.9 4.5-2 0 4.5 4.5 2 2-2 2-4.5 2-8.9 2 2 8.9 6.5 4.5 10.9 0 0 0-2-2-2 0 4.5 2 6.5 2 8.9 8.9-2 8.9 2 15.4 2 0-2 2-4.5 2-6.5 0 0 2 2 2 6.5h6.5c-2 4.5 0 4.5 0 6.5 5 1.5 9.4 2.5 14.4 4 1 1.5 1.5 2 2 2 3 1 5.5 1.5 8.9 2.5-2-4.5 2-6.5 2-8.9 2 0-2 6.5 2 4.5 2-4.5-2-4.5-2-6.5h4.5v-7c-4.5 0-6.5 2-8.9 2 2.1-2.2 0.1-2.2 0.1-4.7z m-62.1-15.4s-2 2-2 0c0-1.5 2.5-0.5 2.5-2.5 0.5 1 0.5 2.5-0.5 2.5z m132.7 34.3c0 2 1.5-0.5 0 0z" p-id="5482"></path><path d="M255.6 802.3c0-0.5 0-0.5 0.5-1 0-0.5 0-1-0.5-1-0.5 1 0 1.5 0 2z m162.5 79.1c4.5-6.5 13.4-2 0-6.5 0 6.5-2 8.9-2 13.4 0 0-6.5 2-4.5 2 6.5-2 6.5 4.5 13.4 2 0-4 0-6 1.5-8.4-3.9 1.4-5.9-2.5-8.4-2.5z m73.5-488.6v-1.5c-3 0.5-3 2-3.5 2.5 1.1-0.5 2.1-0.5 3.5-1z m-24.3 6c-2 2 0 4-2 4-4.5-1.5-8-1-11.9-0.5 1.5 3 3.5 5 5 6.5 0-1.5-4-3.5 0-5.5 2 5.5 7.5 3.5 9.4 7.5 1.5-2 3.5-2 7.5-2v-4c-3.5-2-5.5 6-7.5 2 2-2 5.5-3.5 6-7 0 0.5-0.5 0.5-0.5 1 1.4-4-4-2-6-2z" p-id="5483"></path><path d="M474.2 399.3c-0.4 0-0.4 0 0 0l-0.5 0.5 0.5-0.5z m5.5-3c-0.5 0-1.5 0-2.5 0.5 1 0 2 0 2.5-0.5z m5.5-2.5l-1 1c1 0 1.5-0.5 2.5-0.5-0.5 0-0.5-0.5-1.5-0.5z m-38.8 7.5c1 1 1.5 2 2 2.5 1.5-0.5 3.5-1 5-1.5-0.5-1.5-1-3-1-5-4-2-4 2-6 4z m-289.7 79.5c-13.4 1.5-6-0.5-9.4 0.5 2 2.5 3 4.5 4.5 6-2.5 0-4 0.5-5.5 1 0.5 2 1.5 4 2 6 0.5-1 1.5-2 2-3v0.5c3.5 0 5.5-0.5 6.5-2-1 0-2-0.5-2.5-0.5 0.5 0 0.5-0.5 0.5-1h-0.5v-1.5c0-1.5 0.5-3 2-4.5-0.1-0.5-0.1-1 0.4-1.5z m-3.5 8c0 0.5-0.5 0.5-1 0.5 0-0.5 0.5-0.5 1-0.5l-1-1h1.5c0 0.5-0.5 0.5-0.5 1z" p-id="5484"></path><path d="M145.7 481.3c0-0.5 0 0-0.5 0.5 1-0.5 1.5-0.5 2-0.5l-0.5-0.5-1 0.5z m308.7-68.1h-1.5v-7.5c-2 0-3-0.5-4-1.5-4.5 1.5-8.9 3-13.9 3-38.3 11.4-80 22.9-122.3 32.3-17.4 4-34.8 11.4-53.7 13.4-13.4 4-28.8 7.5-42.2 11.4-2 2 0 4-2 4-19.4-2-34.8 9.4-53.7 11.4-2 3.5 2 1.5 2 5.5-1.5 0-6 1-6.5-2 0 1-1 2-2 4h4c0 1.5-0.5 2.5-1 3.5 1 0 2 0 3-0.5 0-2-2-2-2-4 5.5-1.5 1.5 6 7.5 4 2-3.5-2-1.5-2-5.5 7.5 5.5 20.9 3.5 24.8-4 4 5.5 9.4-2 15.4 0 2-3.5-4-1.5-2-5.5h6c0 2 0 4 2 4 7.5-1.5 13.4-5.5 22.9-5.5 72.6-20.9 147.1-39.8 221.7-58.6-1-1.4-1-1.9-0.5-1.9z m-238.6 60.1c0-2 2-2 2-4 4-1.4 2 6-2 4z" p-id="5485"></path><path d="M456.4 410.7c-3-1.5-1.5 1.5-2.5 2.5 1-1 4 0.5 2.5-2.5z m-412 104.9c6 1.5 0-4 4-4v5.5c3.5 1 5.5 0 7-1-2-1.5-2-3.5-2-4.5 2.5 0 4 0.5 5 2 1-1 2-1.5 3.5-2 0 2 2 8 2 4 2-1.5 0-5.5 2-5.5 4 0 2 3.5 2 5.5 5.5-2 11.4-4 18.9-4 2-1.5 2-3.5 4-5.5 2 0 0 4 4 4 4-2 4-5.5 6-9.4 0.5 0.5 1.5 1 2 1.5-2 1.5-2 1.5-2 5.5 4-2 11.4-2 17.4-4 2-2-4-4 0-4 7.5 5.5 11.4-4 22.9-9.4 0.5 0 1-0.5 1.5-0.5-0.5-0.5-1-0.5-1.5-1v-1.5l0.5-0.5h4v2c-1 0.5-2 0.5-3 1 1 0 2 0.5 3 0.5v-1h1c-0.5-2.5-0.5-3.5 0.5-3.5 1.5-1-1.5-2.5-1.5-4-1 0.5-2.5 0.5-4 1l4.5-2s0.5 0 0.5-0.5c-13.4 5-31.8 5.5-42.2 12.4-2 0-2-2-4-2-2 2 0 4-2 4-4-5.5-11.4 0-13.4 4-2 2 4-2 4 2v4h-4c2-5.5-4-3.5-2-7.5-8 3.5-15.4 0-15.4 7.5 0-2 0-6-4-4 0 3.5-4 3.5-6 5.5-6-5.5-9.9 2-17.4 0-1.5 1.5-0.5 3-1 3.5 2 0.5 2.5 2 5.5 2v3.9h-0.3z m96.4-32.8v2c-1 0-2.5 0.5-4.5 1.5 1-1.5 2-3.5 4.5-3.5z m-3.5 5c-1 1-1.5 2.5-2.5 0.5 1-0.5 1.5-0.5 2.5-0.5zM105 501.7c2 0 8-2 6 2-2 0-8 1.9-6-2z m-5-1c-5 0-7 0-8.9-4 3-1.5 5.9 1.5 8.9 4z m-15.9 6.9v3.5c-4 0-4-2-4-3.5h4z m-9.9 3.5c-3.5 0-1.5-5.5-4-5.5 2 0 4 1.5 4 5.5z m405.5-114.8c1-0.5 2-0.5 3-1 0.5-0.5 0.5-1 0.5-1.5-1 1-2 1.5-3.5 2.5z m318.6-78.5c-5.5-2-3.5 4-9.4 2 1-1.5 1.5-3 3-4-5.5 1.5-11.4 2.5-17.4 3.5 0.5 0.5 0.5 1.5-0.5 2.5-1.5 0-3 0-3.5-2h-0.5c-2 3.5 4 1.5 2 5.5-4 1.5-2-4-6-4-93 23.3-183.9 48.2-274.9 72v2.5h-6c4 1.5-1 4.5-2 7.5-6 1.5-4.5-3-7-5-0.5 0.5-1 0.5-2 1 5 0.5 5 7.5 8.9 9.4v-3.5l2 2c2-1.5 0-5.5 2-5.5 7.5 2 9.4-4 13.4 0 2-3.5 2-1.5 0-5.5h6v5.5c2-0.5 4-2 6.5-3-1.5-0.5-5 0-5-3 6 1.5 8-2 8-1.5 0 1.5-3 1.5-2.5 4.5 5-2 9.9-3.5 13.9-1 2-1.5 2-3.5 4-5.5 8 7.5 15.4-4 26.8-2 72.6-22.9 149.1-41.7 223.6-60.6 2-5.5 0-7.5-2-9.4 2 0 2-2 4-2v7.5c33.3-6 64.1-15.4 96.4-23.9 0.5 0 0.5 0 1.5-0.5 8-2 15.9-4 24.4-6l0.5-0.5c-4.5 0.5-10.4 1.5-15.9 2l6-3c-2-1-4-1.5-2.5-4.5-18.9 4-34.3 11.4-57.2 13.4l-17.4 5.5c-7.5 1.5-14.4 3.5-21.4 5.5v4.1h0.2z m81-19.9c-1-0.5-1.5-0.5-1.5-0.5 0.5 0 1 0 1.5 0.5z m-13.9 3h6c0 2-4 2-6 4v-4z m41.7-6.5v-1c0 0.5-0.5 1 0 1z" p-id="5486"></path><path d="M484.2 394.8c-0.5 0-1 0-1.5 0.5 0 2-1.5 2-3.5 4 3.5 0 4-2.5 5-4.5z m285.8-77c0 1 0 1.5 0.5 2 1.5 0 2.5-0.5 4-0.5-0.6-1.5-3.1-1.5-4.5-1.5z m208.7 159.5c-11.4-13.4-7.5-39.8-18.9-53.2 5.5-9.4-6-18.9-4-30.3-6-2 0 5.5-4 5.5 2-13.4-2-26.8-11.4-32.3 4-2 2 2 6 2-3.5-7.5-3.5-20.9-9.4-26.3 5.5-11.4-6-24.4-6-37.8-2-2-4 0-4-2 4-6-2-11.4-2-20.9-3 0.5-5 0.5-7 1 2 0 3 1.5 3 4.5-4 0-6-1.5-6-4-0.5 0-1 0-1.5 0.5l0.5 0.5c-1 0-2 0.5-2.5 1h-2.4c2-0.5 1-1 4.5-2l-3.5-3.5c-4 0 0 5.5-2 4-4 0 0-2-2-4-6-2-6 4-9.4 4 0 2.5 1.5 3.5 2.5 4.5 4.5-1 7-2 8.9-2.5-0.5 0.5-0.5 1.5-0.5 3 1.5 0.5 3 0.5 3 0.5 1-1 1-2.5 1.5-3.5v7.5h0.5c0-2 0-3.5 1-3.5 2 3.5 2 5.5 6 5.5-5.5 0-3.5 9.4-9.4 5.5 6 22.9 11.4 41.7 17.4 64.6 2 2 4 0 4 2s-4 3.5-2 7.5c9.4 22.9 13.4 51.2 22.9 72.1 2-1.5 0-5.5 2-5.5 2 2 6 0 6 2s0 2-2 2c0 1.5 6 3.5 2 5.5-4 0 0-6-4-4-6 22.4 11.4 41.2 11.4 66.1 6 2 0-5.5 4-5.5 6 2 4 9.4 0 11.4-16.9-7.5-34.3 11.4-57.2 9.4-2 0-2 5.5-6 5.5-2-4 4 0 2-4-4.5 1-6 2-6.5 2.5-1 0-2-0.5-3-0.5 0 4-5.5 2-7.5 2-2 4 4 0 2 4-9.4-2-26.8 3.5-36.3 7.5 0-4-5.5 2-11.4 0-2 1.5 0 5.5-2 5.5s0-6-6-4v2c-15.4 0-28.8 11.4-38.3 7.5-7.5 6-24.8 6-32.3 13.4-30.8 2-51.7 11.4-76.5 16.9-2 1.5 0 5.5-2 5.5-4 0-2-3.5-2-5.5-2 4-5.5 0-9.4 2-5.5 4-7.5 11.4-11.4 9.4 2-2 6 0 4-4-9.4 0-16.9 8-22.9 4-9.9 5.5-19.4 9.4-30.8 9.4-28.8 8-55.2 17.4-84 22.9-2 2 0 4-2 4 0-2-3.5-2-7.5-2 0 4-2 6-4 2 0 4 2 7.5 2 9.4-4-1.5-2 4-4 4s-2-2-6-2c1.5 5.5-6 1.5-6 5.5 11.4 2 22.9-3.5 38.3-5.5 2-1.5 0-5.5 2-5.5s0 4 4 4c67.1-19.4 135.7-36.3 202.8-55.2 2-2 0-4 2-4 17.4 5.5 36.3-7.5 53.7-9.4 2-3.5-2-5.5-2-7.5 4 0 6 1.5 6 5.5 19.4-1.5 36.3-7.5 51.7-14.9-4 1.5-4-4-2-4 0 3.5 6 1.5 4 5.5 5.5 0 5.5-2 11.4-2v0.5h27.3c42.2-11.4 42.2-14.9 86-26.3-4-19.6-11.4-32.5-13.4-55.4z m-63.6-166.5c2 0 4 1.5 4 5.5-4-2-4-6-4-5.5z m19.4 67.6h4c0 2-4 2-6 4-2-4 3.4-2 2-4z m3.4 17.4c2-8-3.5-6-4-11.4 2 2 2 2 6 2 0 3.9 2 9.4-2 9.4z m20.9 66.6h4v5.5c-2-2-5.5-2-4-5.5z m6 16.9c0-2-2-2-4-2 0-5.5 6-4 4-9.4h4c0 1.5 0 3.5-2 5.5h-4c0 2 4 2 4 4 4 0 0-7.5 4-5.5v5.5c-4-2.1-2.1 1.9-6 1.9z m3.9 14.9c2-4 2-7.5 4-7.5 0 3.5-2 5.5-4 7.5zM544.3 639.8c-3.5 0-5.5-1.5-3.5-5.5h3.5v5.5z m13.4-7.4v-4c2 0 4 2 4 4h-4zM846 558.3c0-4-5.5-4-6-8.9 1.5 4 8 5.4 6 8.9z m28.8-1.5c-3.5 1.5-5.5 0-4-4h4v4z" p-id="5487"></path><path d="M896.7 293.9c0.5 0 1 0.5 1.5 1 2-1 1.5-1.5 0.5-2-0.5 0.5-1 0.5-2 1z m18.4-10.4c1 0 2-0.5 3-0.5-0.5 0-1.5 0-3 0.5z m-123.3 32.3c2-1 4.5-1.5 6.5-2-3-1-5 0-6.5 2zM904.1 290c2 0.5 2.5 2.5 2.5 4 0.5-1.5 0-3 0.5-4.5-1.5-0.5-3-0.5-3 0.5z m-5.4 2.4c0.5-0.5 1.5-0.5 2-1 0-1-0.5-2-1.5-3-1 0-2 0.5-3 0.5-1 2.1 1 3 2.5 3.5zM477.2 397.3c-1 0.5-2.5 0.5-3.5 0.5 1 0 1.5 0.5 2 0.5 1-0.5 1.5-0.5 1.5-1z m-329 96.9c-1 1.5-1.5 2.5-1.5 2.5 2.5 1 2.5-0.5 1.5-2.5zM43.9 534.5c2-2 0-4 2-4h2c-0.5 0.5-2 1-2 3.5h1c0 2 2 2 2 2 0-2 0-3.5-0.5-5 1.5 0.5 1 0.5-0.5-2-0.5-2.5-1-5.5-1-9.4-2 0-2-4-6-2-2 2 0 7.5-2 7.5h-3c1 3 2 6 2 9.9h6v-0.5z m163 190.8c2 2 4 4 4 5.5 55.2-9.4 104.9-26.3 158.5-39.8 2-2 0-4 2-4 7.5 4 15.4-2 22.9-2 2-2 0-4 2-4 11.4 4 38.3-9.4 59.1-11.4 0.5-0.5 0.5-1.5 0-2 1 1 4.5 0 6 0 2-2 2-7.5 6-11.4 2 0 2 7.5 0 7.5 11.4 2 15.4-4 24.8-4 2-4-6 0-4-4-4-2 0 4-4 2-2-4 4 0 2-4-1.5 0.5-3 1-4 1.5 0-5.5 4-7.5 7.5-8.9 2 7.5 9.4 4 17.4 4-1.5-2.5 0-3.5 1-3-1-2-2-4.5-5-4.5 0 2 0 2-2 2-2 4 4 0 2 4-2-2-6 0-6-2s2-2 2-4c-9.4 2-17.4 5.5-28.8 5.5 2 7.5-9.4 2-4 7.5-4 0-7.5-2-4-4-6 0-13.4 2-9.4 5.5 0-2 0-2 2-2-2 2 0 5.5-2 5.5-2-2-4-2-6-4 0-2 2-2 2-4-6-2-7.5 2-9.4 4-7.5-4-20.9 5.5-32.3 5.5-2 2 0 4-2 4-4 2-6-2-7.5-2 0 5.5-7.5 5.5-9.4 9.4-2-4 2-2 2-5.5-4 2-7.5 5.5-11.4 2-2 4-7.5 4-13.4 4-20.9 5.5-43.7 13.4-68.6 16.9-4 2 0 4-2 5.5 0-2-2-4-4-4-2 2 0 4-2 4 0-2-2-2-6-2-70.6 20.9-86 18.9-158.5 39.8 2 0 2 0 2 2-6 2-4-4-9.4-2-2 4-4 7.5-6 11.4-7.5-5.5 0-13.4-4-20.9-2 2-6 5.5-7.5 2 0-4 4-2 6-2v-7.5c-2 0-2 2-4 2 4-13.4-6-24.8-6-39.8-2-2-4 0-4-2s-2-4-2-2c2 7.5-6 7.5-6 13.4h-1l11.6 39.8c2 2 6 0 6 2-2 2 0 4-2 4s-2-2-4-2c0 7.5 0 13.4 6 14.9-6 4 0 9.4 0 13.4 42.2-9.4 18.9-2 61.1-11.4l17.4-7.5c9.4-4 20.9-7.5 32.3-9.4 0-4-7.5-4-4-7.5z m267.8-73.5c2 2 5.5 2 7.5 4-3.5 2-6.5 4.5-9.4 7.5 1.9-7.6 1.9-7.6 1.9-11.5z m-19.3 13.9c-0.5 1-0.5 1.5 0 2-1-1.5-2.5-2 0-2zM58.3 513.6c-1 1-2 2-3 2.5 1 0.5 2 1 4 1 0-1.5-0.5-2.5-1-3.5z m455.2-114.8c0 0.5 0.5 0.5 0.5 1 0-0.5 0-0.5-0.5-1z m0 0h-0.5 0.5z m398.1-99.4c1-2 1-4 1-6-0.5 0-2.5 0.5-5.5 1 0.5 3 0 6 4.5 5z" p-id="5488"></path><path d="M36.4 524.5c-0.5-1.5-1-2.5-1.5-4v4h1.5z m2.5-14.9h-2c0.5 0 0.5 0.5 1 0.5s0.5 0 1-0.5zM36.9 509.6c-1-0.5-2-1.5-5-1.5 0 5.5 1.5 8.9 3 12.4-0.5-3.9-1-7.9 2-10.9zM79.6 687c0 1.5 1.5 2 3 2l-1-3.5c-0.5 0.6-1 1-2 1.5z m2-1.4c3.5-4 3-12.4 7.5-15.4-2-18.9-6-35.8-15.4-49.2v-4c1-0.5 2-1 2-3h-0.5v-7.5c-2 0-2 5.5-4 2 4-22.9-9.4-45.2-13.4-68.1-4-2 0 4-4 2 0-4 6-11.4 0-13.4v9.4c-2 0-2 2-4 2 0-4-2-4-4-4-2 4-2 7.5-6 4 2 4 2 5.5 2 11.4 2 2 6 0 6 2 0 4-6 0-4 4 7.5 11.4 6 32.3 17.4 39.8-4 5.5 2 20.9 6 24.8 0 2-2 2-2 4l16.4 59.2zM369.8 484.8c1.6 7.5 3.3 14.7 5.2 21.7l6.2 22.8c2.3 8.6 4.8 17 7.5 25l-13.5 3.7-2.5-9.2-81.2 22.1 11.2 41.2c1.9 10.1 8.3 13.4 19.2 9.9l60.9-16.6c7.1-1.5 11.6-3.8 13.6-7s2-10.7 0.1-22.5c5.3 1.7 11 2.5 17.2 2.6 0.5 11.7-0.2 20-2.2 24.7s-5.8 8.1-11.5 10.1l-82.4 22.4c-14.6 4.4-23.3 0-26.1-13.4l-14.4-52.9c-1.1-4.1-3.4-11.6-6.8-22.6l14.8-4c1.1 5.9 2.5 11.6 4.1 17.4l80.5-21.9-10.5-38.7-68.1 18.5c-9.4 2.6-20 5.7-31.8 9.3l-3.3-12.3c12-2.8 22.5-5.5 31.5-7.9l82.3-22.4zM418.3 459.1l11.7-3.2c1.4 6.7 4.1 17.6 8.3 32.8 3.7-1 7.5-2.3 11.5-3.8l2.8 10.5c-4.2 0.7-8.2 1.6-11.8 2.6l6.3 23.2c2.9-2.1 5.8-4.6 8.5-7.6 1 3.7 2.3 7.7 4 12.1-4.4 3.4-7.4 6-9.1 7.8l12.1 44.3c2 7.4 1.9 12.2-0.3 14.6-2.2 2.4-7.2 5.5-15 9.4-1.9-3.9-4.8-7.9-8.6-12.2 6.1-1.7 10.1-3 11.8-3.9 1.7-0.9 2-3.6 0.8-8.1l-9.9-36.3c-3.5 3.2-7.1 7.2-10.6 12.1-2.6-3.2-6-6.7-10.1-10.5 4.6-2.6 10.4-7 17.5-13.4l-7.9-28.9c-5.3 1.5-10.8 3.2-16.4 5.1l-2.9-10.5c5.9-1.1 11.4-2.4 16.8-3.9-3.7-13.4-6.9-24.2-9.5-32.2z m69.2 4.2c5.3-1.4 10.4-3 15.2-4.8l2.8 10.5c-5 0.9-14.5 3.3-28.4 7.1-1.7 8.4-3.6 15.3-5.6 20.7l22.1-8.7c-2.5-2.8-4.6-4.9-6.3-6.2 1.8-1.4 4.3-3.6 7.4-6.7 3.7 3.9 9.1 9.9 16.1 18.1-2.5 2-5.2 4.3-8 6.8-1.6-2.6-3-4.5-4.1-5.5-7.2 2.8-14.3 5.8-21.4 8.8s-12.1 5.6-15.1 7.7c-2.9-4.1-5-7.2-6.5-9.5 4.3-2 7-5.1 8.1-9.1s1.9-8.5 2.3-13.5c-4.1 1.1-9 2.7-14.6 4.6l-2.8-10.5c7.1-1.5 13.7-3.1 19.8-4.7l19-5.1z m-4.9-5.9c-2.8 2.5-5.4 5.4-7.5 8.7-6.5-6.1-11.4-10.3-14.6-12.5 2.7-2.9 4.8-5.7 6.3-8.3 4.7 3 10 7.1 15.8 12.1z m30.3 63.1l12.4 45.5c1.3 4.9 0.7 8.3-1.9 10.1-2.6 1.8-7 4.2-13.2 7.2-1.9-3.9-4.5-7.6-7.7-11.1 4.9-1.3 8.2-2.3 9.8-3 1.6-0.6 1.9-2.8 0.9-6.5l-2.3-8.6-24.6 6.7 7.2 26.4-11.1 3c-1.3-6.2-2.7-12.4-4.4-18.6l-10.5-38.7c-1.5-5.3-3.1-10.6-5-15.8l47.3-12.9c0.6 5.5 1.7 10.9 3.1 16.3z m-9.6 5.9l-2.5-9.2-24.6 6.7 2.5 9.2 24.6-6.7z m4.9 17.8l-2.5-9.2-24.6 6.7 2.5 9.2 24.6-6.7z m1.9-38.8c2.4-9 3.3-20.7 2.7-35.1s-1.8-26.4-3.5-36c4.8 0 9.4-0.1 13.7-0.4-0.3 2.3-0.4 5.8-0.4 10.7 0 4.9 0.1 10.1 0.3 15.8 14.3-3.9 24.5-6.9 30.6-9l2.8 10.5c-3.8 0.6-7.1 1.3-10 2.1 3.7 15.3 6.7 29.3 8.8 42.2 2.2 12.8 2.7 25.1 1.5 36.9 7.1 5.1 15.4 8.8 24.8 11.1-2.4 4.2-4 8.6-5 13.2-11.1-5.3-19-9.8-23.5-13.4-3.4 8.4-8.2 16.8-14.3 25-2.9-2.7-6.9-5-11.7-6.7 7.8-7 13.4-15.5 16.8-25.7-6.8-8.7-14.1-21.7-21.8-39l-1 6.2c-3.6-4-7.2-6.7-10.8-8.4z m33.8-2.3c-2.5-14.1-5.2-26.2-7.9-36.5l-12.3 3.3c0.5 8.2 0.7 14.8 0.7 19.6 5.9 16.9 13.5 31.8 22.7 44.7 0.3-6.6-0.7-17-3.2-31.1zM701.7 428.1l16.7 61.5c2.9 10.7 6.1 21.5 9.5 32.4l-12.3 3.3-3.2-11.7-97.8 26.6 3.2 11.7-11.7 3.2c-2.4-10.4-5.1-21.3-8.3-32.8l-16.7-61.5c-2.9-10.6-6.2-22.1-10-34.3l121.7-33.1c3 12.1 5.9 23.7 8.9 34.7z m8.1 75.8l-26.3-96.5-97.1 26.4 26.3 96.5 97.1-26.4z m-36-49.7l3.9 14.1c1.4 5.3 3.4 11.6 5.8 18.9l-56.6 15.4c-1.6-7.5-3.1-13.9-4.6-19.2l-4.2-15.4c-1.6-5.7-3.3-11.4-5.3-17l56.6-15.4c1.3 6.3 2.8 12.5 4.4 18.6z m-5.4 26l-8.5-31.4-32.6 8.9 8.5 31.4 32.6-8.9z" p-id="5489"></path></svg>