<?xml version="1.0" standalone="no"?><!DOCTYPE svg PUBLIC "-//W3C//DTD SVG 1.1//EN" "http://www.w3.org/Graphics/SVG/1.1/DTD/svg11.dtd"><svg t="1531123642507" class="icon" style="" viewBox="0 0 1230 1024" version="1.1" xmlns="http://www.w3.org/2000/svg" p-id="7724" xmlns:xlink="http://www.w3.org/1999/xlink" ><defs><style type="text/css"></style></defs><path d="M1130.496 951.808h4.608c5.632-2.048 11.264-3.584 16.384-5.632v-14.848c0-3.584 3.072-6.656 6.656-6.656s6.656 3.072 6.656 6.656v9.728c32.256-14.336 50.688-29.696 50.688-46.08 0-26.624-46.592-50.688-124.416-70.144l-1.536 10.24c0 2.048-0.512 3.584-1.024 5.632-0.512 2.048-1.024 3.584-1.536 5.12-0.512 1.536-1.024 3.584-2.048 5.12-0.512 1.536-1.536 3.072-2.56 5.12-0.512 1.536-1.536 2.56-2.56 3.584-0.512 0.512-0.512 1.024-1.024 1.536-0.512 1.024-1.536 2.048-2.56 3.072l-0.512 1.024c-1.536 1.536-2.56 3.072-4.096 4.608-1.024 1.024-2.048 2.048-3.072 2.56-1.024 1.024-2.048 1.536-3.072 2.56-1.024 1.024-2.048 1.536-3.584 2.56-0.512 0.512-1.536 1.024-2.048 1.536-1.024 0.512-2.048 1.024-3.072 2.048l-3.072 1.536c-2.048 1.024-3.584 1.536-5.632 2.56-1.024 0.512-1.536 0.512-2.56 1.024-1.536 0.512-3.584 1.024-5.12 1.536-3.584 0.512-7.168 1.024-10.752 1.024H226.816c-2.56 0-5.632-0.512-8.192-1.024-1.536-0.512-3.072-0.512-4.608-1.024-2.048-0.512-3.584-1.536-5.632-2.048l-3.072-1.536c-1.024-0.512-2.048-1.024-3.072-2.048-0.512-0.512-1.536-1.024-2.048-1.536-1.024-1.024-2.048-1.536-3.584-2.56-1.024-1.024-2.048-1.536-3.072-2.56-1.024-1.024-2.048-2.048-3.072-2.56-1.536-1.536-3.072-3.072-4.096-4.608l-0.512-1.024c-1.024-1.024-1.536-2.048-2.56-3.072-2.048-3.072-4.096-6.656-5.632-10.24-0.512-1.536-1.536-3.584-2.048-5.12-0.512-1.024-0.512-2.048-1.024-3.072l-1.536-7.68-2.048-16.896-3.072 0.512v-1.536C73.216 839.68 15.36 865.792 15.36 896c0 22.016 31.744 41.984 86.528 59.392 104.448 33.792 296.96 56.832 517.632 56.832h10.752c0-0.512 0.512-0.512 0.512-1.024 208.896-1.024 391.168-22.528 495.104-54.272 0-4.096 2.048-5.12 4.608-5.12z" fill="#dedede" p-id="7725"></path><path d="M167.424 173.056c0-1.536 0-3.072 0.512-4.608-0.512 1.536-0.512 3.072-0.512 4.608l2.048 50.688-2.048-50.688z m19.456 50.688v1.024h892.416l2.048-50.688c0-11.264-7.68-20.992-18.432-23.552-2.56-1.024-5.632-1.536-8.704-1.536h-487.936v-66.56c0-13.824-9.216-25.6-22.528-28.672-3.584-1.536-7.168-2.048-10.752-2.048H299.008c-16.384 0-30.208 13.312-30.208 29.696V148.48H204.8c-12.8 0-23.552 10.752-23.552 24.576l2.048 50.688h3.584z" fill="#EDF3FF" p-id="7726"></path><path d="M1151.488 250.368c1.024 2.048 2.048 3.584 3.072 5.632-1.024-2.048-2.048-4.096-3.072-5.632zM182.272 832.512c1.536 11.264 7.168 21.504 15.872 29.184 8.192 7.68 18.944 11.776 30.208 12.288h801.28c11.264 0 22.016-4.608 30.208-12.288 8.704-7.68 14.336-17.92 15.872-29.184l70.144-537.6c2.048-17.408-2.048-33.28-11.776-44.544-7.168-8.192-17.408-12.8-28.16-12.8H152.064c-10.752 0-20.992 4.608-28.16 12.8-9.728 11.264-13.824 27.136-11.776 44.544l70.144 537.6zM865.28 558.08c18.432 0 36.352 3.072 53.248 9.216 1.536 0.512 2.56 1.024 4.096 1.536 5.12 2.048 10.24 4.608 15.36 7.68 2.56 1.536 4.608 3.072 6.656 4.608l6.144 4.608 7.68 7.68c1.536 1.536 2.56 3.584 4.096 5.632 4.096 6.656 6.144 13.824 6.144 21.504 0 6.656-1.536 12.8-4.608 18.432-1.024 2.048-2.048 4.096-3.584 5.632-1.536 2.048-2.56 3.584-4.096 5.632-2.56 2.56-5.12 5.12-8.192 7.68l-6.144 4.608c-2.048 1.536-4.608 3.072-7.168 4.096-3.584 2.048-7.68 4.096-11.776 5.632-2.56 1.024-5.632 2.048-8.704 3.072-31.744 10.24-66.048 10.24-98.304 0-4.096-1.536-8.704-3.072-12.8-4.608-2.56-1.024-5.12-2.56-7.68-3.584-4.608-2.56-9.216-5.632-13.312-8.704-2.048-1.536-3.584-3.072-5.632-5.12-2.56-2.56-4.608-5.12-6.656-8.192-0.512-1.024-1.024-2.048-2.048-3.072-3.072-4.608-4.608-9.728-5.632-14.848-0.512-2.048-0.512-4.096-0.512-6.144 0-7.68 2.048-14.848 6.144-21.504 1.024-2.048 2.56-3.584 4.096-5.632 2.048-2.56 4.608-5.632 7.68-7.68 2.048-1.536 3.584-3.072 6.144-4.608s4.608-3.072 6.656-4.608c5.12-3.072 9.728-5.632 15.36-7.68 1.536-0.512 2.56-1.024 4.096-1.536 4.096-1.536 8.192-2.56 12.288-3.584 13.312-4.096 27.136-6.144 40.96-6.144z m-119.808-177.152c6.144 0.512 11.264 4.608 12.8 10.752 0 23.04 13.824 36.864 31.232 43.008 6.144 1.536 12.288 2.56 18.432 2.56h38.4c5.632-1.536 11.264 1.536 12.8 7.168s-1.536 11.264-7.168 12.8c-0.512 0-1.536 0.512-2.048 0.512h-38.4c-9.728 0-18.944-1.536-28.16-4.608-28.672-8.704-48.128-32.256-48.128-62.464 0.512-5.12 5.12-9.728 10.24-9.728z m16.896 118.272c22.016 0 39.936 17.92 39.424 39.936s-17.92 39.936-39.936 39.424c-22.016 0-39.424-17.92-39.424-39.936 0-21.504 17.92-39.424 39.936-39.424-0.512 0 0 0 0 0z m-222.72 204.8c5.12-3.584 11.776-4.096 16.896-0.512 11.264 7.68 23.552 13.824 36.352 17.92 2.048 0.512 4.608 1.536 6.656 2.048 35.84 9.216 69.12 2.048 98.304-20.992 4.608-4.096 11.776-3.584 15.872 1.024s3.584 10.752-0.512 15.36c-28.16 22.016-56.32 28.672-80.896 28.672-11.776 0-23.04-1.536-34.304-4.608l-10.752-3.072c-16.384-5.12-31.744-12.288-45.568-22.016-4.608-4.096-5.12-9.728-2.048-13.824-0.512 0 0 0 0 0z m-14.848-163.84c1.536 24.064-16.384 45.568-40.96 47.104-24.064 1.536-45.568-16.384-47.104-40.96-1.536-24.064 16.384-45.568 40.96-47.104 6.144-0.512 12.288 0.512 17.92 2.56 17.408 4.608 29.184 20.48 29.184 38.4zM398.336 437.248h38.4c25.6 0 53.248-14.336 53.248-46.592 1.536-6.144 7.68-9.728 13.824-8.192 4.608 1.024 8.192 5.12 8.704 9.728 0 37.888-30.72 65.536-72.704 65.536h-38.4c-5.632 1.536-11.264-1.536-12.8-7.168s1.536-11.264 7.168-12.8c0.512-0.512 2.048-0.512 2.56-0.512zM374.784 558.08c16.896 0 33.792 2.56 50.176 7.68 33.28 10.24 56.32 31.232 56.32 55.296 0 34.304-46.08 62.464-102.912 62.464-16.896 0-33.792-2.56-50.176-7.68-33.28-10.24-56.32-31.232-56.32-55.296C271.36 586.24 317.44 558.08 374.784 558.08z m757.76-52.736l27.136-208.896c0-1.024 0-2.048 0.512-2.56 0 1.024 0 2.048-0.512 2.56l-27.136 208.896zM166.912 819.2L98.816 296.448c0-2.048-0.512-3.584-0.512-5.632 0 2.048 0.512 3.584 0.512 5.632l68.096 521.216v1.536z m920.064 25.6c-0.512 1.536-1.024 3.584-2.048 5.12 1.024-1.536 1.536-3.072 2.048-5.12z m-57.344 42.496c3.584 0 7.168-0.512 10.752-1.024-3.584 0.512-7.168 1.024-10.752 1.024z" fill="#FFFFFF" p-id="7727"></path><path d="M166.912 819.2l3.072-0.512L101.888 297.472c0-2.048-0.512-3.584-0.512-5.632 0 2.048 0.512 3.584 0.512 5.632l70.144 537.6 1.536 7.68c0.512 1.024 0.512 2.048 1.024 3.072 0.512 1.536 1.024 3.584 2.048 5.12 1.536 3.584 3.584 7.168 5.632 10.24 0.512 1.024 1.536 2.048 2.56 3.072l0.512 1.024c1.536 1.536 2.56 3.072 4.096 4.608 1.024 1.024 2.048 2.048 3.072 2.56 1.024 1.024 2.048 1.536 3.072 2.56 1.024 1.024 2.048 1.536 3.584 2.56 0.512 0.512 1.536 1.024 2.048 1.536 1.024 0.512 2.048 1.024 3.072 2.048l3.072 1.536c2.048 1.024 3.584 1.536 5.632 2.048 1.536 0.512 3.072 1.024 4.608 1.024 2.56 0.512 5.12 1.024 8.192 1.024h803.84c3.584 0 7.168-0.512 10.752-1.024 1.536-0.512 3.584-1.024 5.12-1.536 1.024 0 1.536-0.512 2.56-1.024 2.048-0.512 4.096-1.536 5.632-2.56l3.072-1.536c1.024-0.512 2.048-1.024 3.072-2.048 0.512-0.512 1.536-1.024 2.048-1.536 1.024-1.024 2.048-1.536 3.584-2.56 1.024-1.024 2.048-1.536 3.072-2.56 1.024-1.024 2.048-2.048 3.072-2.56 1.536-1.536 3.072-3.072 4.096-4.608l0.512-1.024c1.024-1.024 1.536-2.048 2.56-3.072 0.512-0.512 0.512-1.024 1.024-1.536 1.024-1.024 1.536-2.56 2.56-3.584 1.024-1.536 1.536-3.072 2.56-5.12 0.512-1.536 1.536-3.584 2.048-5.12 0.512-1.536 1.024-3.584 1.536-5.12 0.512-1.536 0.512-3.584 1.024-5.632l1.536-10.24 41.472-318.464 27.136-208.896c0-1.024 0-2.048 0.512-2.56v-2.56-5.632-3.584c0-3.584-0.512-6.656-1.024-10.24 0-1.024-0.512-2.048-0.512-3.072 0-1.024-0.512-1.536-0.512-2.56-0.512-2.56-1.536-4.608-2.56-7.168-0.512-1.024-1.024-2.048-1.024-3.072-1.024-2.048-2.048-3.584-3.072-5.632-1.024-1.536-2.048-3.584-3.584-5.12-1.024-1.024-2.048-2.56-3.072-3.584l-3.072-3.072c-4.096-4.096-9.216-7.68-14.848-10.24-2.56-1.024-5.632-2.048-8.704-3.072-2.048-0.512-4.096-1.024-6.144-1.024s-4.096-0.512-6.144-0.512h-16.384l2.048-50.688c0-10.752-4.608-20.992-12.288-28.16-1.536-1.024-2.56-2.56-4.096-3.584-0.512-0.512-1.024-0.512-1.536-1.024l-3.072-1.536c-0.512-0.512-1.024-0.512-1.536-0.512-4.608-2.048-9.728-3.072-14.336-3.072h-477.696V81.408c0-24.064-19.968-43.52-44.032-43.52H299.008c-24.064 0-43.52 19.456-44.032 43.52v53.76H204.8c-2.048 0-3.584 0-5.632 0.512-0.512 0-1.024 0-2.048 0.512-1.024 0-2.56 0.512-3.584 1.024-3.072 1.024-5.632 2.048-8.192 3.584-4.096 2.56-7.68 6.144-10.752 9.728l-3.072 4.608c-0.512 0.512-0.512 1.536-1.024 2.048-0.512 1.536-1.024 3.072-1.536 4.096 0 0.512-0.512 1.536-0.512 2.048 0 2.048-0.512 3.584-0.512 5.12 0 1.536-0.512 3.072-0.512 4.608l2.048 50.688h-17.408c-2.048 0-4.096 0-6.144 0.512-2.048 0-4.096 0.512-6.144 1.024-7.68 2.048-14.848 5.632-20.992 11.264l-2.048 2.048c-3.072 3.072-5.632 6.144-7.68 9.216-2.56 3.584-4.096 7.168-5.632 11.264l-3.072 9.216c0 1.024-0.512 2.048-0.512 3.072 0 1.024-0.512 2.56-0.512 3.584-0.512 3.584-0.512 6.656-0.512 10.24v5.632c0 2.048 0.512 3.584 0.512 5.632L166.912 819.2zM204.8 148.48h64V81.408c0-16.384 13.824-29.696 30.208-29.696h233.984c3.584 0 7.68 0.512 10.752 2.048 13.312 3.072 22.528 15.36 22.528 28.672V148.48h487.936c3.072 0 5.632 0.512 8.704 1.536 10.752 2.56 18.432 12.8 18.432 23.552l-2.048 50.688H186.88v-1.024h-3.584l-2.048-50.688c0-12.8 10.752-24.064 23.552-24.064z m-33.28 20.992c0 1.536-0.512 3.072-0.512 4.608l2.048 50.688-2.048-50.688c0-1.536 0-3.072 0.512-4.608z m-47.616 80.896c7.168-8.192 17.408-12.8 28.16-12.8H1105.92c10.752 0 20.992 4.608 28.16 12.8 9.728 11.264 13.824 27.136 11.776 44.544l-70.144 537.6c-1.536 11.264-7.168 21.504-15.872 29.184-8.192 7.68-18.944 11.776-30.208 12.288H229.376c-11.264 0-22.016-4.608-30.208-12.288-8.704-7.68-14.336-17.92-15.872-29.184L112.64 294.912c-2.56-17.408 1.536-33.792 11.264-44.544z" fill="#dedede" p-id="7728"></path><path d="M396.8 456.192c1.536 1.024 3.072 1.024 4.608 1.024h37.888c41.984 0 72.704-27.648 72.704-65.536-0.512-6.144-5.632-11.264-11.776-10.752-5.12 0.512-9.728 4.096-10.752 9.728 0 32.256-27.648 46.592-53.248 46.592h-38.4c-5.12 0-9.728 4.608-9.216 9.728 0 4.608 3.072 8.704 8.192 9.216zM783.872 453.12c9.216 3.072 18.432 4.608 28.16 4.608h38.4c5.632-2.048 8.192-8.192 6.144-13.312-1.536-4.096-5.12-6.656-9.728-6.656h-38.4c-6.144 0-12.288-1.024-18.432-2.56-17.408-6.144-31.232-19.968-31.232-43.008-0.512-6.144-5.632-11.264-11.776-10.752-5.12 0.512-9.728 4.096-10.752 9.728-0.512 29.696 18.944 53.248 47.616 61.952zM481.28 499.2c-24.064-0.512-44.544 18.944-44.544 43.52-0.512 24.064 18.944 44.544 43.52 44.544 24.064 0.512 44.544-18.944 44.544-43.52 0.512-18.944-11.776-35.84-29.184-42.496-4.608-1.024-9.728-2.048-14.336-2.048zM751.616 577.536c20.992 5.632 43.008-6.656 48.64-28.16 5.632-20.992-6.656-43.008-28.16-48.64-20.992-5.632-43.008 6.656-48.64 28.16-1.024 3.584-1.536 6.656-1.536 10.24 0.512 17.92 12.8 33.792 29.696 38.4zM541.696 729.088c-0.512 0.512-1.024 1.024-1.024 1.536-3.584 4.608-2.56 10.752 1.536 14.336 4.608 3.584 10.752 2.56 14.336-1.536 11.264-7.68 23.552-13.824 36.352-17.92 2.048-0.512 4.608-1.536 6.656-2.048 35.84-8.704 68.608-2.048 98.304 20.992 4.096 2.56 8.704 2.56 12.8-0.512 5.12-3.584 6.144-10.752 2.56-15.872-28.16-22.016-56.32-28.672-80.896-28.672-11.776 0-23.04 1.536-34.304 4.608-3.584 1.024-7.68 2.048-10.752 3.072-16.896 4.608-32.256 12.288-45.568 22.016z" fill="#dedede" p-id="7729"></path><path d="M327.68 675.84c16.384 5.12 33.28 8.192 50.176 7.68 56.832 0 102.912-27.648 102.912-62.464 0-24.064-23.04-45.056-56.32-55.296-16.384-5.12-33.28-8.192-50.176-7.68C317.44 558.08 271.36 585.728 271.36 620.544c0 24.064 23.04 45.056 56.32 55.296z m80.384-51.712l-19.968 19.968c-4.096 3.584-10.24 3.072-13.824-0.512-3.072-3.584-3.072-9.216 0-12.8l19.968-19.968c4.096-3.584 10.24-3.072 13.824 0.512 3.072 3.584 3.072 9.216 0 12.8z m-74.752 19.968c-3.584-3.584-3.584-9.728 0-13.824l19.968-19.968c4.096-3.584 10.24-3.072 13.824 0.512 3.072 3.584 3.072 9.216 0 12.8l-19.968 19.968c-4.096 4.096-10.24 4.096-13.824 0.512z m478.72-76.8c-1.536 0.512-2.56 1.024-4.096 1.536-5.12 2.048-10.24 4.608-15.36 7.68-2.56 1.536-4.608 3.072-6.656 4.608l-6.144 4.608-7.68 7.68c-1.536 1.536-2.56 3.584-4.096 5.632-4.096 6.656-6.144 13.824-6.144 21.504 0 2.048 0 4.096 0.512 6.144 1.024 5.12 3.072 10.24 5.632 14.848 0.512 1.024 1.024 2.048 2.048 3.072 2.048 3.072 4.096 5.632 6.656 8.192 1.536 1.536 3.584 3.584 5.632 5.12 4.096 3.584 8.704 6.144 13.312 8.704 2.56 1.536 5.12 2.56 7.68 3.584 4.096 2.048 8.192 3.584 12.8 4.608 31.744 10.24 66.048 10.24 98.304 0 3.072-1.024 5.632-2.048 8.704-3.072 4.096-1.536 7.68-3.584 11.776-5.632 2.56-1.536 4.608-2.56 7.168-4.096l6.144-4.608c3.072-2.56 5.632-4.608 8.192-7.68 1.536-1.536 3.072-3.584 4.096-5.632 1.536-2.048 2.56-3.584 3.584-5.632 3.072-5.632 4.608-12.288 4.608-18.432 0-7.68-2.048-14.848-6.144-21.504-1.024-2.048-2.56-3.584-4.096-5.632-2.048-2.56-4.608-5.632-7.68-7.68-2.048-1.536-3.584-3.072-6.144-4.608-2.048-1.536-4.608-3.072-6.656-4.608-4.608-3.072-9.728-5.632-15.36-7.68-1.536-0.512-2.56-1.024-4.096-1.536-17.408-6.144-35.328-9.216-53.248-9.216-13.824 0-27.648 1.536-41.472 5.12-4.096 2.048-8.192 3.072-11.776 4.608z m64 41.984c2.048-2.048 4.096-3.072 6.656-3.072s5.12 1.024 6.656 3.072l19.968 19.968c3.584 3.584 3.584 9.728 0 13.824-2.048 2.048-4.096 2.56-6.656 3.072-2.56 0-5.12-1.024-6.656-3.072l-19.968-19.968c-3.584-3.584-3.584-9.728 0-13.824z m-40.448 0c2.048-2.048 4.096-3.072 6.656-3.072s5.12 1.024 6.656 3.072l19.968 19.968c3.584 3.584 3.584 9.728 0 13.824-2.048 2.048-4.096 3.072-6.656 3.072s-5.12-1.024-6.656-3.072l-19.968-19.968c-3.584-3.584-3.584-9.728 0-13.824z" fill="#EDF3FF" p-id="7730"></path><path d="M873.472 616.448c0 2.56 1.024 5.12 3.072 6.656l19.968 19.968c1.536 1.536 4.096 2.56 6.656 3.072 5.12 0 9.728-4.096 9.728-9.728 0-2.56-1.024-5.12-3.072-6.656l-19.968-19.968c-2.048-2.048-4.096-3.072-6.656-3.072-5.12 0-9.728 4.096-9.728 9.728z m5.632-4.096c2.048-2.048 5.632-2.048 7.68 0l19.968 19.968c2.048 2.048 2.048 5.632 0 7.68s-5.632 2.048-7.68 0l-19.968-19.968c-2.048-2.048-2.048-5.632 0-7.68z m-46.08 4.096c0 2.56 1.024 5.12 3.072 6.656l19.968 19.968c2.048 2.048 4.096 3.072 6.656 3.072 5.12 0 9.728-4.096 9.728-9.728 0-2.56-1.024-5.12-3.072-6.656l-19.968-19.968c-2.048-2.048-4.096-3.072-6.656-3.072-5.632 0-9.728 4.096-9.728 9.728z m5.632-4.096c1.024-1.024 2.56-1.536 4.096-1.536s3.072 0.512 4.096 1.536l19.968 19.968c2.048 2.048 2.048 5.632 0 7.68s-5.632 2.048-7.68 0l-19.968-19.968c-2.56-2.048-2.56-5.632-0.512-7.68z" fill="#FFFFFF" p-id="7731"></path><path d="M858.624 640c2.048 2.048 5.632 2.048 7.68 0s2.048-5.632 0-7.68l-19.968-19.968c-1.024-1.024-2.56-1.536-4.096-1.536-3.072 0-5.632 2.56-5.632 5.632 0 1.536 0.512 3.072 1.536 4.096l20.48 19.456z m40.448 0c2.048 2.048 5.632 2.048 7.68 0s2.048-5.632 0-7.68l-19.968-19.968c-2.048-2.048-5.632-2.048-7.68 0s-2.048 5.632 0 7.68l19.968 19.968z" fill="#5F91FF" p-id="7732"></path><path d="M173.056 224.768l-2.048-50.688c0-1.536 0-3.072 0.512-4.608 0 1.536-0.512 3.072-0.512 4.608l2.048 50.688z" fill="#EDF3FF" p-id="7733"></path><path d="M1154.56 251.392c1.024 2.048 2.048 3.584 3.072 5.632-1.024-2.048-2.048-3.584-3.072-5.632z m8.704 46.08c0-1.024 0-2.048 0.512-2.56-0.512 1.024-0.512 1.536-0.512 2.56l-25.088 190.976 25.088-190.976z m-1061.376 0c0-2.048-0.512-3.584-0.512-5.632 0.512 2.048 0.512 3.584 0.512 5.632l68.096 521.216 2.048 16.896 1.536 7.68-1.536-7.68L101.888 297.472z" fill="#FFFFFF" p-id="7734"></path><path d="M396.8 613.376l-19.968 19.968c-2.048 2.048-2.048 5.632 0 7.68s5.632 2.048 7.68 0l19.968-19.968c2.048-2.048 2.048-5.632 0-7.68s-5.632-2.048-7.68 0z" fill="#5F91FF" p-id="7735"></path><path d="M400.896 607.744c-2.56 0-5.12 1.024-6.656 3.072l-19.968 19.968c-3.584 4.096-3.072 10.24 0.512 13.824 3.584 3.072 9.216 3.072 12.8 0l19.968-19.968c3.584-3.584 3.584-9.728 0-13.824-1.536-2.048-4.096-3.072-6.656-3.072z m3.584 5.632c2.048 2.048 2.048 5.632 0 7.68l-19.968 19.968c-2.048 2.048-5.632 2.048-7.68 0s-2.048-5.632 0-7.68l19.968-19.968c2.048-2.048 6.144-2.048 7.68 0z" fill="#FFFFFF" p-id="7736"></path><path d="M355.84 613.376l-19.968 19.968c-2.048 2.048-2.048 5.632 0 7.68s5.632 2.048 7.68 0l19.968-19.968c2.048-2.048 2.048-5.632 0-7.68-1.024-2.048-5.12-2.048-7.68 0z" fill="#5F91FF" p-id="7737"></path><path d="M347.136 644.096l19.968-19.968c3.584-4.096 3.072-10.24-0.512-13.824-3.584-3.072-9.216-3.072-12.8 0l-19.968 19.968c-3.584 4.096-3.072 10.24 0.512 13.824 3.584 3.072 9.728 3.072 12.8 0z m17.408-30.72c2.048 2.048 2.048 5.632 0 7.68l-19.968 19.968c-2.048 2.048-5.632 2.048-7.68 0s-2.048-5.632 0-7.68l19.968-19.968c1.536-2.048 5.12-2.048 7.68 0z" fill="#FFFFFF" p-id="7738"></path><path d="M59.392 80.384H107.52v48.128c0 3.584 3.072 6.656 6.656 6.656 3.584 0 6.656-3.072 6.656-6.656v-48.128H168.96c3.584 0 6.656-3.072 6.656-6.656s-3.072-6.656-6.656-6.656h-48.128V18.432c0-3.584-3.072-6.656-6.656-6.656-3.584 0-6.656 3.072-6.656 6.656V66.56h-48.128c-3.584 0-6.656 3.072-6.656 6.656-0.512 4.096 2.56 7.168 6.656 7.168z" fill="#dedede" p-id="7739"></path><path d="M1164.8 940.032v-9.728c0-3.584-3.072-6.656-6.656-6.656s-6.656 3.072-6.656 6.656v20.992h-20.992c-3.584 0-6.656 3.072-6.656 6.656 0 3.584 3.072 6.656 6.656 6.656h20.992v20.992c0 3.584 3.072 6.656 6.656 6.656s6.656-3.072 6.656-6.656v-20.992h20.992c3.584 0 6.656-3.072 6.656-6.656 0-3.584-3.072-6.656-6.656-6.656h-20.992v-11.264z" fill="#EDF3FF" p-id="7740"></path></svg>