<?xml version="1.0" standalone="no"?><!DOCTYPE svg PUBLIC "-//W3C//DTD SVG 1.1//EN" "http://www.w3.org/Graphics/SVG/1.1/DTD/svg11.dtd"><svg t="1532936797079" class="icon" style="" viewBox="0 0 1024 1024" version="1.1" xmlns="http://www.w3.org/2000/svg" p-id="14700" xmlns:xlink="http://www.w3.org/1999/xlink" width="16" height="16"><defs><style type="text/css"></style></defs><path d="M511.993349 62.388932c-247.912299 0-449.603905 201.693652-449.603905 449.610044 0 247.916393 201.691605 449.610044 449.603905 449.610044 247.919463 0 449.618231-201.694675 449.618231-449.610044C961.611579 264.082584 759.912811 62.388932 511.993349 62.388932zM511.993349 890.611014c-208.766744 0-378.60999-169.846316-378.60999-378.612037 0-208.768791 169.843246-378.61613 378.60999-378.61613 208.774931 0 378.6192 169.84734 378.6192 378.61613C890.612549 720.765721 720.768279 890.611014 511.993349 890.611014z" p-id="14701"></path><path d="M577.103252 266.49861c-19.602454 0-35.495422 15.891945-35.495422 35.496445l0 198.151989L414.37403 500.147044c-19.605523 0-35.497469 15.892969-35.497469 35.497469 0 19.6045 15.891945 35.496445 35.497469 35.496445l198.22362 0L612.597651 301.995055C612.597651 282.390555 596.705706 266.49861 577.103252 266.49861z" p-id="14702"></path></svg>