<?xml version="1.0" standalone="no"?><!DOCTYPE svg PUBLIC "-//W3C//DTD SVG 1.1//EN" "http://www.w3.org/Graphics/SVG/1.1/DTD/svg11.dtd"><svg t="1531031978872" class="icon" style="" viewBox="0 0 1024 1024" version="1.1" xmlns="http://www.w3.org/2000/svg" p-id="5629" xmlns:xlink="http://www.w3.org/1999/xlink" width="16" height="16"><defs><style type="text/css"></style></defs><path d="M680.96 294.4H343.04c-11.264 0-20.48-9.216-20.48-20.48V197.632c0-22.528 18.432-40.96 40.96-40.96h296.96c22.528 0 40.96 18.432 40.96 40.96v76.288c0 11.264-9.216 20.48-20.48 20.48z" p-id="5630"></path><path d="M623.616 215.04H400.384V122.88c0-11.264 9.216-20.48 20.48-20.48h182.272c11.264 0 20.48 9.216 20.48 20.48v92.16z" p-id="5631"></path><path d="M803.328 189.44H747.52v130.56c0 12.288-10.24 22.528-22.528 22.528H299.008c-12.288 0-22.528-10.24-22.528-22.528V189.44H220.672c-34.304 0-62.464 28.16-62.464 62.464v607.744c0 34.304 28.16 62.464 62.464 62.464H803.84c34.304 0 62.464-28.16 62.464-62.464V251.392c-0.512-34.304-28.672-61.952-62.976-61.952z m-123.392 369.664l-171.008 166.4c-10.752 10.24-26.112 12.8-39.424 7.168-6.144-1.536-12.288-4.608-17.408-9.728L358.4 626.688c-13.824-14.336-13.824-37.376 0.512-51.2 14.336-13.824 37.376-13.824 51.2 0.512L482.816 650.24 629.76 507.392c14.336-13.824 37.376-13.824 51.2 0.512s13.312 37.376-1.024 51.2z" p-id="5632"></path></svg>