<?xml version="1.0" standalone="no"?><!DOCTYPE svg PUBLIC "-//W3C//DTD SVG 1.1//EN" "http://www.w3.org/Graphics/SVG/1.1/DTD/svg11.dtd"><svg t="1531031789486" class="icon" style="" viewBox="0 0 1024 1024" version="1.1" xmlns="http://www.w3.org/2000/svg" p-id="5258" xmlns:xlink="http://www.w3.org/1999/xlink" width="16" height="16"><defs><style type="text/css"></style></defs><path d="M308.736 259.584H147.968c-33.28 0-60.416 27.136-60.416 60.416V440.32c47.104 0 85.504 38.4 85.504 85.504s-38.4 85.504-85.504 85.504V732.16c0 33.28 27.136 60.416 60.416 60.416h160.768c11.264 0 19.968-9.216 19.968-19.968V280.064c0-11.264-9.216-20.48-19.968-20.48zM934.4 440.832h2.048V320c0-33.28-27.136-60.416-60.416-60.416H403.968c-11.264 0-19.968 9.216-19.968 19.968v492.544c0 11.264 9.216 19.968 19.968 19.968h472.064c33.28 0 60.416-27.136 60.416-60.416v-120.832h-2.048c-47.104 0-85.504-38.4-85.504-85.504s37.888-84.48 85.504-84.48z m-233.984 98.816l-12.8 8.704 5.632 18.944c11.264 35.84 14.336 46.592 7.68 55.808-3.584 4.096-8.192 6.656-13.824 7.168-9.728 0-20.48-8.192-48.128-28.16l-13.824-9.728-16.384 11.776c-25.6 17.92-35.328 25.088-45.056 25.088-5.12-0.512-10.24-2.56-13.824-6.656-7.168-9.728-3.584-20.992 8.192-58.88l5.12-15.872-16.384-11.776c-32.256-23.04-43.008-30.208-38.4-45.056 4.608-14.848 17.92-14.848 61.952-14.848h15.36l7.168-18.944c12.8-37.376 16.896-49.664 31.744-49.664 14.848 0 18.944 12.288 32.768 53.248l5.632 15.872h19.968c39.936 0.512 53.248 1.024 57.856 14.848s-5.632 22.016-40.448 48.128z" p-id="5259"></path></svg>