<?xml version="1.0" standalone="no"?><!DOCTYPE svg PUBLIC "-//W3C//DTD SVG 1.1//EN" "http://www.w3.org/Graphics/SVG/1.1/DTD/svg11.dtd"><svg t="1531031748915" class="icon" style="" viewBox="0 0 1024 1024" version="1.1" xmlns="http://www.w3.org/2000/svg" p-id="5132" xmlns:xlink="http://www.w3.org/1999/xlink" width="16" height="16"><defs><style type="text/css"></style></defs><path d="M863.744 925.184H148.48c-11.264 0-20.48-9.216-20.48-20.48v-25.6c0-11.264 9.216-20.48 20.48-20.48h715.264c11.264 0 20.48 9.216 20.48 20.48v25.6c0 11.264-9.216 20.48-20.48 20.48z" p-id="5133"></path><path d="M506.368 300.032m-194.048 0a194.048 194.048 0 1 0 388.096 0 194.048 194.048 0 1 0-388.096 0Z" p-id="5134"></path><path d="M863.744 805.888H148.48c-11.264 0-20.48-9.216-20.48-20.48v-112.128c0-33.792 27.648-61.44 61.44-61.44h633.344c33.792 0 61.44 27.648 61.44 61.44v112.128c0 11.264-9.216 20.48-20.48 20.48z" p-id="5135"></path><path d="M666.624 613.888c-34.304 0-83.456-32.768-83.456-78.336 0-61.952 48.128-87.552 48.128-87.552H379.904s48.128 25.6 48.128 87.552c0 45.568-49.152 78.336-83.456 78.336-34.304 0 12.8 40.96 12.8 40.96h296.448s46.592-40.96 12.8-40.96z" p-id="5136"></path></svg>