<?xml version="1.0" standalone="no"?><!DOCTYPE svg PUBLIC "-//W3C//DTD SVG 1.1//EN" "http://www.w3.org/Graphics/SVG/1.1/DTD/svg11.dtd"><svg t="1531031842738" class="icon" style="" viewBox="0 0 1024 1024" version="1.1" xmlns="http://www.w3.org/2000/svg" p-id="5381" xmlns:xlink="http://www.w3.org/1999/xlink" width="16" height="16"><defs><style type="text/css"></style></defs><path d="M508.416 193.536m-91.648 0a91.648 91.648 0 1 0 183.296 0 91.648 91.648 0 1 0-183.296 0Z" p-id="5382"></path><path d="M304.128 438.784l-2.048-1.536c-12.288-10.752-13.824-29.696-3.072-42.496l148.992-173.568c10.752-12.288 29.696-13.824 42.496-3.072l2.048 1.536c12.288 10.752 13.824 29.696 3.072 42.496L346.624 435.712c-10.752 12.288-29.696 13.824-42.496 3.072zM713.216 438.784l2.048-1.536c12.288-10.752 13.824-29.696 3.072-42.496l-148.992-173.568c-10.752-12.288-29.696-13.824-42.496-3.072l-2.048 1.536c-12.288 10.752-13.824 29.696-3.072 42.496L670.72 435.712c10.752 12.288 29.696 13.824 42.496 3.072z" p-id="5383"></path><path d="M831.488 391.168H185.856c-31.744 0-57.856 26.112-57.856 57.856v414.208c0 31.744 26.112 57.856 57.856 57.856h645.632c31.744 0 57.856-26.112 57.856-57.856v-414.72c0-31.744-26.112-57.344-57.856-57.344zM273.92 487.424h221.696c18.432 0 33.792 15.36 33.792 33.792 0 18.432-15.36 33.792-33.792 33.792H273.92c-18.432 0-33.792-15.36-33.792-33.792 0-18.944 14.848-33.792 33.792-33.792z m317.952 328.704H273.92c-18.432 0-33.792-15.36-33.792-33.792 0-18.432 15.36-33.792 33.792-33.792h317.952c18.432 0 33.792 15.36 33.792 33.792 0 18.432-15.36 33.792-33.792 33.792z m96.256-130.56H273.92c-18.432 0-33.792-15.36-33.792-33.792 0-18.432 15.36-33.792 33.792-33.792h414.208c18.432 0 33.792 15.36 33.792 33.792 0 18.432-15.36 33.792-33.792 33.792z" p-id="5384"></path></svg>