<?xml version="1.0" standalone="no"?><!DOCTYPE svg PUBLIC "-//W3C//DTD SVG 1.1//EN" "http://www.w3.org/Graphics/SVG/1.1/DTD/svg11.dtd"><svg t="1531031664803" class="icon" style="" viewBox="0 0 1024 1024" version="1.1" xmlns="http://www.w3.org/2000/svg" p-id="5008" xmlns:xlink="http://www.w3.org/1999/xlink" width="16" height="16"><defs><style type="text/css"></style></defs><path d="M868.864 291.84c-12.8-32.256-39.936-57.344-73.216-66.56-11.776-3.584-24.576-4.608-36.864-3.584V168.448c0-22.016-17.408-39.424-39.424-40.448h-414.72c-22.528 0-40.448 17.92-40.96 40.448v53.248c-11.776-1.024-24.064 0.512-35.328 3.584-33.792 9.728-60.928 34.304-73.728 66.56-14.336 35.84-16.384 75.264-5.632 112.64 12.8 65.024 66.56 113.664 132.608 120.32l12.288-1.536c40.448 83.456 124.416 137.216 217.6 139.264 92.672-1.536 177.152-55.296 217.6-139.264 4.096 1.024 8.192 1.536 12.288 1.536 66.048-6.656 119.808-55.296 132.608-120.32 10.752-36.864 9.216-76.8-5.12-112.64z m-665.6 94.208c-6.656-23.04-5.632-47.104 3.072-69.12 6.656-17.92 20.992-31.744 39.424-36.864 6.656-1.536 13.824-1.536 20.48 0v105.472c0 25.088 4.608 50.176 12.8 73.728-37.888-5.632-68.608-34.816-75.776-73.216z m380.416 2.56l-11.776 8.704 5.632 17.92c10.752 34.304 13.824 44.032 7.168 53.248-3.072 4.096-8.192 6.144-13.312 6.656-9.216 0-19.456-8.192-46.08-26.624l-13.312-9.216-15.872 11.264c-24.576 17.408-33.792 24.064-43.008 24.064-5.12-0.512-9.728-2.56-13.312-6.144-6.656-9.216-3.584-19.968 8.192-56.32l4.608-15.36-15.36-11.264c-30.72-22.016-40.96-28.672-36.352-43.008 4.608-14.336 16.896-14.336 59.392-14.336h14.848l6.656-17.92c11.776-35.328 15.872-47.616 30.208-47.616 14.336 0 17.92 11.776 31.232 50.688l5.12 15.36h18.944c37.888 0.512 50.688 1.024 55.296 14.336 5.12 12.8-5.632 20.992-38.912 45.568z m237.568-2.56c-6.656 38.4-36.864 67.584-75.776 73.216 8.704-23.552 12.8-48.128 12.8-73.216V279.552c6.656-1.536 13.824-1.536 20.48 0 17.92 5.632 32.256 18.944 38.912 36.864 9.216 22.016 10.24 46.592 3.584 69.632zM672.768 867.84l-13.312-18.944c-11.264-15.872-35.84-28.672-54.784-28.672H419.84c-18.944 0-44.032 12.8-54.784 28.672l-13.312 18.944c-14.848 20.992-6.144 38.4 19.456 38.4h281.6c25.6 0 34.816-17.408 19.968-38.4z" p-id="5009"></path><path d="M468.992 613.888h86.528v210.944H468.992z" p-id="5010"></path></svg>