<?xml version="1.0" standalone="no"?><!DOCTYPE svg PUBLIC "-//W3C//DTD SVG 1.1//EN" "http://www.w3.org/Graphics/SVG/1.1/DTD/svg11.dtd"><svg t="1531031280095" class="icon" style="" viewBox="0 0 1024 1024" version="1.1" xmlns="http://www.w3.org/2000/svg" p-id="4762" xmlns:xlink="http://www.w3.org/1999/xlink" width="16" height="16"><defs><style type="text/css"></style></defs><path d="M506.88 107.52c-171.008 0-309.248 138.24-309.248 309.248s138.24 309.248 309.248 309.248 309.248-138.24 309.248-309.248S677.888 107.52 506.88 107.52z m76.8 330.752l-12.8 9.216 6.144 19.456c11.264 36.864 14.848 47.616 7.68 57.344-3.584 4.096-8.704 6.656-13.824 7.168-10.24 0-20.992-8.704-49.664-28.672L506.88 493.056l-16.896 12.288c-26.624 18.432-36.352 25.6-46.08 25.6-5.632-0.512-10.24-3.072-13.824-6.656-7.168-9.728-3.584-21.504 8.704-60.416l5.12-16.384-16.384-12.288c-32.768-23.552-44.032-30.72-39.424-46.592 5.12-15.36 18.432-15.36 63.488-15.36h15.872l7.168-19.456c12.8-37.888 17.408-51.2 32.256-51.2 15.36 0 19.456 12.8 33.792 54.272l5.632 16.384h20.48c40.96 0.512 54.272 1.024 59.392 15.36s-6.144 23.04-42.496 49.664zM892.416 830.976l-102.912-200.192c-39.936 53.76-96.256 93.696-162.304 113.152l91.136 176.64v0.512c6.656 11.776 31.744 4.608 35.84-10.24l24.576-86.016 84.48 29.696c14.848 5.12 35.328-11.264 29.184-23.552zM121.344 830.976l102.912-200.192c39.936 53.76 96.256 93.696 162.304 113.152l-91.136 176.64v0.512c-6.656 11.776-31.744 4.608-35.84-10.24L235.008 824.32l-84.48 29.696c-14.848 5.632-35.328-10.752-29.184-23.04z" p-id="4763"></path></svg>