<?xml version="1.0" standalone="no"?><!DOCTYPE svg PUBLIC "-//W3C//DTD SVG 1.1//EN" "http://www.w3.org/Graphics/SVG/1.1/DTD/svg11.dtd"><svg t="1531031881283" class="icon" style="" viewBox="0 0 1024 1024" version="1.1" xmlns="http://www.w3.org/2000/svg" p-id="5506" xmlns:xlink="http://www.w3.org/1999/xlink" width="16" height="16"><defs><style type="text/css"></style></defs><path d="M840.192 193.024c62.976 0 114.688 46.592 119.296 107.52 4.608 60.928-37.376 114.688-100.352 125.952-13.824 2.56-28.16 2.56-41.984 0-4.608-2.56-7.168 0-9.216 4.608l-133.12 224.256c-4.608 7.168 0 9.216 4.608 11.776 30.208 23.552 44.544 56.32 39.936 93.696-4.608 39.936-28.16 67.584-65.536 81.92-39.936 13.824-86.528 2.56-114.688-30.208s-30.208-79.36-9.216-114.688c4.608-7.168 4.608-9.216-2.56-13.824-62.976-44.544-123.904-91.136-186.88-135.68-4.608-4.608-9.216-4.608-13.824-2.56-13.824 7.168-30.208 9.216-44.544 7.168-7.168 0-9.216 2.56-11.776 7.168-18.944 32.768-37.376 62.976-56.32 95.744-4.608 7.168-4.608 9.216 0 16.384 20.992 25.6 23.552 56.32 7.168 83.968-13.824 28.16-46.592 44.544-77.312 39.936-32.768-4.608-56.32-23.552-65.536-53.76-18.944-56.32 30.208-109.568 88.576-98.304 7.168 2.56 9.216 0 11.776-7.168 16.384-30.208 34.816-60.928 53.76-91.136 4.608-7.168 4.608-9.216-2.56-16.384-28.16-25.6-37.376-65.536-20.992-100.352 16.384-34.816 51.2-56.32 88.576-51.2 37.376 2.56 67.584 28.16 79.36 62.976 7.168 23.552 4.608 46.592-9.216 67.584-2.56 4.608-2.56 7.168 2.56 11.776 62.976 46.592 125.952 91.136 186.88 137.728 4.608 2.56 7.168 4.608 11.776 2.56 16.384-9.216 37.376-13.824 56.32-11.776 7.168 0 9.216-2.56 13.824-7.168 44.544-74.752 86.528-146.944 131.072-222.208 4.608-7.168 4.608-9.216-2.56-13.824-39.936-30.208-56.32-83.968-39.936-131.072 16.896-48.64 61.44-81.408 112.64-81.408z m0 0" p-id="5507"></path></svg>