<?xml version="1.0" standalone="no"?><!DOCTYPE svg PUBLIC "-//W3C//DTD SVG 1.1//EN" "http://www.w3.org/Graphics/SVG/1.1/DTD/svg11.dtd"><svg t="1533794865029" class="icon" style="" viewBox="0 0 1024 1024" version="1.1" xmlns="http://www.w3.org/2000/svg" p-id="3913" xmlns:xlink="http://www.w3.org/1999/xlink" width="16" height="16"><defs><style type="text/css"></style></defs><path d="M301.1 527.2l78.1-35.4c2.4 6.7 4.8 12.7 7.2 18.1 2.4 5.4 5.3 10.9 8.5 16.5l-16.1 7.3-9.5-20.9-144.1 65.3 11 24.1-16.9 7.7c-2.4-6.7-4.9-13-7.6-18.9-2.9-6.4-6.1-12.8-9.6-19l80.5-36.5c-6.3-6.8-13.1-12.5-20.3-17 5.4-3.7 10.7-8.4 16-14 11.4 11.1 19 18.6 22.8 22.7z m-5.9 29.8l16.9-7.7c2.6 7.2 5.3 13.8 8 19.7l61.2-27.7c4.6 11.5 11.2 26.9 20 46.2 8.5 18.8 15.4 33.2 20.5 43.1l-15.3 6.9-3.7-8-45.9 20.8c7.3 16.1 13.8 29.7 19.4 40.7l-16.9 7.7c-4.6-11.5-10.5-25.3-17.8-41.4l-45.1 20.4 4 8.9-15.3 6.9c-3.1-8.3-9.3-22.6-18.5-43s-16.7-36.1-22.3-47.1l60.4-27.4c-2.4-5.4-5.6-11.7-9.6-19z m24.6 52l-9.1-20.1-45.1 20.4 9.1 20.1 45.1-20.4z m15.6 34.6l-9.5-20.9-45.1 20.4 9.5 20.9 45.1-20.4z m45.5-62.3l-9.1-20.1-45.9 20.8 9.1 20.1 45.9-20.8z m15.7 34.6l-9.5-20.9-45.9 20.8 9.5 20.9 45.9-20.8zM436.6 468.7c-4.1-9.1-8.2-17.3-12.1-24.6l16.9-7.7c2.4 6.7 5.9 15.1 10.5 25.3l8 17.7c7-3.2 14.4-6.8 22.2-11l7.3 16.1c-8.3 3.1-15.9 6.3-22.9 9.4l12.8 28.2c0.6-1.6 2.7-5.4 6.4-11.6 11.8 7.6 22.3 14.2 31.3 19.8-3.9 5.7-7.1 10.7-9.7 15.1-9.8-7.2-18.4-13.3-25.8-18.4l27 59.6c5.1 11.3 10.5 22.4 16.1 33.4l-16.9 7.7c-4.3-12.3-9.1-23.7-14.5-34.2L468 537.9c0.5 15.3-1.2 32.9-5.2 52.8-7.5-5-13.3-8.5-17.4-10.5 3.2-8.6 5.6-19.7 7.2-33.3s0.8-28.8-2.2-45.6c-8 3.7-16.5 7.8-25.4 12.5l-7.3-16.1c9.9-3.8 18.9-7.6 26.9-11.2l-8-17.8z m51.9-3.2l-7.3-16.1c7.5-2.1 14.9-4.8 22.5-8.2l60.4-27.4c8.6-3.9 17.2-8.4 25.8-13.7l7.3 16.1c-9.4 3.6-18.3 7.4-26.9 11.2l-67.6 30.7c-4.9 2.2-9.6 4.7-14.2 7.4z m20 37.5c3.2-1.5 6.7-6.7 10.3-15.8 3.6-9.1 5.8-21.5 6.4-37.3l21.3 2c-3.1 4.6-5.5 10.3-7.4 16.9-1.8 6.7-4.5 14.7-8 24l35.1-16.9c2.2-9.4 3-19.1 2.3-29.2l22.2-0.3c-2 2.8-3.6 9.1-5.1 18.8-1.4 9.7-4.4 21.7-8.9 36.1-4.5 14.3-9.5 26.8-15.1 37.4-5.5 10.6-11.8 21-18.8 31.3-5.7-2.6-12.2-4.8-19.5-6.7 9.3-9.4 17.3-20.3 24-32.7s11.7-24.9 15.1-37.4c-8.6 3.9-16 7.6-22.2 11-6.2 3.5-12.7 7.7-19.5 12.7L508.5 503z m36.3-91.2c-6.6 6.9-10.7 12-12.4 15.4-7.9-7.4-15.2-12.8-21.9-16.3 6.3-7.4 10.6-12.2 12.8-14.5 5.6 3.9 12.7 9 21.5 15.4z m70.9 80.4c-1.3 7.7-3.4 17.7-6.3 30 15.1 4.8 26.8 8.9 35.1 12.2 8.3 3.4 12.9 5.2 13.6 5.5-3.4 5.4-6.5 12-9.5 19.8-5.4-3.4-11.6-6.7-18.6-10s-16-7-26.9-11.1c-4.4 10.4-8.7 19.3-13.1 26.8s-9.3 14.7-14.9 21.8c-5.5 7-11.3 13.9-17.4 20.5-5.1-4.1-11.3-7.2-18.6-9 12.5-10.9 22.9-22.3 31-34.4 8.1-12.1 14.3-24.1 18.6-36.1s7.1-22.5 8.5-31.5 1.9-16.7 1.7-23.1c7.1 1.3 14.4 1.9 22.1 1.6-2.2 3.7-4 9.3-5.3 17zM701.5 316.5c6.3 15.3 12.5 29.6 18.5 43l70-31.8c4.3 11 10.8 25.9 19.3 44.6 8.3 18.2 14.7 31.8 19.4 40.7l-17.7 8-5.5-12.1-52.3 23.7 15.7 34.6c2.9 6.4 8.7 18.4 17.2 35.9l-19.3 8.8c-3.3-10.1-7.9-21.7-13.7-34.5l-16.8-37-52.3 23.8 5.5 12.1-17.7 8c-3.1-8.3-9.1-22.1-17.8-41.4-9-19.8-16-34.5-20.9-43.9l70-31.8c-6.6-14.5-13.3-28.6-20.2-42.3l18.6-8.4z m29 111.1L709 380.1l-52.3 23.7 21.5 47.5 52.3-23.7z m69.2-31.4l-21.5-47.5-52.3 23.7 21.5 47.5 52.3-23.7zM211 778.4l699.6-311.5 10.7 24.1-699.6 311.6-10.7-24.2zM102.6 534l699.6-311.5 10.7 24.1-699.5 311.5-10.8-24.1z m491.1 175.8c-33.3 14.3-70.9 19.8-105.6 16.7l-45.4 20.2c53.7 15.4 109.1 11.7 162.3-11 51.6-21.5 92.3-61 119.3-109.2l-45.5 20.2c-21.5 25.3-51.7 48.9-85.1 63.1zM422.8 314.2c33.3-14.3 70.9-19.8 105.6-16.7l45.5-20.2c-53.7-15.4-109.1-11.7-161.8 11.1-51.6 21.5-92.3 61-119.3 109.1l45.5-20.2c21.3-26.3 49.1-49.2 84.5-63.1z" p-id="3914"></path><path d="M654.1 850.2c-123.2 53.8-259.6 33.1-361.2-40l-29.4 12.5c29.8 22.8 63.1 43.4 98.6 56.9 47.5 19.1 98.5 28.1 149.1 28.2 52.8 0.5 104.9-12.2 154.2-32.7 49.3-21 93-50.7 128.9-89.6 35.7-37.9 62-80.7 81.1-128.2 13.8-36.8 22.9-72 25.5-110.7l-27 13c-17.2 124.5-96.8 237.7-219.8 290.6z m-293-676.6c123.2-53.8 260.5-33 362.6 40.2l29.4-12.5c-29.8-22.8-63.2-43.4-98.6-56.9-47.5-19.1-98.5-28.1-149.1-28.2-52.8-0.5-104.7 10.9-154.2 32.7-49.4 21.8-92.7 51.3-128.5 90.1-35.7 37.9-63.3 80.5-82 127.7-13.8 36.6-23.2 72.7-25.5 110.5l29.4-12.5c12.9-125.1 92.6-238.4 216.5-291.1z" p-id="3915"></path><path d="M249.3 332.2L236.2 306l28.8 5.5 21.4-20.7 3.3 29.3 26.5 14.4-26.2 13.1-4.6 29-19.4-21.3-29.3 3.3c-1.9 0.1 12.6-26.4 12.6-26.4zM761.9 727.1L744 751.7l-9.7-26.6-28.6-6.8 24.7-17.9-1-29 24.8 16.5 26.6-9.7-9.1 28.2 18.3 22.4c0.4-2.8-28.1-1.7-28.1-1.7zM483.1 831l-17.8 24.6-9.7-26.6-28.6-6.8 24.7-17.9-1-29 24.8 16.5 26.6-9.7-9.1 28.2 18.3 22.4c0.2-2.7-28.2-1.7-28.2-1.7zM644.4 802.8l-2.4 29.3-21.9-19.6-28.4 7 11.1-27-15.5-25.3 29.3 2.4 19.7-21.9 7 28.5 27.3 9.9zM534.1 198.6l16.5-24.8 9.7 26.6 28.6 6.8-22.4 18.3 0.8 29.8-24.8-16.5-27 12 9.1-28.2-19.2-22.6c-1.8-0.3 28.7-1.4 28.7-1.4z" p-id="3916"></path><path d="M372 228.3l2.4-29.3 21.9 19.6 28.7-8-11.1 27 15.5 25.2-30.2-2.9-17.5 22.3-7-28.5-26.8-9.8c-1.3 0.7 24.1-15.6 24.1-15.6z" p-id="3917"></path></svg>