<?xml version="1.0" standalone="no"?><!DOCTYPE svg PUBLIC "-//W3C//DTD SVG 1.1//EN" "http://www.w3.org/Graphics/SVG/1.1/DTD/svg11.dtd"><svg t="1531021490505" class="icon" style="" viewBox="0 0 1024 1024" version="1.1" xmlns="http://www.w3.org/2000/svg" p-id="4637" xmlns:xlink="http://www.w3.org/1999/xlink" width="16" height="16"><defs><style type="text/css"></style></defs><path d="M210.944 778.24l699.904-311.296 10.24 24.064-699.392 311.808zM102.4 534.016l699.904-311.296 10.752 24.064L113.152 558.08zM593.92 709.632c-33.28 14.336-70.656 19.968-105.472 16.896l-45.568 19.968c53.76 15.36 109.056 11.776 162.304-10.752 51.712-21.504 92.16-60.928 119.296-109.056l-45.568 19.968c-21.504 25.6-51.712 49.152-84.992 62.976zM422.912 314.368c33.28-14.336 70.656-19.968 105.472-16.896l45.568-19.968c-53.76-15.36-109.056-11.776-161.792 11.264-51.712 21.504-92.16 60.928-119.296 109.056l45.568-19.968c20.992-26.624 49.152-49.664 84.48-63.488z" fill="" p-id="4638"></path><path d="M654.336 850.432c-123.392 53.76-259.584 33.28-360.96-39.936l-29.184 12.288c29.696 23.04 62.976 43.52 98.816 56.832 47.616 18.944 98.304 28.16 148.992 28.16 52.736 0.512 104.96-12.288 154.112-32.768 49.152-20.992 93.184-50.688 129.024-89.6 35.84-37.888 61.952-80.896 80.896-128 13.824-36.864 23.04-72.192 25.6-110.592l-27.136 12.8c-17.92 124.416-97.28 237.568-220.16 290.816zM360.96 173.568c123.392-53.76 260.608-32.768 362.496 40.448l29.184-12.288c-29.696-23.04-62.976-43.52-98.816-56.832-47.616-18.944-98.304-28.16-148.992-28.16-52.736-0.512-104.448 10.752-154.112 32.768-49.152 22.016-92.672 51.2-128.512 90.112-35.84 37.888-63.488 80.384-81.92 127.488-13.824 36.352-23.04 72.704-25.6 110.592l29.184-12.288c13.824-125.952 93.184-239.104 217.088-291.84z" fill="" p-id="4639"></path><path d="M249.344 332.288l-13.312-26.112 28.672 5.632 21.504-20.48 3.072 29.184 26.624 14.336-26.112 13.312-4.608 29.184-18.944-22.016-29.696 3.072c-1.536 0.512 12.8-26.112 12.8-26.112zM761.856 727.04l-17.92 24.576-9.728-26.624-28.672-6.656 24.576-17.92-1.024-29.184 24.576 16.384 26.624-9.728-9.216 28.16 18.432 22.528c1.024-2.56-27.648-1.536-27.648-1.536z m-278.528 103.936l-17.92 24.576-9.728-26.624-28.672-6.656 24.576-17.92-1.024-29.184 24.576 16.384 26.624-9.728-9.216 28.16 18.432 22.528c0.512-2.56-27.648-1.536-27.648-1.536z m161.28-28.16l-2.56 29.184-22.016-19.456-28.16 7.168 11.264-27.136-15.36-25.088 29.184 2.56 19.456-22.016 7.168 28.672 27.136 9.728-26.112 16.384z m-110.592-604.16l16.384-24.576 9.728 26.624 28.672 6.656-22.528 18.432 1.024 29.696-24.576-16.384-27.136 11.776 9.216-28.16-19.456-22.528c-1.536-0.512 28.672-1.536 28.672-1.536zM372.224 228.352l2.56-29.184 22.016 19.456 28.672-8.192-11.264 27.136 15.36 25.088-30.208-2.56-17.408 22.528-7.168-28.672-26.624-9.728c-1.536 0.512 24.064-15.872 24.064-15.872zM342.528 497.664c3.584 9.216 7.168 18.432 11.264 26.624l12.8 28.16c4.608 10.752 9.728 20.992 14.848 30.72l-16.384 7.68-5.12-11.264-99.84 45.056 23.04 50.688c4.608 12.8 13.312 15.36 26.624 8.704l74.752-33.792c8.704-3.584 14.336-7.168 15.872-11.776 2.048-4.608 0.512-14.336-4.608-29.184 7.168 1.024 14.848 1.024 22.528 0 3.072 14.848 4.096 25.6 2.56 32.256-1.536 6.656-5.632 11.776-12.8 15.36l-101.376 46.08c-17.92 8.704-30.208 4.608-36.352-11.776L240.64 626.176c-2.048-5.12-6.656-14.336-13.312-27.648l17.92-8.192c2.56 7.168 5.632 14.336 8.704 21.504l98.816-45.056-21.504-47.616-83.968 37.888c-11.776 5.12-24.576 11.264-38.912 18.432l-6.656-15.36c14.848-6.144 27.648-11.776 38.912-16.896l101.888-45.568zM440.832 483.84l44.032 96.768c7.168 15.872 13.312 28.672 18.432 38.4l-17.408 7.68c-3.584-9.216-9.216-22.016-16.384-37.888l-32.256-71.168c-2.048 14.848-4.096 27.648-7.168 38.912-6.656-4.096-12.288-6.656-16.384-8.192 3.584-10.24 6.144-25.088 7.68-46.08 2.048-20.48 1.024-40.448-2.048-59.904 7.168 1.024 15.36 1.536 24.064 1.024-2.56 5.632-3.584 18.944-2.56 40.448z m50.688-31.232l49.664-22.528c11.264-5.12 19.968-9.216 26.112-12.8l6.144 13.824c-6.656 2.56-15.872 6.144-26.624 11.264l-34.816 15.872 13.312 29.696 30.72-13.824c8.704-4.096 15.36-7.168 20.992-10.24l6.656 14.336c-6.656 2.56-13.824 5.632-21.504 8.704l-30.72 13.824 15.36 33.792 32.256-14.848c10.24-4.608 18.432-8.704 24.576-12.288l6.656 14.336c-6.656 2.56-14.848 5.632-24.576 10.24l-33.28 14.848 6.656 14.336c6.144 14.336 10.752 23.552 13.824 28.16l-15.872 7.168c-2.048-5.632-5.12-13.312-9.728-23.04l-49.664-109.568-7.68 3.584c-1.536 16.384-3.584 31.232-6.656 44.032-7.68-2.56-14.336-3.584-18.944-3.072 4.096-10.24 6.656-23.552 8.192-39.936 1.536-16.384 1.024-33.28-1.024-50.688 9.216 0 16.896-0.512 23.04-1.536-2.56 6.656-4.096 18.432-3.072 36.352zM755.2 337.408c-6.656 2.56-15.872 6.144-27.648 11.776l-104.448 47.104c11.776 26.112 20.48 46.08 25.6 58.88 5.12 13.312 9.728 26.624 13.312 40.96 3.584 14.336 5.12 31.232 3.584 51.2-5.12-0.512-11.264-0.512-18.432 0 2.56-16.384 1.536-32.768-1.536-48.64-3.584-16.384-9.216-34.304-17.92-53.248-8.192-19.456-16.896-37.376-26.112-54.784l67.072-30.72c-3.584-5.12-8.704-10.752-14.848-16.896 4.096-3.584 8.192-8.192 13.312-13.312 7.68 7.68 14.336 14.848 19.968 22.016l30.208-13.824c14.336-6.144 24.064-11.264 30.72-14.848l7.168 14.336z m19.968 45.568c-14.336 6.144-23.04 9.728-26.624 11.264l-38.4 17.408v19.968l62.464-28.672c1.024 14.848 1.024 27.648-0.512 38.912-1.536 11.264-3.584 19.456-6.144 25.088 6.144 1.024 13.312 1.024 22.528 0 8.704-1.024 18.432-3.072 29.184-6.656-1.536 7.168-2.048 13.312-2.048 17.92-10.24 2.048-20.48 3.072-31.744 3.584-11.264 0-19.456-0.512-24.576-1.536-6.144 8.704-13.312 17.408-20.992 25.088-7.68 7.68-14.336 13.824-19.456 17.92-3.072-3.584-7.168-7.168-13.824-10.24 6.144-2.56 13.312-7.68 21.504-15.36 8.704-7.68 14.848-14.848 19.456-22.528-12.8-5.632-25.088-12.288-37.376-19.456-3.072 21.504-9.216 42.496-18.944 62.976-6.144-3.072-11.776-4.608-15.872-4.608 5.632-9.216 9.728-18.432 12.8-28.16 3.072-9.728 5.12-19.968 6.144-31.232 1.536-11.264 1.536-23.552 1.024-36.352l-20.992 9.728c-6.144 3.584-10.752 7.168-13.824 11.776l-13.312-9.216c3.584-4.096 5.12-8.704 4.096-14.336-1.024-5.12-2.56-11.776-4.608-19.456 7.68-1.024 13.312-2.048 17.408-3.584 0 3.584 0 12.288 0.512 25.088l28.672-12.8c-1.536-10.752-4.096-22.528-8.192-34.304 7.68-0.512 13.312-1.536 17.408-3.584 1.024 5.632 2.56 16.384 5.12 31.232l36.352-16.384c3.584-1.536 12.288-5.632 26.112-12.8l6.656 13.312z m-59.904 60.928c12.288 8.192 24.576 14.848 37.376 19.456 4.096-9.216 6.144-22.528 6.144-38.912l-43.52 19.456z m11.264-91.648c12.288 5.632 22.016 10.24 29.184 14.336-3.072 3.072-5.12 7.68-7.68 13.312-7.68-4.608-16.896-9.216-28.16-14.336l6.656-13.312z" fill="" p-id="4640"></path></svg>