<?xml version="1.0" standalone="no"?><!DOCTYPE svg PUBLIC "-//W3C//DTD SVG 1.1//EN" "http://www.w3.org/Graphics/SVG/1.1/DTD/svg11.dtd"><svg t="1531135363584" class="icon" style="" viewBox="0 0 1024 1024" version="1.1" xmlns="http://www.w3.org/2000/svg" p-id="12668" xmlns:xlink="http://www.w3.org/1999/xlink" width="16" height="16"><defs><style type="text/css"></style></defs><path d="M354.2 492.4c3.8 9.9 7.8 19.4 12 28.5l13.5 29.8c5.1 11.3 10.4 22.2 15.8 32.6l-17.7 8-5.5-12.1L266 627.5l24.5 53.9c4.8 13.4 14.3 16.5 28.5 9.4l79.7-36.1c9.4-3.6 15.1-7.8 17.1-12.6s0.4-15.1-4.8-30.8c7.6 1.1 15.6 1 24.1-0.3 3.4 15.9 4.2 27.4 2.5 34.3-1.7 6.9-6.2 12.4-13.5 16.3l-107.9 48.9c-19.1 9.3-32 5.1-38.7-12.5l-31.4-69.2c-2.4-5.4-7.2-15.2-14.3-29.4l19.3-8.8c2.9 7.8 6 15.4 9.4 22.9l105.4-47.8-23-50.7-89.3 40.5c-12.4 5.6-26.2 12.2-41.5 19.8l-7.3-16.1c15.8-6.5 29.6-12.5 41.4-17.8l108-49zM414.9 446.5l15.3-6.9c3.4 8.8 9.5 23.2 18.5 43 4.8-2.2 9.8-4.8 14.9-7.7l6.2 13.7c-5.6 1.9-10.8 3.9-15.7 6.1l13.9 30.6c3.6-3.6 6.9-7.6 10-12.3 2.2 4.8 4.9 10.1 8.1 15.7-5.2 5.6-8.8 9.8-10.8 12.6l26.3 58c4.4 9.7 5.3 16.4 2.8 20.1-2.5 3.7-8.7 9.1-18.4 16.1-3.5-4.9-8.3-9.8-14.5-14.8 8-3.7 13.2-6.3 15.3-7.9 2.2-1.6 1.9-5.4-0.8-11.3L464.6 554c-4.1 5.1-8.1 11.4-11.8 18.9-4.3-3.9-9.7-7.9-16.2-12.1 5.7-4.5 12.7-11.9 21-22.1l-17.2-37.8c-7 3.2-14.1 6.7-21.4 10.7l-6.2-13.7c7.8-2.9 15.1-5.9 22.1-9.1-7.9-17.7-14.6-31.8-20-42.3z m95.7-9.5c7-3.2 13.6-6.5 19.8-9.9l6.2 13.7c-6.7 2.4-19.2 7.7-37.4 16-0.4 11.8-1.5 21.7-3.1 29.5l28.3-16.7c-4.1-3.3-7.4-5.7-10-7.1 2.2-2.3 5.1-5.9 8.7-10.7 5.9 4.5 14.6 11.5 26.1 21.2-3 3.3-6.2 7-9.5 11.1-2.8-3.3-5.1-5.5-6.9-6.6-9.2 5.5-18.3 11-27.3 16.8-9 5.7-15.4 10.4-18.9 13.9-4.8-4.9-8.5-8.8-11-11.5 5.4-3.7 8.4-8.5 9-14.3s0.7-12.1 0.1-19c-5.4 2.4-11.7 5.6-19 9.6l-6.2-13.7c9.4-3.6 18.1-7.2 26.1-10.9l25-11.4z m-8.1-7c-3.3 4.1-6.1 8.6-8.4 13.5-10.3-7-17.9-11.6-22.8-13.9 3.1-4.6 5.3-8.9 6.8-12.8 7.3 3.2 15.4 7.6 24.4 13.2z m55.6 79.6l27 59.6c2.9 6.4 2.8 11.2-0.3 14.2-3.2 3-8.7 7.3-16.5 12.8-3.5-4.9-7.8-9.4-12.9-13.5 6.4-2.9 10.7-5 12.7-6.2s1.9-4.3-0.2-9.1l-5.1-11.3-32.2 14.6 15.7 34.6-14.5 6.6c-3.1-8.3-6.5-16.5-10.1-24.5l-23-50.7c-3.2-7-6.6-13.8-10.3-20.6l62-28.1c1.9 7.5 4.5 14.7 7.7 21.6z m-11.9 10.3l-5.5-12.1-32.2 14.6 5.5 12.1 32.2-14.6z m10.6 23.3l-5.5-12.1-32.2 14.6 5.5 12.1 32.2-14.6z m-5.9-53.6c1.3-12.9-0.1-29.1-4.1-48.6s-8.3-35.7-12.8-48.5c6.6-1.1 12.9-2.3 18.7-3.6 0.1 3.2 0.8 8.1 1.8 14.7 1.1 6.6 2.4 13.8 3.9 21.5 18.8-8.5 32.1-14.9 39.9-19.1l6.2 13.7c-5.1 1.7-9.5 3.3-13.2 5 8.5 20.1 15.6 38.7 21.4 55.8 5.8 17.1 9.2 33.8 10.2 50.2 10.9 5.4 23 8.7 36.4 9.7-2.4 6.2-3.6 12.7-3.9 19.2-16.4-4.8-28.1-9.2-35.1-13.2-2.8 12.3-7.5 24.8-14.1 37.4-4.6-3.1-10.5-5.3-17.6-6.6 9.1-11.3 14.9-24.2 17.3-38.9-11.2-10.4-24-26.6-38.5-48.5l0.1 8.7c-5.8-4.4-11.4-7.4-16.6-8.9z m45.7-10.5c-6.5-18.7-12.9-34.8-18.9-48.2l-16.1 7.3c2.5 11.2 4.3 20.1 5.3 26.7 11.8 21.8 25.5 40.5 41 56.1-1-9.2-4.7-23.2-11.3-41.9zM796.2 341.4l36.5 80.5c6.3 14 13 28.1 20.2 42.3l-16.1 7.3-6.9-15.3-128 58 6.9 15.3-15.3 6.9c-5.6-13.6-11.7-28-18.5-43L638.5 413c-6.3-13.9-13.4-28.9-21.2-44.7L776.6 296c6.5 15.8 13.1 31 19.6 45.4z m27.8 102L766.7 317l-127.2 57.7L696.8 501 824 443.4z m-60.2-60.1l8.4 18.5c3.2 7 7.2 15.2 12.1 24.6l-74 33.6c-3.9-9.9-7.3-18.3-10.5-25.3l-9.1-20.1c-3.4-7.5-7.1-14.9-11-22.2l74.1-33.6c3 8.3 6.3 16.5 10 24.5z m-1.8 36.8L743.4 379l-42.7 19.3 18.6 41.1 42.7-19.3zM211 778.4l699.6-311.5 10.7 24.1-699.6 311.6-10.7-24.2zM102.6 534l699.6-311.5 10.7 24.1-699.5 311.5-10.8-24.1z m491.1 175.8c-33.3 14.3-70.9 19.8-105.6 16.7l-45.4 20.2c53.7 15.4 109.1 11.7 162.3-11 51.6-21.5 92.3-61 119.3-109.2l-45.5 20.2c-21.5 25.3-51.7 48.9-85.1 63.1zM422.8 314.2c33.3-14.3 70.9-19.8 105.6-16.7l45.5-20.2c-53.7-15.4-109.1-11.7-161.8 11.1-51.6 21.5-92.3 61-119.3 109.1l45.5-20.2c21.3-26.3 49.1-49.2 84.5-63.1z" p-id="12669"></path><path d="M654.1 850.2c-123.2 53.8-259.6 33.1-361.2-40l-29.4 12.5c29.8 22.8 63.1 43.4 98.6 56.9 47.5 19.1 98.5 28.1 149.1 28.2 52.8 0.5 104.9-12.2 154.2-32.7 49.3-21 93-50.7 128.9-89.6 35.7-37.9 62-80.7 81.1-128.2 13.8-36.8 22.9-72 25.5-110.7l-27 13c-17.2 124.5-96.8 237.7-219.8 290.6z m-293-676.6c123.2-53.8 260.5-33 362.6 40.2l29.4-12.5c-29.8-22.8-63.2-43.4-98.6-56.9-47.5-19.1-98.5-28.1-149.1-28.2-52.8-0.5-104.7 10.9-154.2 32.7-49.4 21.8-92.7 51.3-128.5 90.1-35.7 37.9-63.3 80.5-82 127.7-13.8 36.6-23.2 72.7-25.5 110.5l29.4-12.5c12.9-125.1 92.6-238.4 216.5-291.1z" p-id="12670"></path><path d="M249.3 332.2L236.2 306l28.8 5.5 21.4-20.7 3.3 29.3 26.5 14.4-26.2 13.1-4.6 29-19.4-21.3-29.3 3.3c-1.9 0.1 12.6-26.4 12.6-26.4zM761.9 727.1L744 751.7l-9.7-26.6-28.6-6.8 24.7-17.9-1-29 24.8 16.5 26.6-9.7-9.1 28.2 18.3 22.4c0.4-2.8-28.1-1.7-28.1-1.7zM483.1 831l-17.8 24.6-9.7-26.6-28.6-6.8 24.7-17.9-1-29 24.8 16.5 26.6-9.7-9.1 28.2 18.3 22.4c0.2-2.7-28.2-1.7-28.2-1.7zM644.4 802.8l-2.4 29.3-21.9-19.6-28.4 7 11.1-27-15.5-25.3 29.3 2.4 19.7-21.9 7 28.5 27.3 9.9zM534.1 198.6l16.5-24.8 9.7 26.6 28.6 6.8-22.4 18.3 0.8 29.8-24.8-16.5-27 12 9.1-28.2-19.2-22.6c-1.8-0.3 28.7-1.4 28.7-1.4z" p-id="12671"></path><path d="M372 228.3l2.4-29.3 21.9 19.6 28.7-8-11.1 27 15.5 25.2-30.2-2.9-17.5 22.3-7-28.5-26.8-9.8c-1.3 0.7 24.1-15.6 24.1-15.6z" p-id="12672"></path></svg>