<?xml version="1.0" standalone="no"?><!DOCTYPE svg PUBLIC "-//W3C//DTD SVG 1.1//EN" "http://www.w3.org/Graphics/SVG/1.1/DTD/svg11.dtd"><svg t="1533794848946" class="icon" style="" viewBox="0 0 1024 1024" version="1.1" xmlns="http://www.w3.org/2000/svg" p-id="3689" xmlns:xlink="http://www.w3.org/1999/xlink" width="16" height="16"><defs><style type="text/css"></style></defs><path d="M245.3 558.3c-3.1 13.1-8.4 29.4-15.7 48.8-4.4-2.5-9.8-4.6-16.4-6.2 13-31.1 19.8-55.5 20.2-73.2 6.5 1.6 13.5 2.6 20.8 3.2-2.8 5.2-5.7 14.4-8.9 27.4z m25.3 53.6l31.8 70c4.4 9.7 9.8 20.8 16.1 33.4l-16.9 7.7c-5.3-13.1-10-24.2-14.2-33.4l-24.1-53.1c-3.3 9.9-6.6 21.1-10 33.6-5.7-2.6-11.3-4.9-16.7-7 6.3-11.9 11.5-27.1 15.8-45.5 4.3-18.4 6.5-33.8 6.7-46.2 5.5 2.1 12.1 3.9 20 5.5-4.2 11-7 22.6-8.5 35z m58.2-42.9l-12-26.6c-13.4 6.1-26.4 12.3-39.1 18.7l-6.6-14.5c11.5-4.6 24.8-10.3 39.8-17.1-6.3-13.9-11.2-24-14.7-30.2l16.9-7.7c2.6 7.2 7 17.5 13.1 31l17.7-8c10.5-5.4 18.6-9.7 24.2-12.9L375 517c-5.6 1.9-14 5.4-25.3 10.5l-17.7 8 12 26.6 35.4-16.1c10.7-4.9 18.9-8.9 24.6-12.1l6.6 14.5c-11.5 4.6-22.1 9.1-31.8 13.4l10.2 22.5c11.3-5.1 20.8-9.8 28.6-13.9l6.9 15.3c-8.3 3.1-18.1 7.2-29.3 12.3l19 41.9c4.4 9.7 4.8 16.6 1.2 20.8-3.6 4.2-11 10.5-22.1 18.7-4-5.9-9.3-11.3-16-16 9.4-3.6 15.5-6.7 18.6-9.4 3-2.6 3.2-6.9 0.5-12.8L380 604.9l-49.1 22.3c-8 3.7-17.6 8.3-28.6 13.9l-6.9-15.3c11.5-4.6 21.3-8.7 29.3-12.3l49.1-22.3-10.2-22.5-43.5 19.7c-10.7 4.9-21.5 10.4-32.3 16.6l-6.9-15.3c11.5-4.6 22.6-9.3 33.4-14.2l14.5-6.5z m37.7 80.9c-3.6 4.9-7.1 10.7-10.5 17.4-10.8-8-21.4-14.2-31.7-18.6 3.9-5.6 7.1-11.3 9.7-17 12.8 7.1 23.7 13.1 32.5 18.2zM494.1 568.7c-10 5.8-20.3 12.8-30.8 20.8-3.8-4.1-8.5-8.8-14.1-14 4.6-4 8.1-11.1 10.3-21.2 2.2-10.1 3.8-21.1 4.8-33.2-3.2 1.5-7.5 4.1-13 7.8-5.4 3.8-9.8 7.7-13.1 11.8-5.1-5.5-10.3-9.9-15.7-13.3 4.5-8.5 6.8-20.6 6.9-36.1 0.1-15.6-1-30.6-3-45.2 8.1 0.8 15 1 20.6 0.4-1 6.3-1.9 15.8-2.7 28.4-0.7 12.6-1.6 27.2-2.5 43.8 3.7-1.7 11.8-6 24.2-12.9 1.8-13.1 2.5-25.1 2.2-35.9 9.2 1.7 16 2.5 20.5 2.4-2.2 9.4-4.5 21.8-6.9 37.1-2.4 15.3-5.7 33.3-10 54 4.8-2.2 16.3-9 34.4-20.5 2.4 5.4 4.9 10.1 7.4 14.1-3 2-9.5 5.9-19.5 11.7z m11.3 42c-9.9 7.4-18.3 14.9-25.2 22.6-3.5-4.9-8.3-9.8-14.5-14.8 15.4-8.9 36-23.4 61.8-43.5 1.6 5.1 3.7 10.3 6.1 15.7-8.9 5.9-18.3 12.6-28.2 20z m10.5-179l59.6-27c0.8 14.5 0.7 26.9-0.2 37s-3.2 21.8-6.9 35.1c9.6 2.8 20.5 4.6 32.6 5.6s21.4 0.9 28.1-0.1c-2.9 6.5-4.4 13-4.7 19.6-20.3-0.5-41-4-62.1-10.7-3.2 7.3-7.9 15.7-14.2 25.4-6.3 9.6-13.5 19.9-21.5 30.6-4.6-4.4-10.4-7.2-17.5-8.6 9.6-8.9 17.9-18.3 25-28.3s11.8-18.1 14.2-24.4c-12.7-6.5-24-14.4-33.9-23.4-1.3 14.2-3 26.3-4.9 36.2-7.3-1.9-13.2-2.7-17.7-2.6 3-9.1 5.1-18.3 6.4-27.6 1.3-9.3 2-18.8 2.1-28.6 0.1-9.7-0.7-20.1-2.4-30.9 8.1 0.8 15 1 20.6 0.4-1.4 4.3-2.2 11.8-2.6 22.3z m43.7-4.3l-41 18.6c12.5 11.8 24.3 20 35.5 24.7 4.4-13 6.2-27.4 5.5-43.3z m76.3 125.5c-0.2 5.3-0.2 11.7 0.1 19.4-18.4-2-33.5-2.5-45.2-1.3-11.8 1.1-24.3 2.8-37.6 4.9 0.8-6.8 0.9-13 0.3-18.6 41-3.7 68.5-5.2 82.4-4.4zM585 515.4c9.4-0.7 18.6-1.1 27.5-1.3-1 5-1.2 10.9-0.7 17.8-7.9-0.3-16.3-0.2-25.1 0.2-8.9 0.5-19.6 1.6-32.4 3.5 1-6.3 0.9-12.4-0.5-18.2 11.4-0.6 21.8-1.3 31.2-2zM713.2 340.3l78.1-35.4c2.4 6.7 4.8 12.7 7.2 18.1s5.3 10.9 8.5 16.5l-16.1 7.3-9.5-20.9-144.1 65.3 11 24.1-16.9 7.7c-2.4-6.7-4.9-13-7.6-18.9-2.9-6.4-6.1-12.8-9.6-19l80.5-36.5c-6.3-6.8-13.1-12.5-20.3-17 5.4-3.7 10.7-8.4 16-14 11.4 11.1 19 18.6 22.8 22.7z m-5.9 29.8l16.9-7.7c2.6 7.2 5.3 13.8 8 19.7l61.2-27.7c4.6 11.5 11.2 26.9 20 46.2 8.5 18.8 15.4 33.2 20.5 43.1l-15.3 6.9-3.7-8-45.9 20.8c7.3 16.1 13.8 29.7 19.4 40.7l-16.9 7.7c-4.6-11.5-10.5-25.3-17.8-41.4l-45.1 20.4 4 8.9-15.3 6.9c-3.1-8.3-9.3-22.6-18.5-43s-16.7-36.1-22.3-47.1l60.4-27.4c-2.4-5.4-5.6-11.7-9.6-19z m24.6 52l-9.1-20.1-45.1 20.4 9.1 20.1 45.1-20.4z m15.7 34.6l-9.5-20.9-45.1 20.4 9.5 20.9 45.1-20.4z m45.5-62.4l-9.1-20.1-46 20.8 9.1 20.1 46-20.8z m15.6 34.6l-9.5-20.9-45.9 20.8 9.5 20.9 45.9-20.8zM211 778.4l699.6-311.5 10.7 24.1-699.6 311.6-10.7-24.2zM102.6 534l699.6-311.5 10.7 24.1-699.5 311.5-10.8-24.1z m491.1 175.8c-33.3 14.3-70.9 19.8-105.6 16.7l-45.4 20.2c53.7 15.4 109.1 11.7 162.3-11 51.6-21.5 92.3-61 119.3-109.2l-45.5 20.2c-21.5 25.3-51.7 48.9-85.1 63.1zM422.8 314.2c33.3-14.3 70.9-19.8 105.6-16.7l45.5-20.2c-53.7-15.4-109.1-11.7-161.8 11.1-51.6 21.5-92.3 61-119.3 109.1l45.5-20.2c21.3-26.3 49.1-49.2 84.5-63.1z" p-id="3690"></path><path d="M654.1 850.2c-123.2 53.8-259.6 33.1-361.2-40l-29.4 12.5c29.8 22.8 63.1 43.4 98.6 56.9 47.5 19.1 98.5 28.1 149.1 28.2 52.8 0.5 104.9-12.2 154.2-32.7 49.3-21 93-50.7 128.9-89.6 35.7-37.9 62-80.7 81.1-128.2 13.8-36.8 22.9-72 25.5-110.7l-27 13c-17.2 124.5-96.8 237.7-219.8 290.6z m-293-676.6c123.2-53.8 260.5-33 362.6 40.2l29.4-12.5c-29.8-22.8-63.2-43.4-98.6-56.9-47.5-19.1-98.5-28.1-149.1-28.2-52.8-0.5-104.7 10.9-154.2 32.7-49.4 21.8-92.7 51.3-128.5 90.1-35.7 37.9-63.3 80.5-82 127.7-13.8 36.6-23.2 72.7-25.5 110.5l29.4-12.5c12.9-125.1 92.6-238.4 216.5-291.1z" p-id="3691"></path><path d="M249.3 332.2L236.2 306l28.8 5.5 21.4-20.7 3.3 29.3 26.5 14.4-26.2 13.1-4.6 29-19.4-21.3-29.3 3.3c-1.9 0.1 12.6-26.4 12.6-26.4zM761.9 727.1L744 751.7l-9.7-26.6-28.6-6.8 24.7-17.9-1-29 24.8 16.5 26.6-9.7-9.1 28.2 18.3 22.4c0.4-2.8-28.1-1.7-28.1-1.7zM483.1 831l-17.8 24.6-9.7-26.6-28.6-6.8 24.7-17.9-1-29 24.8 16.5 26.6-9.7-9.1 28.2 18.3 22.4c0.2-2.7-28.2-1.7-28.2-1.7zM644.4 802.8l-2.4 29.3-21.9-19.6-28.4 7 11.1-27-15.5-25.3 29.3 2.4 19.7-21.9 7 28.5 27.3 9.9zM534.1 198.6l16.5-24.8 9.7 26.6 28.6 6.8-22.4 18.3 0.8 29.8-24.8-16.5-27 12 9.1-28.2-19.2-22.6c-1.8-0.3 28.7-1.4 28.7-1.4z" p-id="3692"></path><path d="M372 228.3l2.4-29.3 21.9 19.6 28.7-8-11.1 27 15.5 25.2-30.2-2.9-17.5 22.3-7-28.5-26.8-9.8c-1.3 0.7 24.1-15.6 24.1-15.6z" p-id="3693"></path></svg>