<?xml version="1.0" standalone="no"?><!DOCTYPE svg PUBLIC "-//W3C//DTD SVG 1.1//EN" "http://www.w3.org/Graphics/SVG/1.1/DTD/svg11.dtd"><svg t="1533794870816" class="icon" style="" viewBox="0 0 1024 1024" version="1.1" xmlns="http://www.w3.org/2000/svg" p-id="4025" xmlns:xlink="http://www.w3.org/1999/xlink" width="16" height="16"><defs><style type="text/css"></style></defs><path d="M354.2 492.4c3.8 9.9 7.8 19.4 12 28.5l13.5 29.8c5.1 11.3 10.4 22.2 15.8 32.6l-17.7 8-5.5-12.1L266 627.5l24.5 53.9c4.8 13.4 14.3 16.5 28.5 9.4l79.7-36.1c9.4-3.6 15.1-7.8 17.1-12.6s0.4-15.1-4.8-30.8c7.6 1.1 15.6 1 24.1-0.3 3.4 15.9 4.2 27.4 2.5 34.3-1.7 6.9-6.2 12.4-13.5 16.3l-107.9 48.9c-19.1 9.3-32 5.1-38.7-12.5l-31.4-69.2c-2.4-5.4-7.2-15.2-14.3-29.4l19.3-8.8c2.9 7.8 6 15.4 9.4 22.9l105.4-47.8-23-50.7-89.3 40.5c-12.4 5.6-26.2 12.2-41.5 19.8l-7.3-16.1c15.8-6.5 29.6-12.5 41.4-17.8l108-49zM430.3 467.6c-4.1-9.1-7.9-16.8-11.4-23l16.9-7.7c2.1 6.2 5.3 13.8 9.4 22.9l9.9 21.7c8-3.7 16-7.6 23.8-11.8l6.6 14.5c-8.3 3.1-16.5 6.5-24.5 10.1l16.4 36.2c5.3-6.9 9.9-13.2 13.8-18.9 2 4.3 4.4 9 7.4 14.1-3.6 4.9-8.5 11.3-14.6 19.2l27 59.6c2.3 8 1.8 13.9-1.7 17.7s-10.3 8.7-20.5 14.6c-2.9-6.4-7.3-11.9-13.2-16.3 8.3-3.1 13.6-5.6 16.1-7.3 2.4-1.7 2.7-4.8 0.7-9.1l-21.2-46.7c-5.2 5.6-10.9 13-17.1 22.3-5.3-6-10.2-10.3-14.5-12.8 8.7-6.5 17-14.5 25-24l-19-41.9c-9.7 4.4-17.9 8.4-24.6 12.1l-6.6-14.5c7.2-2.6 15.7-6.1 25.3-10.5l-9.4-20.5zM582 421.1c6.8 15 12.3 26.4 16.5 34.2L506.7 497c-4.3-11-9.3-22.6-14.9-35-5.8-12.9-11.6-24.8-17.2-35.9l91.8-41.6c3.3 8.9 8.5 21.1 15.6 36.6z m-18.1-1.4l-6.6-14.5-61.2 27.7 6.6 14.5 61.2-27.7z m29.9 55.3c9.1-4.1 17.9-8.4 26.2-12.9l6.6 14.5c-8.3 3.1-17 6.7-26.1 10.9l-28.2 12.8 10.2 22.5 12.1-5.5c9.7-4.4 18.7-8.8 27-13.2l6.6 14.5c-8.8 3.4-17.8 7.1-26.9 11.2l-12.9 5.8 11.7 25.8c6.4-1.6 14.7-4.7 24.9-9.3s20.6-10.3 31.1-17c-0.5 4.7 0.1 11.6 1.6 20.6-16.1 7.3-30.1 13.5-42 18.6s-23 7.7-33.3 7.8-20.8-1.6-31.4-5.1c-0.2 12.4-3.9 25.7-11 39.9-5.7-2.6-11.9-4-18.4-4.3 8.1-12.1 12-25.3 11.6-39.7s-3.2-27.5-8.6-39.3c7.7-0.2 14.3-1.3 19.9-3.2-0.2 4 1.6 13.5 5.2 28.7 11.1 6 22.4 8 33.8 6l-26.3-58-17.7 8c-11.3 5.1-22.1 10.4-32.6 15.8l-6.6-14.5c11-4.3 22.4-9.2 34.2-14.5l59.3-26.9z m-16.4-25.5l-7.3-16.1-61.2 27.7 7.3 16.1 61.2-27.7zM651.4 396.5c-8 3.7-15.7 7.5-23 11.4l-7.3-16.1 23.3-8.6 125.6-57c8.3-4.4 16.9-9 25.8-13.7l7.7 16.9c-9.4 3.6-18.5 7.1-27.3 10.4l-124.8 56.7z m17.9 58.8c-6.7-3.4-13.8-5.4-21.1-5.9 7.8-10 14-20.9 18.6-32.7 4.7-11.8 7.8-21.6 9.4-29.5 7.1 1.3 14.5 2.8 22.4 4.4-4.3 10.3-14.1 31.6-29.3 63.7z m49-114.4c-6.5 5.6-12.1 10.4-16.8 14.4-7.4-7.7-15.9-15.8-25.6-24.3 5.5-5.1 11.1-9.9 16.8-14.4 11 9.9 19.5 18 25.6 24.3z m33.4 110c7.9-21.1 11.2-42.9 10-65.7 5.7 1.3 12.7 2.3 20.8 3.2-3.6 26.2-8.6 48.9-14.8 67.9 24.6 5.7 54.8 2.3 90.6-10-2 9.9-2.4 17.6-1.3 22.9-37.3 9.1-69.9 10-97.8 2.6-15.3 27.6-36.6 51.9-64.1 72.7-4.5-5.7-10.2-10.3-16.9-13.7 31-18.6 52.4-39.9 64.1-64-18.9-8.9-36.1-20.5-51.7-34.8 5.2-5.6 9.1-10.6 11.6-15 19.8 17.6 36.3 28.9 49.5 33.9z m24.3-92c12.9 2.9 25.4 5.4 37.5 7.7-4 7-7 13.8-9.1 20.6-7.7-4.2-28.3-9.5-61.5-15.8 2.3-6.2 5.1-12.3 8.2-18.3 3.6 1 11.9 2.9 24.9 5.8zM211 778.4l699.6-311.5 10.7 24.1-699.6 311.6-10.7-24.2zM102.6 534l699.6-311.5 10.7 24.1-699.5 311.5-10.8-24.1z m491.1 175.8c-33.3 14.3-70.9 19.8-105.6 16.7l-45.4 20.2c53.7 15.4 109.1 11.7 162.3-11 51.6-21.5 92.3-61 119.3-109.2l-45.5 20.2c-21.5 25.3-51.7 48.9-85.1 63.1zM422.8 314.2c33.3-14.3 70.9-19.8 105.6-16.7l45.5-20.2c-53.7-15.4-109.1-11.7-161.8 11.1-51.6 21.5-92.3 61-119.3 109.1l45.5-20.2c21.3-26.3 49.1-49.2 84.5-63.1z" p-id="4026"></path><path d="M654.1 850.2c-123.2 53.8-259.6 33.1-361.2-40l-29.4 12.5c29.8 22.8 63.1 43.4 98.6 56.9 47.5 19.1 98.5 28.1 149.1 28.2 52.8 0.5 104.9-12.2 154.2-32.7 49.3-21 93-50.7 128.9-89.6 35.7-37.9 62-80.7 81.1-128.2 13.8-36.8 22.9-72 25.5-110.7l-27 13c-17.2 124.5-96.8 237.7-219.8 290.6z m-293-676.6c123.2-53.8 260.5-33 362.6 40.2l29.4-12.5c-29.8-22.8-63.2-43.4-98.6-56.9-47.5-19.1-98.5-28.1-149.1-28.2-52.8-0.5-104.7 10.9-154.2 32.7-49.4 21.8-92.7 51.3-128.5 90.1-35.7 37.9-63.3 80.5-82 127.7-13.8 36.6-23.2 72.7-25.5 110.5l29.4-12.5c12.9-125.1 92.6-238.4 216.5-291.1z" p-id="4027"></path><path d="M249.3 332.2L236.2 306l28.8 5.5 21.4-20.7 3.3 29.3 26.5 14.4-26.2 13.1-4.6 29-19.4-21.3-29.3 3.3c-1.9 0.1 12.6-26.4 12.6-26.4zM761.9 727.1L744 751.7l-9.7-26.6-28.6-6.8 24.7-17.9-1-29 24.8 16.5 26.6-9.7-9.1 28.2 18.3 22.4c0.4-2.8-28.1-1.7-28.1-1.7zM483.1 831l-17.8 24.6-9.7-26.6-28.6-6.8 24.7-17.9-1-29 24.8 16.5 26.6-9.7-9.1 28.2 18.3 22.4c0.2-2.7-28.2-1.7-28.2-1.7zM644.4 802.8l-2.4 29.3-21.9-19.6-28.4 7 11.1-27-15.5-25.3 29.3 2.4 19.7-21.9 7 28.5 27.3 9.9zM534.1 198.6l16.5-24.8 9.7 26.6 28.6 6.8-22.4 18.3 0.8 29.8-24.8-16.5-27 12 9.1-28.2-19.2-22.6c-1.8-0.3 28.7-1.4 28.7-1.4z" p-id="4028"></path><path d="M372 228.3l2.4-29.3 21.9 19.6 28.7-8-11.1 27 15.5 25.2-30.2-2.9-17.5 22.3-7-28.5-26.8-9.8c-1.3 0.7 24.1-15.6 24.1-15.6z" p-id="4029"></path></svg>