<?xml version="1.0" standalone="no"?><!DOCTYPE svg PUBLIC "-//W3C//DTD SVG 1.1//EN" "http://www.w3.org/Graphics/SVG/1.1/DTD/svg11.dtd"><svg t="1533794856187" class="icon" style="" viewBox="0 0 1024 1024" version="1.1" xmlns="http://www.w3.org/2000/svg" p-id="3801" xmlns:xlink="http://www.w3.org/1999/xlink" width="16" height="16"><defs><style type="text/css"></style></defs><path d="M250.8 570.4c-5.4 3.8-9.8 8.3-13.2 13.7-6-8.9-16.8-18.6-32.5-28.9l13.2-13.7c16.3 13.3 27.2 22.9 32.5 28.9z m8.5 27.2c4.3 12.3 8.2 22.5 11.9 30.5l23 50.7c20.4 3.7 39.9 2.4 58.5-3.7 18.6-6.2 36.2-13.3 52.8-21.5 16.7-8.2 31.2-16.4 43.7-24.7 0.2 7.7 1.7 15.1 4.3 22.3-25.8 11.7-46.9 21-63.6 27.9-16.6 6.9-32.6 11.7-47.8 14.4-15.3 2.7-27.3 3.7-36.1 2.8-8.8-0.9-14.8 1.9-18.1 8.2-3.3 6.3-6.4 14.1-9.4 23.2-5.4-3.4-11.4-5.8-17.9-7.4 8.5-15.5 14.8-26.5 19-32.9l-31-68.4c-5.9 2.7-13.2 6.6-21.8 11.8l-7.3-16.1c11-4.3 19.1-7.7 24.5-10.1l15.3-7z m75.9-72.3c-4.9-10.7-10.5-22.4-16.9-35.1l16.9-7.7c2.4 6.7 7.5 18.6 15.3 35.8 11.3-5.1 22.1-10.4 32.6-15.8l6.9 15.3c-11 4.3-22.1 9.1-33.4 14.2l16.1 35.4c12.9-5.8 25.1-11.7 36.7-17.6l6.9 15.3c-12 4.8-24.5 10.1-37.4 16l15 33c4.1 9.1 8.7 18.4 13.6 27.8l-16.9 7.7c-4.4-9.7-8.4-19.2-12-28.5l-15-33-30.5 13.9c4.4 15.5 6.7 28.7 6.8 39.6 0.1 11-1.8 22.8-5.7 35.6-7.3-1.9-14-3-20-3.5 6.1-13.7 8.9-25.2 8.6-34.5-0.3-9.2-2-19.3-5-30.3-12.4 5.6-23 10.7-31.8 15.4l-7-15.3c9.9-3.8 21.3-8.7 34.2-14.5-4.5-12.8-9.3-24.9-14.5-36.1-10.7 4.9-21 10.2-30.7 15.8l-7.3-16.1c10.4-4.1 21.3-8.7 32.6-13.8-5.6-12.3-11.2-24-16.9-35.1 5.6-1.9 11.5-3.9 17.6-6.1 2.6 7.2 7.2 18.7 13.7 34.5l27.5-12.3z m22.3 49.1L341.4 539 314 551.4c4.6 11.5 9.1 23.7 13.6 36.5l29.9-13.5zM445.3 464.2c-2 14.2-6.1 30.8-12.4 49.8-5.2-2.8-10.5-5.3-15.9-7.3 4.7-12.5 8.3-25.3 10.7-38.4 2.5-13.1 3.6-24.1 3.4-33.1 6.8 0.8 14.6 2.1 23.2 4-4 2.6-7 10.9-9 25z m32.4 36.3c-0.5 5.4-1.4 12.3-2.8 20.7l32.9 72.4c3.2 7 8.3 17.6 15.4 31.8l-16.9 7.7c-6.8-16.3-12-28.5-15.6-36.6L467.3 545c-1.2 10.2-4 21.2-8.4 32.9-6.2-3.7-11.7-6.6-16.7-8.9 7-17.4 11.5-33 13.6-46.9 2.1-13.9 3.7-26.9 4.6-39 6.8 0.8 14.6 1.5 23.3 2.1-3.5 4.8-5.5 9.9-6 15.3z m68.6-98.1c9.1-4.1 18.4-8.7 27.8-13.6l6.9 15.3c-9.9 3.9-20 8.1-30.1 12.7l-29.8 13.5c-11.8 5.4-21.9 10.3-30.2 14.7l-6.9-15.3c8.8-3.3 19.1-7.7 31-13.1l31.3-14.2z m38.5 48.5c10.2-4.6 19.5-9.1 27.8-13.6l7.3 16.1c-8.8 3.4-18.1 7.2-27.7 11.6l-11.3 5.1 39.8 87.7c3.4 6.2 3.4 11.5 0 16-3.5 4.5-11.6 10.6-24.2 18.3-4-5.9-9.9-11.1-17.6-15.3 9.6-3.1 16.2-5.6 19.9-7.6 3.6-2 4.5-5.8 2.6-11.4l-36.5-80.5-32.2 14.6c-10.2 4.6-19.7 9.3-28.6 13.9l-7.3-16.1c9.9-3.8 19.7-8 29.3-12.3l58.7-26.5zM701.5 316.5c6.3 15.3 12.5 29.6 18.5 43l70-31.8c4.3 11 10.8 25.9 19.3 44.6 8.3 18.2 14.7 31.8 19.4 40.7l-17.7 8-5.5-12.1-52.3 23.7 15.7 34.6c2.9 6.4 8.7 18.4 17.2 35.9l-19.3 8.8c-3.3-10.1-7.9-21.7-13.7-34.5l-16.8-37-52.3 23.8 5.5 12.1-17.7 8c-3.1-8.3-9.1-22.1-17.8-41.4-9-19.8-16-34.5-20.9-43.9l70-31.8c-6.6-14.5-13.3-28.6-20.2-42.3l18.6-8.4z m29 111.1L709 380.1l-52.3 23.7 21.5 47.5 52.3-23.7z m69.2-31.4l-21.5-47.5-52.3 23.7 21.5 47.5 52.3-23.7zM211 778.4l699.6-311.5 10.7 24.1-699.6 311.6-10.7-24.2zM102.6 534l699.6-311.5 10.7 24.1-699.5 311.5-10.8-24.1z m491.1 175.8c-33.3 14.3-70.9 19.8-105.6 16.7l-45.4 20.2c53.7 15.4 109.1 11.7 162.3-11 51.6-21.5 92.3-61 119.3-109.2l-45.5 20.2c-21.5 25.3-51.7 48.9-85.1 63.1zM422.8 314.2c33.3-14.3 70.9-19.8 105.6-16.7l45.5-20.2c-53.7-15.4-109.1-11.7-161.8 11.1-51.6 21.5-92.3 61-119.3 109.1l45.5-20.2c21.3-26.3 49.1-49.2 84.5-63.1z" p-id="3802"></path><path d="M654.1 850.2c-123.2 53.8-259.6 33.1-361.2-40l-29.4 12.5c29.8 22.8 63.1 43.4 98.6 56.9 47.5 19.1 98.5 28.1 149.1 28.2 52.8 0.5 104.9-12.2 154.2-32.7 49.3-21 93-50.7 128.9-89.6 35.7-37.9 62-80.7 81.1-128.2 13.8-36.8 22.9-72 25.5-110.7l-27 13c-17.2 124.5-96.8 237.7-219.8 290.6z m-293-676.6c123.2-53.8 260.5-33 362.6 40.2l29.4-12.5c-29.8-22.8-63.2-43.4-98.6-56.9-47.5-19.1-98.5-28.1-149.1-28.2-52.8-0.5-104.7 10.9-154.2 32.7-49.4 21.8-92.7 51.3-128.5 90.1-35.7 37.9-63.3 80.5-82 127.7-13.8 36.6-23.2 72.7-25.5 110.5l29.4-12.5c12.9-125.1 92.6-238.4 216.5-291.1z" p-id="3803"></path><path d="M249.3 332.2L236.2 306l28.8 5.5 21.4-20.7 3.3 29.3 26.5 14.4-26.2 13.1-4.6 29-19.4-21.3-29.3 3.3c-1.9 0.1 12.6-26.4 12.6-26.4zM761.9 727.1L744 751.7l-9.7-26.6-28.6-6.8 24.7-17.9-1-29 24.8 16.5 26.6-9.7-9.1 28.2 18.3 22.4c0.4-2.8-28.1-1.7-28.1-1.7zM483.1 831l-17.8 24.6-9.7-26.6-28.6-6.8 24.7-17.9-1-29 24.8 16.5 26.6-9.7-9.1 28.2 18.3 22.4c0.2-2.7-28.2-1.7-28.2-1.7zM644.4 802.8l-2.4 29.3-21.9-19.6-28.4 7 11.1-27-15.5-25.3 29.3 2.4 19.7-21.9 7 28.5 27.3 9.9zM534.1 198.6l16.5-24.8 9.7 26.6 28.6 6.8-22.4 18.3 0.8 29.8-24.8-16.5-27 12 9.1-28.2-19.2-22.6c-1.8-0.3 28.7-1.4 28.7-1.4z" p-id="3804"></path><path d="M372 228.3l2.4-29.3 21.9 19.6 28.7-8-11.1 27 15.5 25.2-30.2-2.9-17.5 22.3-7-28.5-26.8-9.8c-1.3 0.7 24.1-15.6 24.1-15.6z" p-id="3805"></path></svg>