<?xml version="1.0" standalone="no"?><!DOCTYPE svg PUBLIC "-//W3C//DTD SVG 1.1//EN" "http://www.w3.org/Graphics/SVG/1.1/DTD/svg11.dtd"><svg t="1532609190125" class="icon" style="" viewBox="0 0 1024 1024" version="1.1" xmlns="http://www.w3.org/2000/svg" p-id="3921" xmlns:xlink="http://www.w3.org/1999/xlink" width="16" height="16"><defs><style type="text/css"></style></defs><path d="M789.9 663.1c-61.5 0-111.4 50.1-111.4 112 0 61.8 49.9 112 111.4 112 61.5 0 111.4-50.1 111.4-112 0.1-61.9-49.8-112-111.4-112z m75.8 136c0 17.5-14.2 31.6-31.6 31.6h-22.6c-5 0-9-4-9-9s4-9 9-9H834c7.5 0 13.6-6.1 13.6-13.6v-9c0-7.5-6.1-13.6-13.6-13.6h-85.3l22.9 22.9s0.1 0 0.1 0.1c3.5 3.5 3.5 9.3 0 12.8s-9.3 3.5-12.8 0l-44.7-44.7 3.1-3.1-0.1-0.1 44.7-44.7 0.5 0.5c3.3-1.5 7.4-1 10.1 1.8 2.7 2.7 3.3 6.8 1.8 10.1l0.4 0.4-1.8 1.8c-0.1 0.2-0.2 0.4-0.3 0.5-0.1 0.1-0.3 0.2-0.5 0.3l-23.4 23.4H834c17.5 0 31.6 14.2 31.6 31.6v9z" fill="" p-id="3922"></path><path d="M789.9 623.5c14.2 0 27.9 2.1 40.9 5.8V380.5c0-12.2-9.8-22-21.9-22.1H654.5L533.7 237.5c16.7-27.9 10.7-63.8-14.2-84.9-24.9-21-61.4-20.9-86.1 0.4-24.7 21.2-30.4 57.2-13.5 85L299.7 358.4H144.6c-12.2 0.1-21.9 10-21.9 22.1V823c0 12 9.8 22.1 21.9 22.1h511.8c-10.9-21-17.2-44.8-17.2-70.2 0-83.5 67.5-151.4 150.7-151.4zM454.6 266c14.5 5.1 30.3 5 44.8-0.2l92.6 92.6H362.2l92.4-92.4zM211.2 491.2h221.3v44.3H211.2v-44.3z m0 88.5h486.9V624H211.2v-44.3z m354.1 132.8H211.2v-44.3h354.1v44.3z" fill="" p-id="3923"></path></svg>