<?xml version="1.0" standalone="no"?><!DOCTYPE svg PUBLIC "-//W3C//DTD SVG 1.1//EN" "http://www.w3.org/Graphics/SVG/1.1/DTD/svg11.dtd"><svg t="1530514601414" class="icon" style="" viewBox="0 0 1024 1024" version="1.1" xmlns="http://www.w3.org/2000/svg" p-id="6013" xmlns:xlink="http://www.w3.org/1999/xlink" width="16" height="16"><defs><style type="text/css"></style></defs><path d="M705.4 546.5c-95.4 0-172.7 77.7-172.7 173.6 0 95.8 77.3 173.6 172.7 173.6 95.4 0 172.7-77.7 172.7-173.6 0-95.9-77.3-173.6-172.7-173.6z m117.4 210.9c0 27.1-21.9 49-49 49h-35c-7.7 0-14-6.3-14-14s6.3-14 14-14h35c11.6 0 21-9.4 21-21v-14c0-11.6-9.4-21-21-21H641.6l35.4 35.4c0.1 0.1 0.1 0.1 0.2 0.1 5.5 5.5 5.5 14.3 0 19.8s-14.3 5.5-19.8 0L588 708.4l4.8-4.8-0.1-0.1 69.3-69.3 0.8 0.8c5.2-2.3 11.4-1.5 15.7 2.8 4.2 4.2 5.1 10.5 2.8 15.7l0.6 0.6-2.8 2.8c-0.2 0.2-0.3 0.5-0.5 0.8-0.2 0.2-0.5 0.3-0.8 0.5l-36.3 36.3h132.3c27.1 0 49 21.9 49 49v13.9z" p-id="6014"></path><path d="M727.6 305.9v-55.4h-314v55.4h314z m-314 147.7h314v-36.9h-314v36.9zM145.9 130.4h646.4v389.5c-28.1-12.9-59.5-20.1-92.3-20.1-61.1 0-116.5 24.7-156.6 64.6H413.6v36.9h99.9c-22.3 34.5-35.3 75.7-35.3 120 0 3.1 0 6.1 0.4 9.2h-65V749h66.5c4.6 37.7 18.7 72.2 39.7 101.6h-374V130.4z m110.8 379.2l-18.8 38.2-42.1 6.1 30.5 29.7-7.2 41.9 37.7-19.8 37.7 19.8-7.2-41.9 30.5-29.7-42.1-6.1-19-38.2z m0 147.7l-18.8 38.2-42.1 6.1 30.5 29.7-7.2 41.9 37.7-19.8 37.7 19.8-7.2-41.9 30.5-29.7-42.1-6.1-19-38.2z m0-443.2l-18.8 38.2-42.1 6.1 30.5 29.7-7.2 41.9 37.7-19.8 37.7 19.8-7.2-41.9 30.5-29.7-42.1-6.1-19-38.2z m0 147.7L237.9 400l-42.1 6.1 30.5 29.7-7.2 41.9 37.7-19.8 37.7 19.8-7.2-41.9 30.5-29.7-42.1-6.1-19-38.2z" p-id="6015"></path></svg>