<?xml version="1.0" standalone="no"?><!DOCTYPE svg PUBLIC "-//W3C//DTD SVG 1.1//EN" "http://www.w3.org/Graphics/SVG/1.1/DTD/svg11.dtd"><svg t="1531226410644" class="icon" style="" viewBox="0 0 1024 1024" version="1.1" xmlns="http://www.w3.org/2000/svg" p-id="3267" xmlns:xlink="http://www.w3.org/1999/xlink" width="16" height="16"><defs><style type="text/css"></style></defs><path d="M794.624 130.56v391.168c-28.16-12.8-59.904-20.48-92.672-20.48-61.44 0-116.736 25.088-157.184 65.024H414.208v36.864h100.352c-22.528 34.816-35.328 76.288-35.328 120.832 0 3.072 0 6.144 0.512 9.216H414.208v18.432h66.56c4.608 37.888 18.944 72.704 39.936 101.888H145.408V130.56h649.216z m-65.024 324.608v-36.864H414.208v36.864h315.392z m0-148.48V250.88H414.208v55.808h315.392z m-442.368-17.92l30.72-29.696-42.496-6.144-18.944-38.4-18.944 38.4-42.496 6.144 30.72 29.696-7.168 41.984 37.888-19.968 37.888 19.968-7.168-41.984z m0 148.48l30.72-29.696-42.496-6.144-18.944-38.4-18.944 38.4-42.496 6.144 30.72 29.696-7.168 41.984 37.888-19.968 37.888 19.968-7.168-41.984z m0 148.48l30.72-29.696-42.496-6.144-18.944-38.4-18.944 38.4-42.496 6.144 30.72 29.696-7.168 41.984 37.888-19.968 37.888 19.968-7.168-41.984z m0 148.48l30.72-29.696-42.496-6.144-18.944-38.4-18.944 38.4-42.496 6.144 30.72 29.696-7.168 41.984 37.888-19.968 37.888 19.968-7.168-41.984z" fill="" p-id="3268"></path><path d="M706.048 547.84c-94.72 0-172.032 77.312-172.032 172.544s76.8 172.544 172.032 172.544c94.72 0 172.032-77.312 172.032-172.544s-76.8-172.544-172.032-172.544z m0 289.28c-12.8 0-23.552-10.24-23.552-23.04s10.752-23.04 23.552-23.04c12.8 0 23.552 10.24 23.552 23.04 0 12.288-10.24 23.04-23.552 23.04z m23.552-100.864c0 12.8-10.752 23.04-23.552 23.04-12.8 0-23.552-10.24-23.552-23.04v-108.544c0-12.8 10.752-23.04 23.552-23.04 12.8 0 23.552 10.24 23.552 23.04v108.544z" fill="" p-id="3269"></path></svg>