<?xml version="1.0" standalone="no"?><!DOCTYPE svg PUBLIC "-//W3C//DTD SVG 1.1//EN" "http://www.w3.org/Graphics/SVG/1.1/DTD/svg11.dtd"><svg t="1533636852015" class="icon" style="" viewBox="0 0 1024 1024" version="1.1" xmlns="http://www.w3.org/2000/svg" p-id="9292" xmlns:xlink="http://www.w3.org/1999/xlink" ><defs><style type="text/css"></style></defs><path d="M684.6 572.4c-86.9 0-157.3 70.4-157.3 157.3S597.7 887 684.6 887s157.3-70.4 157.3-157.3-70.4-157.3-157.3-157.3z m-84.5 186.2c-15.5 0-28.2-13-28.2-28.9 0-15.9 12.6-28.9 28.2-28.9 15.5 0 28.2 13 28.2 28.9 0 15.9-12.7 28.9-28.2 28.9z m84.5 0c-15.5 0-28.2-13-28.2-28.9 0-15.9 12.6-28.9 28.2-28.9 15.5 0 28.2 13 28.2 28.9-0.1 15.9-12.7 28.9-28.2 28.9z m84.5 0c-15.5 0-28.2-13-28.2-28.9 0-15.9 12.6-28.9 28.2-28.9s28.2 13 28.2 28.9c-0.1 15.9-12.7 28.9-28.2 28.9z" fill="" p-id="9293"></path><path d="M620.7 198.4h-45.9v-21.6c0-22-17.8-39.8-39.8-39.8H414.5c-22 0-39.8 17.8-39.8 39.8v21.6h-46.8v107.3h292.8V198.4zM475 266.2c-24.2 0-43.9-19.7-43.9-43.9s19.7-43.9 43.9-43.9 43.9 19.7 43.9 43.9c0 27.8-19.7 43.9-43.9 43.9z" fill="" p-id="9294"></path><path d="M469.2 722.6c0-111.5 90.4-201.9 201.9-201.9 35 0 67.9 8.9 96.5 24.6V265.4c0-14.7-11.9-26.6-26.6-26.6h-71.7v117.7H279.2V238.8h-70.4c-14.7 0-26.6 11.9-26.6 26.6v546.8c0 14.7 11.9 26.6 26.6 26.6h297.5c-23.3-32.8-37.1-72.9-37.1-116.2z" fill="" p-id="9295"></path></svg>