<?xml version="1.0" standalone="no"?><!DOCTYPE svg PUBLIC "-//W3C//DTD SVG 1.1//EN" "http://www.w3.org/Graphics/SVG/1.1/DTD/svg11.dtd"><svg t="1530514873849" class="icon" style="" viewBox="0 0 1024 1024" version="1.1" xmlns="http://www.w3.org/2000/svg" p-id="6261" xmlns:xlink="http://www.w3.org/1999/xlink" width="16" height="16"><defs><style type="text/css"></style></defs><path d="M705.5 546.4c-95.4 0-172.7 77.7-172.7 173.6 0 95.8 77.3 173.6 172.7 173.6 95.4 0 172.7-77.7 172.7-173.6 0-95.9-77.3-173.6-172.7-173.6z m114.9 134.1L689 811.8c-3.1 3.1-7.4 5-12.1 5-4.7 0-9-1.9-12.1-5l-74.2-74.2c-3.1-3.1-5-7.4-5-12.1 0-9.5 7.7-17.1 17.1-17.1 4.7 0 9 1.9 12.1 5l62.1 62.1 119.2-119.2c3.1-3.1 7.4-5 12.1-5 9.4 0 17.1 7.7 17.1 17.1 0.1 4.7-1.8 9-4.9 12.1z" p-id="6262"></path><path d="M413.6 250.5v55.4h314v-55.4h-314z m0 166.2v36.9h314v-36.9h-314zM145.8 130.5h646.4V520c-28.1-12.9-59.5-20.1-92.3-20.1-61.1 0-116.4 24.7-156.4 64.6H413.6v36.9h99.9c-22.3 34.5-35.3 75.7-35.3 120 0 3.1 0 6.1 0.4 9.2h-65v18.5h66.5c4.6 37.5 18.7 72.2 39.9 101.6H145.8V130.5z m49.9 571l30.5 29.7-7.2 42.1 37.7-19.9 37.9 19.9-7.2-42.1 30.5-29.7-42.3-6.1-18.8-38.2-18.8 38.2-42.3 6.1z m30.4-118l-7.2 42.1 37.7-19.9 37.9 19.9-7.2-42.1 30.5-29.7-42.3-6.1-18.8-38.2-18.8 38.2-42.1 6.1 30.3 29.7zM195.7 406l30.5 29.7-7.2 42.1 37.7-19.9 37.9 19.9-7.2-42.1 30.5-29.7-42.3-6.1-18.8-38.2-18.8 38.2-42.3 6.1z m0-147.7l30.5 29.7-7.2 42.1 37.7-19.9 37.9 19.9-7.2-42.1 30.5-29.7-42.3-6.1-18.8-38.2-18.8 38.2-42.3 6.1z" p-id="6263"></path></svg>