<?xml version="1.0" standalone="no"?><!DOCTYPE svg PUBLIC "-//W3C//DTD SVG 1.1//EN" "http://www.w3.org/Graphics/SVG/1.1/DTD/svg11.dtd"><svg t="1532609013328" class="icon" style="" viewBox="0 0 1024 1024" version="1.1" xmlns="http://www.w3.org/2000/svg" p-id="3702" xmlns:xlink="http://www.w3.org/1999/xlink" width="16" height="16"><defs><style type="text/css"></style></defs><path d="M789.9 663.1c-61.5 0-111.4 50.1-111.4 112 0 61.8 49.9 112 111.4 112 61.5 0 111.4-50.1 111.4-112 0.1-61.9-49.8-112-111.4-112z m74.2 86.4l-84.7 84.7c-2 2-4.8 3.2-7.8 3.2-3.1 0-5.8-1.2-7.8-3.2l-47.9-47.9c-2-2-3.2-4.8-3.2-7.8 0-6.1 5-11 11-11 3.1 0 5.8 1.2 7.8 3.2l40.1 40.1 76.9-76.9c2-2 4.8-3.2 7.8-3.2 6.1 0 11 5 11 11 0 3.1-1.2 5.8-3.2 7.8z" fill="" p-id="3703"></path><path d="M789.9 623.5c14.2 0 27.9 2.1 40.9 5.8V380.5c0-12.2-9.8-22-21.9-22.1H654.5L533.7 237.5c16.7-27.9 10.7-63.8-14.2-84.9-24.9-21-61.4-20.9-86.1 0.4-24.7 21.2-30.4 57.2-13.5 85L299.7 358.4H144.6c-12.2 0.1-21.9 10-21.9 22.1V823c0 12 9.8 22.1 21.9 22.1h511.8c-10.9-21-17.2-44.8-17.2-70.2 0-83.5 67.5-151.4 150.7-151.4zM454.6 266c14.5 5.1 30.3 5 44.8-0.2l92.6 92.6H362.2l92.4-92.4zM211.2 491.2h221.3v44.3H211.2v-44.3z m0 88.5h486.9V624H211.2v-44.3z m354.1 132.8H211.2v-44.3h354.1v44.3z" fill="" p-id="3704"></path></svg>