<?xml version="1.0" standalone="no"?><!DOCTYPE svg PUBLIC "-//W3C//DTD SVG 1.1//EN" "http://www.w3.org/Graphics/SVG/1.1/DTD/svg11.dtd"><svg t="1530514826570" class="icon" style="" viewBox="0 0 1024 1024" version="1.1" xmlns="http://www.w3.org/2000/svg" p-id="6137" xmlns:xlink="http://www.w3.org/1999/xlink" width="16" height="16"><defs><style type="text/css"></style></defs><path d="M705.5 546.4c-95.4 0-172.7 77.7-172.7 173.6 0 95.8 77.3 173.6 172.7 173.6S878.2 815.9 878.2 720s-77.4-173.6-172.7-173.6z m88 236.4c6.9 6.9 6.9 18.2 0 25.1-6.9 6.9-18.2 6.9-25.1 0l-62.8-62.8-62.8 62.8c-6.9 6.9-18.2 6.9-25.1 0-7-6.9-7-18.2 0-25.1l62.8-62.8-62.8-62.8c-7-6.9-7-18.2 0-25.1 6.9-7 18.2-7 25.1 0l62.8 62.8 62.8-62.8c6.9-7 18.2-7 25.1 0 6.9 6.9 6.9 18.2 0 25.1L730.7 720l62.8 62.8z" p-id="6138"></path><path d="M792.3 130.4v389.3C764.2 507 733 499.8 700 499.8c-61.3 0-116.5 24.7-156.6 64.6H413.6v36.9h99.9c-22.3 34.5-35.3 75.7-35.3 120 0 3.1 0 6.1 0.4 9.2h-65V749h66.5c4.6 37.7 18.7 72.2 39.7 101.6h-374V130.4h646.5z m-64.6 323.2v-36.9h-314v36.9h314z m0-147.8v-55.4h-314v55.4h314z m-440.6-17.7l30.5-29.7-42.1-6.1-18.8-38.2-18.7 38.2-42.1 6.1 30.5 29.7-7.2 41.9 37.7-19.8 37.7 19.8-7.5-41.9z m0 147.7l30.5-29.7-42.1-6.1-18.9-38.2-18.7 38.2-42.1 6.1 30.5 29.7-7.2 41.9 37.7-19.8 37.7 19.8-7.4-41.9z m0 147.8l30.5-29.7-42.1-6.1-18.8-38.2-18.9 38.2-42.1 6.1 30.5 29.7-7.2 41.9 37.7-19.8 37.7 19.8-7.3-41.9z m0 147.7l30.5-29.7-42.1-6.1-18.8-38.2-18.7 38.2-42.1 6.1 30.5 29.7-7.2 41.9 37.7-19.8 37.7 19.8-7.5-41.9z" p-id="6139"></path></svg>