<?xml version="1.0" standalone="no"?><!DOCTYPE svg PUBLIC "-//W3C//DTD SVG 1.1//EN" "http://www.w3.org/Graphics/SVG/1.1/DTD/svg11.dtd"><svg t="1533712940458" class="icon" style="" viewBox="0 0 1024 1024" version="1.1" xmlns="http://www.w3.org/2000/svg" p-id="8732" xmlns:xlink="http://www.w3.org/1999/xlink" ><defs><style type="text/css"></style></defs><path d="M684.4 571.1c-86.8 0-157.2 70.7-157.2 157.9s70.4 157.9 157.2 157.9c86.8 0 157.2-70.7 157.2-157.9-0.1-87.2-70.4-157.9-157.2-157.9z m104.5 122L669.4 812.6c-2.8 2.8-6.7 4.6-11 4.6s-8.2-1.7-11-4.6L579.9 745c-2.8-2.8-4.6-6.7-4.6-11 0-8.6 7-15.6 15.6-15.6 4.3 0 8.2 1.7 11 4.6l56.5 56.5L766.9 671c2.8-2.8 6.7-4.6 11-4.6 8.6 0 15.6 7 15.6 15.6 0 4.4-1.7 8.3-4.6 11.1z" fill="" p-id="8733"></path><path d="M620.6 198.4h-45.8v-21.6c0-22-17.8-39.8-39.8-39.8H414.6c-22 0-39.8 17.8-39.8 39.8v21.6h-46.7v107.2h292.4V198.4zM475 266.1c-24.2 0-43.9-19.6-43.9-43.9s19.6-43.9 43.9-43.9c24.2 0 43.9 19.6 43.9 43.9 0 27.8-19.7 43.9-43.9 43.9z" fill="" p-id="8734"></path><path d="M469.3 721.9c0-111.4 90.3-201.7 201.7-201.7 34.9 0 67.8 8.9 96.4 24.5V265.3c0-14.7-11.9-26.6-26.6-26.6h-71.7v117.5H279.4V238.7h-70.3c-14.7 0-26.6 11.9-26.6 26.6v546.2c0 14.7 11.9 26.6 26.6 26.6h297.2c-23.3-32.9-37-72.9-37-116.2z" fill="" p-id="8735"></path></svg>