<?xml version="1.0" standalone="no"?><!DOCTYPE svg PUBLIC "-//W3C//DTD SVG 1.1//EN" "http://www.w3.org/Graphics/SVG/1.1/DTD/svg11.dtd"><svg t="1533712277645" class="icon" style="" viewBox="0 0 1024 1024" version="1.1" xmlns="http://www.w3.org/2000/svg" p-id="8606" xmlns:xlink="http://www.w3.org/1999/xlink" ><defs><style type="text/css"></style></defs><path d="M684.4 571.1c-86.8 0-157.2 70.7-157.2 157.9s70.4 157.9 157.2 157.9c86.8 0 157.2-70.7 157.2-157.9-0.1-87.2-70.4-157.9-157.2-157.9z m80 215.1c6.3 6.3 6.3 16.5 0 22.9-6.3 6.3-16.5 6.3-22.9 0l-57.2-57.2-57.2 57.2c-6.3 6.3-16.6 6.3-22.8 0-6.3-6.3-6.3-16.6 0-22.9l57.1-57.2-57.1-57.2c-6.3-6.3-6.3-16.5 0-22.8 6.3-6.3 16.5-6.3 22.8 0l57.2 57.2 57.2-57.2c6.3-6.3 16.5-6.3 22.9 0 6.3 6.3 6.3 16.5 0 22.8L707.2 729l57.2 57.2z" fill="" p-id="8607"></path><path d="M620.6 198.4h-45.8v-21.6c0-22-17.8-39.8-39.8-39.8H414.6c-22 0-39.8 17.8-39.8 39.8v21.6h-46.7v107.2h292.4V198.4zM475 266.1c-24.2 0-43.9-19.6-43.9-43.9s19.6-43.9 43.9-43.9c24.2 0 43.9 19.6 43.9 43.9 0 27.8-19.7 43.9-43.9 43.9z" fill="" p-id="8608"></path><path d="M469.3 721.9c0-111.4 90.3-201.7 201.7-201.7 34.9 0 67.8 8.9 96.4 24.5V265.3c0-14.7-11.9-26.6-26.6-26.6h-71.7v117.5H279.4V238.7h-70.3c-14.7 0-26.6 11.9-26.6 26.6v546.2c0 14.7 11.9 26.6 26.6 26.6h297.2c-23.3-32.9-37-72.9-37-116.2z" fill="" p-id="8609"></path></svg>