<?xml version="1.0" standalone="no"?><!DOCTYPE svg PUBLIC "-//W3C//DTD SVG 1.1//EN" "http://www.w3.org/Graphics/SVG/1.1/DTD/svg11.dtd"><svg t="1533636866808" class="icon" style="" viewBox="0 0 1024 1024" version="1.1" xmlns="http://www.w3.org/2000/svg" p-id="9544" xmlns:xlink="http://www.w3.org/1999/xlink" width="16" height="16"><defs><style type="text/css"></style></defs><path d="M684.5 571.1c-86.8 0.1-157.1 70.9-157.1 158.1 0.1 87.2 70.5 157.9 157.3 157.8 86.8-0.1 157.1-70.9 157.1-158.1-0.1-87.2-70.5-157.9-157.3-157.8z m79.7 81.5c0 8.1-3.1 17.5-10.5 17.5h-5.2c-1.2 15.2-3.4 29.3-11.2 40.4-6.4 9.1-13.8 14.9-18.5 19.6-1.2 0.5-0.6-0.1-1 0.3 9 8.2 19.2 14.1 24.9 31.4 1.2 8.1 3 10.9 3.8 25.7h7.5c7.3 0 10.5 5.5 10.5 13.2v2.3c0 7.4-3.1 14.4-10.5 14.4l-139.5 0.1c-7.8 0-9.4-7-9.4-14.4v-2.3c0-7.7 1.8-13.2 9.4-13.2h6.6c0.7-14 2.9-18.7 4.2-25.7 2.8-15.8 16.4-25.4 24.8-31.5 0-0.5-0.1-0.6-0.4-0.6-6.4-4.7-12.9-10-19.3-19.3-7.7-11.1-10.6-25.2-11.1-40.4h-4.8c-7.8 0-9.4-9.4-9.4-17.5v-1.5c0-7.9 5.2-10.6 13.2-10.6l132.3-0.1c7.6 0 13.9 2.7 13.9 10.6l-0.3 1.6z" fill="" p-id="9545"></path><path d="M646.2 690.1c4.6 7.2 10.5 12.3 16 17 6.4 5.5 11.5 9.7 11.5 16.9 0 7.3-5.5 10.6-11.5 15.1-7.5 4.4-16.3 11.7-18.2 20.5-2.1 5-1.8 7.3-3 21.1l85.6-0.1c-1.2-14.3-1.8-15.7-3.3-21.1-2.4-8.9-11.2-15.6-17.5-20-6-4.2-11.1-7.9-11.1-15s4.7-11 11.1-16.7c4.7-4.2 10.1-10.7 14.8-17.3 2.5-3.4 4.8-8.2 4.8-12.9l-83.2 0.1c0.4 4 2.1 9.5 4 12.4z" fill="" p-id="9546"></path><path d="M620.4 198.3h-45.8v-21.6c0-22-17.8-39.7-39.8-39.7l-120.4 0.1c-22 0-39.7 17.8-39.7 39.8v21.6H328l0.1 107.2 292.5-0.2-0.2-107.2z m-145.6 67.8c-24.2 0-43.9-19.6-43.9-43.8 0-24.2 19.6-43.9 43.8-43.9 24.2 0 43.9 19.6 43.9 43.8 0.1 27.8-19.6 43.9-43.8 43.9z" fill="" p-id="9547"></path><path d="M469.4 722.1c-0.1-111.4 90.2-201.8 201.5-201.9 34.9 0 67.8 8.8 96.5 24.5l-0.2-279.6c0-14.7-11.9-26.6-26.6-26.6l-71.7 0.1 0.1 117.6-389.7 0.3-0.1-117.6-70.4 0.1c-14.7 0-26.6 11.9-26.6 26.6l0.4 546.3c0 14.7 11.9 26.6 26.6 26.6l297.2-0.2c-23.1-32.9-36.9-72.9-37-116.2z" fill="" p-id="9548"></path></svg>