<?xml version="1.0" standalone="no"?><!DOCTYPE svg PUBLIC "-//W3C//DTD SVG 1.1//EN" "http://www.w3.org/Graphics/SVG/1.1/DTD/svg11.dtd"><svg t="1532609139139" class="icon" style="" viewBox="0 0 1024 1024" version="1.1" xmlns="http://www.w3.org/2000/svg" p-id="3811" xmlns:xlink="http://www.w3.org/1999/xlink" width="16" height="16"><defs><style type="text/css"></style></defs><path d="M789.9 663.1c-61.5 0-111.4 50.2-111.3 112.1 0 61.8 50 111.9 111.5 111.9s111.4-50.2 111.3-112c-0.1-62-50-112.1-111.5-112z m56.5 57.8c0 5.7-2.2 12.4-7.4 12.4h-3.7c-0.8 10.8-2.4 20.8-7.9 28.7-4.5 6.5-9.7 10.6-13.1 13.9-0.8 0.3-0.4-0.1-0.7 0.2 6.4 5.8 13.6 10 17.6 22.3 0.9 5.7 2.1 7.8 2.7 18.2h5.3c5.2 0 7.4 3.9 7.4 9.4v1.6c0 5.3-2.2 10.2-7.4 10.2l-98.9 0.1c-5.5 0-6.7-4.9-6.7-10.2v-1.6c0-5.5 1.3-9.4 6.7-9.4h4.7c0.5-9.9 2.1-13.3 3-18.2 2-11.2 11.7-18 17.6-22.3 0-0.3-0.1-0.4-0.3-0.4-4.6-3.3-9.1-7.1-13.7-13.7-5.4-7.9-7.5-17.9-7.9-28.6h-3.4c-5.5 0-6.7-6.7-6.7-12.4V720c0-5.6 3.7-7.5 9.3-7.5l93.8-0.1c5.4 0 9.9 1.9 9.9 7.5l-0.2 1z" fill="" p-id="3812"></path><path d="M762.7 747.4c3.3 5.1 7.4 8.7 11.4 12.1 4.6 3.9 8.2 6.9 8.2 11.9 0 5.2-3.9 7.5-8.2 10.7-5.3 3.1-11.6 8.3-12.9 14.6-1.5 3.6-1.3 5.2-2.1 15h60.7c-0.9-10.1-1.3-11.1-2.3-15-1.7-6.3-8-11.1-12.4-14.2-4.3-3-7.9-5.6-7.9-10.7s3.3-7.8 7.8-11.9c3.3-3 7.2-7.6 10.5-12.3 1.7-2.4 3.4-5.8 3.4-9.2h-59c0.3 3.1 1.5 7 2.8 9z" fill="" p-id="3813"></path><path d="M789.9 623.5c14.2 0 27.9 2.1 40.9 5.8V380.5c0-12.2-9.8-22-21.9-22.1H654.5L533.7 237.5c16.7-27.9 10.7-63.8-14.2-84.9-24.9-21-61.4-20.9-86.1 0.4-24.7 21.2-30.4 57.2-13.5 85L299.7 358.4H144.6c-12.2 0.1-21.9 10-21.9 22.1V823c0 12 9.8 22.1 21.9 22.1h511.8c-10.9-21-17.2-44.8-17.2-70.2 0-83.5 67.5-151.4 150.7-151.4zM454.6 266c14.5 5.1 30.3 5 44.8-0.2l92.6 92.6H362.2l92.4-92.4zM211.2 491.2h221.3v44.3H211.2v-44.3z m0 88.5h486.9V624H211.2v-44.3z m354.1 132.8H211.2v-44.3h354.1v44.3z" fill="" p-id="3814"></path></svg>