<?xml version="1.0" standalone="no"?><!DOCTYPE svg PUBLIC "-//W3C//DTD SVG 1.1//EN" "http://www.w3.org/Graphics/SVG/1.1/DTD/svg11.dtd"><svg t="1530514965516" class="icon" style="" viewBox="0 0 1024 1024" version="1.1" xmlns="http://www.w3.org/2000/svg" p-id="6385" xmlns:xlink="http://www.w3.org/1999/xlink" width="16" height="16"><defs><style type="text/css"></style></defs><path d="M705.4 546.5c-95.4 0-172.7 77.7-172.7 173.6 0 95.8 77.3 173.6 172.7 173.6 95.4 0 172.7-77.7 172.7-173.6 0-95.9-77.3-173.6-172.7-173.6z m87.6 89.6c0 8.8-3.5 19.2-11.5 19.2h-5.8c-1.3 16.7-3.8 32.2-12.3 44.4-7.1 10-15.1 16.4-20.4 21.5-1.3 0.5-0.7-0.2-1.2 0.3 9.9 9 21 15.5 27.3 34.6 1.3 8.8 3.3 12 4.1 28.2h8.2c8.1 0 11.5 6 11.5 14.5v2.5c0 8.2-3.5 15.9-11.5 15.9H628.2c-8.5 0-10.4-7.7-10.4-15.9v-2.5c0-8.5 2-14.5 10.4-14.5h7.2c0.8-15.4 3.2-20.5 4.6-28.2 3.1-17.4 18.1-27.9 27.3-34.6 0-0.5-0.2-0.7-0.5-0.7-7.1-5.2-14.2-11-21.2-21.2-8.4-12.2-11.7-27.7-12.2-44.4h-5.3c-8.5 0-10.4-10.4-10.4-19.2v-1.7c0-8.7 5.8-11.7 14.5-11.7h145.4c8.4 0 15.3 3 15.3 11.7v1.8z" p-id="6386"></path><path d="M663.2 677.2c5.1 7.9 11.5 13.5 17.6 18.7 7.1 6 12.7 10.7 12.7 18.5 0 8-6.1 11.7-12.7 16.5-8.2 4.8-17.9 12.9-20.1 22.5-2.3 5.5-2 8-3.3 23.2h94.1c-1.3-15.7-2-17.3-3.6-23.2-2.7-9.8-12.3-17.2-19.2-22-6.6-4.7-12.2-8.7-12.2-16.5 0-7.8 5.2-12.1 12.2-18.4 5.2-4.6 11.1-11.8 16.3-19 2.7-3.8 5.3-9 5.3-14.2h-91.4c0.4 4.7 2.3 10.8 4.3 13.9z" p-id="6387"></path><path d="M145.9 130.4h646.4v389.5c-28.1-12.9-59.5-20.1-92.3-20.1-60.9 0-116.2 24.6-156.4 64.6H413.7v36.9h100.1c-22.5 34.5-35.5 75.7-35.5 120 0 3.1 0 6.1 0.4 9.2h-65V749h66.5c4.6 37.7 18.7 72.2 39.7 101.6h-374V130.4z m80.3 157.7L219 330l37.7-19.8 37.7 19.8-7.2-41.9 30.5-29.7-42.1-6.1-18.8-38.2-18.8 38.2-42.3 6.1 30.5 29.7z m501.4-37.6h-314v55.4h314v-55.4z m0 203.1v-36.9h-314v36.9h314z m-440.5-17.7l30.5-29.7-42.1-6.1-18.8-38.2-18.9 38.1-42.3 6.1 30.7 29.7-7.2 41.9 37.7-19.8 37.7 19.8-7.3-41.8z m0 147.7l30.5-29.7-42.1-6.1-18.8-38.2-18.8 38.2-42.3 6.1 30.7 29.7-7.2 41.9 37.7-19.8 37.7 19.8-7.4-41.9z m0 147.8l30.5-29.7-42.1-6.1-18.8-38.2-18.8 38.2-42.3 6.1 30.7 29.7-7.2 41.9 37.7-19.8 37.7 19.8-7.4-41.9z" p-id="6388"></path></svg>