<?xml version="1.0" standalone="no"?><!DOCTYPE svg PUBLIC "-//W3C//DTD SVG 1.1//EN" "http://www.w3.org/Graphics/SVG/1.1/DTD/svg11.dtd"><svg t="1533208303666" class="icon" style="" viewBox="0 0 1024 1024" version="1.1" xmlns="http://www.w3.org/2000/svg" p-id="10478" xmlns:xlink="http://www.w3.org/1999/xlink" ><defs><style type="text/css"></style></defs><path d="M237.3 428.2c-46.1 0-83.4 37.3-83.4 83.4 0 46.1 37.3 83.4 83.4 83.4s83.4-37.3 83.4-83.4c0-46.1-37.3-83.4-83.4-83.4z m266 0c-46 0-83.4 37.3-83.4 83.4 0 46.1 37.3 83.4 83.4 83.4 46.1 0 83.4-37.3 83.4-83.4-0.1-46.1-37.4-83.4-83.4-83.4z m282.5 0c-46.1 0-83.4 37.3-83.4 83.4 0 46.1 37.3 83.4 83.4 83.4 46 0 83.4-37.3 83.4-83.4 0-46.1-37.3-83.4-83.4-83.4z m0 0" p-id="10479" fill="#4a7ec0"></path></svg>