<?xml version="1.0" standalone="no"?><!DOCTYPE svg PUBLIC "-//W3C//DTD SVG 1.1//EN" "http://www.w3.org/Graphics/SVG/1.1/DTD/svg11.dtd"><svg t="1531291524240" class="icon" style="" viewBox="0 0 1024 1024" version="1.1" xmlns="http://www.w3.org/2000/svg" p-id="3468" xmlns:xlink="http://www.w3.org/1999/xlink" width="16" height="16"><defs><style type="text/css"></style></defs><path d="M808.448 803.328H230.4c-54.272 0-98.816-44.544-98.816-98.816V319.488c0-54.272 44.544-98.816 98.816-98.816h577.536c54.272 0 98.816 44.544 98.816 98.816v385.024c0.512 54.784-44.032 98.816-98.304 98.816zM230.4 225.792c-51.712 0-93.696 41.984-93.696 93.696v385.024c0 51.712 41.984 93.696 93.696 93.696h577.536c51.712 0 93.696-41.984 93.696-93.696V319.488c0-51.712-41.984-93.696-93.696-93.696H230.4z" p-id="3469"></path><path d="M659.968 435.2c0-71.168-67.584-128.512-141.824-128.512S378.88 364.032 378.88 435.2c0 65.536 139.264 223.232 139.264 223.232s141.824-154.624 141.824-223.232z m-186.368 4.096c0-24.576 21.504-44.032 47.104-44.032s47.104 18.944 47.104 44.032-21.504 44.032-47.104 44.032-47.104-19.456-47.104-44.032z m91.648 223.232v4.096c0 12.288-21.504 22.016-47.104 22.016-25.6 0-47.104-9.728-47.104-22.016v-4.096c-28.672 5.632-47.104 14.848-47.104 26.112 1.536 14.848 44.544 28.672 96.256 28.672s94.72-13.824 94.72-28.672c-1.024-10.752-20.992-20.48-49.664-26.112z" p-id="3470"></path></svg>