<?xml version="1.0" standalone="no"?><!DOCTYPE svg PUBLIC "-//W3C//DTD SVG 1.1//EN" "http://www.w3.org/Graphics/SVG/1.1/DTD/svg11.dtd"><svg t="1532586919217" class="icon" style="" viewBox="0 0 1024 1024" version="1.1" xmlns="http://www.w3.org/2000/svg" p-id="3453" xmlns:xlink="http://www.w3.org/1999/xlink" width="16" height="16"><defs><style type="text/css"></style></defs><path d="M790.1 745.9c-16.9 0-29.2 12.8-29.2 29.1 0 16.4 12.2 29.2 29.2 29.2 16.9 0 29.1-12.8 29.1-29.2s-12.2-29.1-29.1-29.1z m0 46.6c-9.7 0-17.5-8.1-17.5-17.5s7.8-17.5 17.5-17.5 17.5 8.1 17.5 17.5c-0.1 9.4-7.9 17.5-17.5 17.5z" fill="" p-id="3454"></path><path d="M789.9 663.1c-61.5 0-111.4 50.1-111.4 112 0 61.8 49.9 112 111.4 112 61.5 0 111.4-50.1 111.4-112 0.1-61.9-49.8-112-111.4-112z m0.1 158.6c-52.1 0-70-46.6-70-46.6s23.8-46.6 70-46.6c47 0 70 46.8 70 46.8s-22.9 46.4-70 46.4z" fill="" p-id="3455"></path><path d="M789.9 623.5c14.2 0 27.9 2.1 40.9 5.8V380.5c0-12.2-9.8-22-21.9-22.1H654.5L533.7 237.5c16.7-27.9 10.7-63.8-14.2-84.9-24.9-21-61.4-20.9-86.1 0.4-24.7 21.2-30.4 57.2-13.5 85L299.7 358.4H144.6c-12.2 0.1-21.9 10-21.9 22.1V823c0 12 9.8 22.1 21.9 22.1h511.8c-10.9-21-17.2-44.8-17.2-70.2-0.1-83.5 67.5-151.4 150.7-151.4zM454.6 266c14.5 5.1 30.3 5 44.8-0.2l92.6 92.6H362.2l92.4-92.4zM211.2 491.2h221.3v44.3H211.2v-44.3z m0 88.5H698V624H211.2v-44.3z m354.1 132.8H211.2v-44.3h354.1v44.3z" fill="" p-id="3456"></path></svg>