<?xml version="1.0" standalone="no"?><!DOCTYPE svg PUBLIC "-//W3C//DTD SVG 1.1//EN" "http://www.w3.org/Graphics/SVG/1.1/DTD/svg11.dtd"><svg t="1531133922107" class="icon" style="" viewBox="0 0 1024 1024" version="1.1" xmlns="http://www.w3.org/2000/svg" p-id="7240" xmlns:xlink="http://www.w3.org/1999/xlink" width="16" height="16"><defs><style type="text/css"></style></defs><path d="M548.3 548.9l326.2 3.3c20.2 0.2 36.7-16 36.9-36.2 0.2-20.2-16-36.7-36.2-36.9l-326.5-3.3 2.2-326.5c0.1-20.2-16.1-36.7-36.3-36.8-20.2-0.1-36.7 16.1-36.8 36.3L475.6 475l-326.2-3.3c-20.2-0.2-36.7 16-36.9 36.2-0.2 20.2 16 36.7 36.2 36.9l326.5 3.3-2.2 326.6c-0.1 20.2 16.1 36.7 36.3 36.8 20.2 0.1 36.7-16.1 36.8-36.3l2.2-326.3z m0 0" p-id="7241"></path></svg>