<?xml version="1.0" encoding="utf-8"?>
<!-- Generator: Adobe Illustrator 21.0.0, SVG Export Plug-In . SVG Version: 6.00 Build 0)  -->
<svg version="1.1" id="图层_1" xmlns="http://www.w3.org/2000/svg" xmlns:xlink="http://www.w3.org/1999/xlink" x="0px" y="0px"
	 viewBox="0 0 200 200" style="enable-background:new 0 0 200 200;" xml:space="preserve">
<style type="text/css">
	.st0{opacity:0.1;fill:#FFFFFF;}
	.st1{fill:#D8D8D8;}
	.st2{fill:#D9D9D9;}
	.st3{fill:#DADADA;}
	.st4{fill:#DBDBDB;}
	.st5{fill:#DCDCDC;}
	.st6{fill:#DDDDDD;}
	.st7{fill:#DEDEDE;}
	.st8{fill:#DFDFDF;}
	.st9{fill:#E0E0E0;}
	.st10{fill:#E1E1E1;}
	.st11{fill:#E2E2E2;}
	.st12{fill:#E3E3E3;}
	.st13{fill:#E4E4E4;}
	.st14{fill:#E5E5E5;}
	.st15{fill:#E6E6E6;}
	.st16{fill:#E7E7E7;}
	.st17{fill:#E8E8E8;}
	.st18{fill:#E9E9E9;}
	.st19{fill:#EAEAEA;}
	.st20{fill:#EBEBEB;}
	.st21{fill:#ECECEC;}
	.st22{fill:#EDEDED;}
	.st23{fill:#EEEEEE;}
	.st24{fill:#EFEFEF;}
	.st25{fill:#F0F0F0;}
	.st26{fill:#F1F1F1;}
	.st27{fill:#F2F2F2;}
	.st28{fill:#F3F3F3;}
	.st29{fill:#F4F4F4;}
	.st30{fill:#F5F5F5;}
	.st31{fill:#F6F6F6;}
	.st32{fill:#F7F7F7;}
	.st33{fill:#F8F8F8;}
	.st34{fill:#F9F9F9;}
	.st35{fill:#FAFAFA;}
	.st36{fill:#FBFBFB;}
	.st37{fill:#FCFCFC;}
	.st38{fill:#FDFDFD;}
	.st39{fill:#FEFEFE;}
	.st40{fill:#FFFFFF;}
	.st41{fill:url(#SVGID_1_);}
	.st42{fill:none;stroke:url(#SVGID_2_);stroke-width:12;stroke-miterlimit:10;}
	.st43{fill:#F6AD14;}
</style>
<circle class="st0" cx="100" cy="100" r="90.5"/>
<g>
	<circle class="st1" cx="100" cy="100" r="73.5"/>
	<circle class="st2" cx="100" cy="100" r="73.4"/>
	<circle class="st3" cx="100" cy="100" r="73.3"/>
	<circle class="st4" cx="100" cy="100" r="73.2"/>
	<circle class="st5" cx="100" cy="100" r="73.1"/>
	<circle class="st6" cx="100" cy="100" r="72.9"/>
	<circle class="st7" cx="100" cy="100" r="72.8"/>
	<circle class="st8" cx="100" cy="100" r="72.7"/>
	<circle class="st9" cx="100" cy="100" r="72.6"/>
	<circle class="st10" cx="100" cy="100" r="72.5"/>
	<circle class="st11" cx="100" cy="100" r="72.4"/>
	<circle class="st12" cx="100" cy="100" r="72.2"/>
	<circle class="st13" cx="100" cy="100" r="72.1"/>
	<circle class="st14" cx="100" cy="100" r="72"/>
	<circle class="st15" cx="100" cy="100" r="71.9"/>
	<circle class="st16" cx="100" cy="100" r="71.8"/>
	<circle class="st17" cx="100" cy="100" r="71.7"/>
	<circle class="st18" cx="100" cy="100" r="71.5"/>
	<circle class="st19" cx="100" cy="100" r="71.4"/>
	<circle class="st20" cx="100" cy="100" r="71.3"/>
	<circle class="st20" cx="100" cy="100" r="71.2"/>
	<circle class="st21" cx="100" cy="100" r="71.1"/>
	<circle class="st22" cx="100" cy="100" r="71"/>
	<circle class="st23" cx="100" cy="100" r="70.8"/>
	<circle class="st24" cx="100" cy="100" r="70.7"/>
	<circle class="st25" cx="100" cy="100" r="70.6"/>
	<circle class="st26" cx="100" cy="100" r="70.5"/>
	<circle class="st27" cx="100" cy="100" r="70.4"/>
	<circle class="st28" cx="100" cy="100" r="70.3"/>
	<circle class="st29" cx="100" cy="100" r="70.1"/>
	<circle class="st30" cx="100" cy="100" r="70"/>
	<circle class="st31" cx="100" cy="100" r="69.9"/>
	<circle class="st32" cx="100" cy="100" r="69.8"/>
	<circle class="st33" cx="100" cy="100" r="69.7"/>
	<circle class="st34" cx="100" cy="100" r="69.6"/>
	<circle class="st35" cx="100" cy="100" r="69.4"/>
	<circle class="st36" cx="100" cy="100" r="69.3"/>
	<circle class="st37" cx="100" cy="100" r="69.2"/>
	<circle class="st38" cx="100" cy="100" r="69.1"/>
	<circle class="st39" cx="100" cy="100" r="69"/>
	<circle class="st40" cx="100" cy="100" r="68.9"/>
</g>
<linearGradient id="SVGID_1_" gradientUnits="userSpaceOnUse" x1="100" y1="26.4688" x2="100" y2="173.5313">
	<stop  offset="0" style="stop-color:#FFFFFF"/>
	<stop  offset="1" style="stop-color:#FFFFFF;stop-opacity:0"/>
</linearGradient>
<circle class="st41" cx="100" cy="100" r="73.5"/>
<linearGradient id="SVGID_2_" gradientUnits="userSpaceOnUse" x1="100" y1="166.6584" x2="100" y2="33.3416">
	<stop  offset="0" style="stop-color:#FCD86E"/>
	<stop  offset="0.2592" style="stop-color:#FCD971"/>
	<stop  offset="0.423" style="stop-color:#FCDB79"/>
	<stop  offset="0.5603" style="stop-color:#FDDF88"/>
	<stop  offset="0.6829" style="stop-color:#FDE59D"/>
	<stop  offset="0.7958" style="stop-color:#FEECB8"/>
	<stop  offset="0.9001" style="stop-color:#FEF5D8"/>
	<stop  offset="0.9986" style="stop-color:#FFFFFE"/>
	<stop  offset="1" style="stop-color:#FFFFFF"/>
</linearGradient>
<circle class="st42" cx="100" cy="100" r="60.7"/>
<g>
	<path class="st43" d="M76.5,89.3c-0.1,1.6-0.1,3.2-0.1,4.7v5c0,1.9,0,3.8,0.1,5.6h-3v-2H55.7v9.1c-0.2,2.2,0.9,3.2,3.4,3.1h13.4
		c1.5,0.1,2.6-0.1,3.2-0.7c0.6-0.5,1-2.1,1.3-4.6c1,0.6,2.1,1.1,3.4,1.5c-0.5,2.4-1.2,4.1-1.8,5c-0.7,0.9-1.7,1.3-2.9,1.4H57.4
		c-3.3,0.1-4.8-1.3-4.6-4.2v-11.7c0-0.9,0-2.6-0.1-5h3.3c-0.1,1.3-0.1,2.5-0.1,3.8h17.8v-8.5H58.5c-2.1,0-4.4,0-7.1,0.1v-2.7
		c2.6,0.1,4.9,0.1,6.9,0.1H76.5z"/>
	<path class="st43" d="M107.7,103.5v2.4c-1.6-0.1-3.2-0.1-4.7-0.1h-5.3c-1.6,0-3.3,0-5,0.1v-2.3c-2.4,1.3-4.7,2.2-6.8,2.8
		c-0.4-1.1-1-2-1.9-2.7c4.2-0.9,7.5-2.3,10-4.1c2.5-1.9,4-3.5,4.7-4.9c0.9,0.4,2,0.7,3.3,0.9l-0.5,0.7c2.3,2.1,4.8,3.7,7.7,4.8
		c2.8,1.1,5.3,1.7,7.3,1.7c-0.8,0.9-1.3,1.9-1.4,3.1C111.4,105,109,104.2,107.7,103.5z M100.3,91.7c-1.8-0.1-3.4-0.1-4.9-0.1
		c0.4,1,0.8,2,1.2,3c-1.1,0.3-2,0.6-2.7,0.9c-0.2-1.1-0.5-2.4-0.9-3.9h-1.5c-1.5,2-3,3.6-4.5,4.9c-0.7-0.8-1.6-1.4-2.6-1.9
		c2.1-1.3,3.6-2.7,4.7-4.3c1-1.6,1.7-3,2.1-4.1c0.9,0.4,1.9,0.7,3.1,1.1c-0.6,0.5-1.1,1.2-1.5,2H97c1.1,0,2.2,0,3.3-0.1V91.7z
		 M90.9,117.8c-1.5,0-3.2,0-4.9,0.1v-2.6c1.8,0.1,3.4,0.1,4.7,0.1h12.6c0.5-1.1,1.1-2.4,1.8-4.1c0.6-1.6,1.1-3.1,1.5-4.5
		c1,0.5,2.1,0.8,3.3,1.1c-0.6,0.5-1.2,1.5-1.8,2.8c-0.5,1.3-1.2,2.9-1.9,4.7c2.4,0,4.9,0,7.5-0.1v2.6c-2.5-0.1-4.4-0.1-5.7-0.1H90.9
		z M95,113.4c-0.7,0.2-1.4,0.5-2.2,0.9c-0.4-1.4-1.2-3.2-2.4-5.3c0.5-0.3,1.2-0.6,2.2-1.1C93.7,110.2,94.5,112,95,113.4z
		 M97.7,103.5h5.3c1.5,0,3,0,4.5-0.1c-2.5-1.1-5.1-2.9-7.7-5.6c-1.3,1.8-3.4,3.7-6.5,5.6C94.7,103.5,96.2,103.5,97.7,103.5z
		 M97.4,107.7c0.7-0.1,1.5-0.3,2.4-0.5c0.4,1.1,0.9,3.1,1.6,6.1c-0.9,0.1-1.7,0.3-2.4,0.5C98.8,112.2,98.2,110.2,97.4,107.7z
		 M108.8,96.1c-0.2-1.4-0.5-2.8-1.1-4.2h-2.6c-1,1.3-1.9,2.4-2.7,3.4c-0.8-0.6-1.7-1.1-2.6-1.4c1.3-1.1,2.3-2.3,3.1-3.5
		c0.8-1.3,1.4-2.6,2-4.1c0.8,0.5,1.8,0.8,2.8,1.1c-0.5,0.6-1,1.4-1.4,2.3h5c0.9,0,2.2,0,3.8-0.1V92c-2.4-0.1-4.2-0.1-5.2-0.1
		c0.4,0.8,0.8,1.9,1.4,3.1C110.5,95.3,109.6,95.7,108.8,96.1z"/>
	<path class="st43" d="M125.7,115.9c-2.7,0.5-4.5,0.9-5.6,1.2c-0.3-1.2-0.6-2.3-0.9-3.4c1.6-0.1,3-0.2,4-0.3c1-0.1,2.3-0.2,3.7-0.4
		v-5.3H125c-1.8,0-3.3,0.1-4.6,0.3v-2.6c1.5,0.1,2.9,0.1,4.2,0.1h2.3v-4.5c-1.8,0.1-3.1,0.2-3.9,0.3c-0.8,0.1-1.6,0.2-2.5,0.4
		c-0.2-1.2-0.5-2.2-0.8-3.1c1.4-0.4,2.7-1.3,3.9-2.7c1.1-1.4,2-3.1,2.6-4.9h-2c-1.5,0-3,0-4.3,0.1v-2.6c1.4,0.1,2.8,0.1,4.2,0.1h8.7
		c1.6,0,3.1,0,4.3-0.1v2.6c-1.4-0.1-2.8-0.1-4.3-0.1h-5.6l2.4,1.6c-0.9,0.7-1.8,1.6-2.6,2.7c-0.8,1.1-1.8,2.3-2.8,3.5
		c3.3-0.2,6.3-0.4,9.1-0.5c-0.7-1.2-1.5-2.4-2.4-3.5c0.9-0.5,1.7-0.9,2.4-1.5c0.9,1.3,1.8,2.5,2.6,3.7c0.8,1.2,1.6,2.3,2.3,3.3
		c-0.8,0.6-1.7,1.2-2.7,1.8c-0.4-0.6-0.7-1.2-0.9-1.6c-1.9,0.3-3.5,0.5-4.7,0.5v4.6h2.6c1.5,0,2.8,0,3.9-0.1v2.6
		c-1.2-0.2-2.4-0.3-3.8-0.3h-2.7v5c2.5-0.4,5.2-0.8,8-1.2c-0.2,0.9-0.3,1.8-0.4,2.6C132.2,114.8,128.4,115.4,125.7,115.9z M142,96.1
		v10.2c0,1.9,0,3.5,0.1,4.7h-2.8c0.1-1.3,0.1-2.8,0.1-4.7V95.5c0-1.8,0-3.3-0.1-4.3h3C142.1,92.4,142,94,142,96.1z M149,91.5v22.2
		c0,2.1-0.4,3.3-1.2,3.7c-0.8,0.4-2.4,0.8-4.9,1.2c-0.3-1.2-0.7-2.3-1.2-3.3c1.9,0,3.1-0.1,3.7-0.2c0.6-0.1,0.9-0.9,0.9-2.2V91.5
		c0-2,0-3.5-0.1-4.6h3.1C149,88.2,149,89.7,149,91.5z"/>
</g>
</svg>
