<?xml version="1.0" standalone="no"?><!DOCTYPE svg PUBLIC "-//W3C//DTD SVG 1.1//EN" "http://www.w3.org/Graphics/SVG/1.1/DTD/svg11.dtd"><svg t="1531136322234" class="icon" style="" viewBox="0 0 1024 1024" version="1.1" xmlns="http://www.w3.org/2000/svg" p-id="17639" xmlns:xlink="http://www.w3.org/1999/xlink" width="16" height="16"><defs><style type="text/css"></style></defs><path d="M512 950.7c-258.4 0-465.4-224.6-435.9-488.9C98.5 260.9 261 98.5 461.9 76.1 726.1 46.6 950.7 253.6 950.7 512c0 32.5-3.6 64.8-10.6 96.2-4.1 18.1-22 29.5-40.2 25.5-18.1-4.1-29.6-22-25.5-40.2 5.9-26.6 9-54 9-81.5 0-210.7-176.3-381-389.2-371-188.9 8.9-344.4 164.4-353.2 353.3-9.9 212.8 160.3 389.1 371 389.1 35.1 0 69.9-4.9 103.2-14.5 17.8-5.2 36.5 5.1 41.7 23 5.1 17.9-5.2 36.5-23 41.6-39.4 11.4-80.4 17.2-121.9 17.2z" p-id="17640"></path><path d="M769.3 815.1c0 14 5.7 27.8 15.6 37.7 9.9 9.9 23.7 15.6 37.7 15.6 14 0 27.8-5.7 37.7-15.6 9.9-9.9 15.6-23.7 15.6-37.7 0-14-5.7-27.8-15.6-37.7-9.9-9.9-23.7-15.6-37.7-15.6-14 0-27.8 5.7-37.7 15.6-9.8 9.9-15.6 23.7-15.6 37.7z" p-id="17641"></path><path d="M438.7 490.1c5.1-5.1 16.7-3.9 21.7-3.9h25.8v-116c0-14.2 11.6-25.8 25.8-25.8 14.2 0 25.8 11.6 25.8 25.8v116h25.8c9.1 0 17.1-1.2 22.2 3.9 5 5.1 5 13.3 0 18.4L522 585.7c-2.7 2.7-6.3 3.9-9.8 3.7-3.5 0.2-7.1-1-9.8-3.7l-63.7-77.2c-5.1-5.1-5.1-13.4 0-18.4z" p-id="17642"></path><path d="M705.4 666.7c0 7-5.1 12.9-12.9 12.9h-361c-7.1 0-12.9-5.8-12.9-12.9v-90.3c0-14.2 11.6-25.8 25.8-25.8 14.2 0 25.8 11.6 25.8 25.8V628h283.7v-51.6c0-14.2 11.6-25.8 25.8-25.8 14.2 0 25.8 11.6 25.8 25.8v90.3z" p-id="17643"></path></svg>