<?xml version="1.0" standalone="no"?><!DOCTYPE svg PUBLIC "-//W3C//DTD SVG 1.1//EN" "http://www.w3.org/Graphics/SVG/1.1/DTD/svg11.dtd"><svg t="1530874590802" class="icon" style="" viewBox="0 0 1024 1024" version="1.1" xmlns="http://www.w3.org/2000/svg" p-id="2613" xmlns:xlink="http://www.w3.org/1999/xlink" width="16" height="16"><defs><style type="text/css"></style></defs><path d="M512 858.9c-191.3 0-346.9-155.6-346.9-346.9 0-191.3 155.6-346.8 346.9-346.8S858.9 320.7 858.9 512c0 25.7-2.8 51.3-8.4 76.1-3.2 14.3-17.4 23.3-31.8 20.2-14.3-3.2-23.4-17.4-20.2-31.8 4.7-21 7.1-42.7 7.1-64.5 0-161.9-131.7-293.7-293.6-293.7-161.9 0-293.7 131.7-293.7 293.7 0 161.9 131.7 293.6 293.7 293.6 27.8 0 55.2-3.9 81.6-11.5 14.1-4.1 28.8 4.1 32.9 18.2 4.1 14.1-4.1 28.9-18.2 32.9-31.1 9.1-63.5 13.6-96.3 13.7z" fill="" p-id="2614"></path><path d="M715.5 751.7c0 11 4.5 22 12.3 29.8 7.8 7.8 18.8 12.3 29.8 12.3s22-4.5 29.8-12.3c7.8-7.8 12.3-18.8 12.3-29.8s-4.5-22-12.3-29.8c-7.8-7.8-18.8-12.3-29.8-12.3s-22 4.5-29.8 12.3c-7.8 7.8-12.3 18.7-12.3 29.8z" fill="" p-id="2615"></path><path d="M512 362c18.7 0 33.8 15 33.8 33.5v156c0 18.5-15.1 33.5-33.8 33.5-18.6 0-33.8-15-33.8-33.5v-156c0-18.5 15.1-33.5 33.8-33.5z m0 0M512 629.5c18.7 0 33.8 15 33.8 33.5s-15.1 33.4-33.8 33.4c-18.6 0-33.8-15-33.8-33.4 0-18.5 15.1-33.5 33.8-33.5z m0 0" fill="" p-id="2616"></path></svg>