<?xml version="1.0" standalone="no"?><!DOCTYPE svg PUBLIC "-//W3C//DTD SVG 1.1//EN" "http://www.w3.org/Graphics/SVG/1.1/DTD/svg11.dtd"><svg t="1533880831494" class="icon" style="" viewBox="0 0 1024 1024" version="1.1" xmlns="http://www.w3.org/2000/svg" p-id="3687" xmlns:xlink="http://www.w3.org/1999/xlink" width="16" height="16"><defs><style type="text/css"></style></defs><path d="M789.504 836.096c0 14.336 6.144 28.672 15.872 38.912 10.24 10.24 24.576 15.872 38.912 15.872s28.672-6.144 38.912-15.872c10.24-10.24 15.872-24.576 15.872-38.912s-6.144-28.672-15.872-38.912c-10.24-10.24-24.576-15.872-38.912-15.872s-28.672 6.144-38.912 15.872c-10.24 10.752-15.872 24.576-15.872 38.912zM512 950.784c-241.664 0-438.784-196.608-438.784-438.784 0-241.664 196.608-438.784 438.784-438.784s438.784 196.608 438.784 438.784c0 32.256-3.584 65.024-10.752 96.256-4.096 17.92-22.016 29.696-39.936 25.6-17.92-4.096-29.696-22.016-25.6-39.936 6.144-26.624 8.704-53.76 8.704-81.408 0-204.8-166.4-371.2-371.2-371.2C307.2 140.8 140.8 307.2 140.8 512c0 204.8 166.4 371.2 371.2 371.2 35.328 0 69.632-5.12 103.424-14.336 17.92-5.12 36.352 5.12 41.472 23.04s-5.12 36.352-23.04 41.472c-39.424 11.776-80.384 17.408-121.856 17.408z" fill="" p-id="3688"></path><path d="M522.24 621.568H331.264c-18.432 0-33.792-14.848-33.792-33.792 0-18.432 14.848-33.792 33.792-33.792h189.44l21.504 45.056-19.968 22.528z" fill="" p-id="3689"></path><path d="M476.16 555.008V320c0-18.432 14.848-33.792 33.792-33.792 10.24 0 18.944 4.608 25.088 11.264 5.12 6.144 8.192 13.824 8.192 22.016l0.512 243.2v58.88H476.16v-66.56z" fill="" p-id="3690"></path></svg>