<?xml version="1.0" standalone="no"?><!DOCTYPE svg PUBLIC "-//W3C//DTD SVG 1.1//EN" "http://www.w3.org/Graphics/SVG/1.1/DTD/svg11.dtd"><svg t="1533630446462" class="icon" style="" viewBox="0 0 1024 1024" version="1.1" xmlns="http://www.w3.org/2000/svg" p-id="5699" xmlns:xlink="http://www.w3.org/1999/xlink"><defs><style type="text/css"></style></defs><path d="M512 73.3C270.1 73.3 73.3 270.1 73.3 512c0 241.9 196.8 438.7 438.7 438.7 41.4 0 82.4-5.8 121.9-17.2 17.9-5.1 28.1-23.8 23-41.6-5.2-17.9-23.9-28.2-41.7-23-33.4 9.6-68.1 14.5-103.2 14.5-204.8 0-371.4-166.6-371.4-371.4 0-204.8 166.6-371.4 371.4-371.4 204.8 0 371.4 166.6 371.4 371.4 0 27.5-3 55-9 81.5-4.1 18.1 7.4 36.1 25.5 40.2 18.2 4 36.1-7.4 40.2-25.5 7-31.4 10.6-63.8 10.6-96.2 0-241.9-196.8-438.7-438.7-438.7z" p-id="5700" fill="#3c8fe8"></path><path d="M822.6 761.8c-14 0-27.8 5.7-37.7 15.6-9.9 9.9-15.6 23.7-15.6 37.7 0 14 5.7 27.8 15.6 37.7 9.9 9.9 23.7 15.6 37.7 15.6 14 0 27.8-5.7 37.7-15.6 9.9-9.9 15.6-23.7 15.6-37.7 0-14-5.7-27.8-15.6-37.7-9.8-9.9-23.7-15.6-37.7-15.6zM302.3 700.9c-1.7 8.9 0.3 18.7 5.5 26.3 4.7 6.9 11.5 11.4 19.2 12.9l6.2 0.3c16.4 0 29.5-10.7 32.5-26 16.2-68.3 77.3-118 147-118 85.9 0 155.7-69.9 155.7-155.7 0-86.8-70.6-157.4-157.4-157.4S353.4 354 353.4 440.8c0 45.3 20.7 88.7 55.3 118.4-54.5 30.9-93.6 82.3-106.4 141.7z m101.9-260.1c0-58.8 47.8-106.6 106.7-106.6 58.8 0 106.6 47.8 106.6 106.6s-47.8 106.7-106.6 106.7c-58.8-0.1-106.7-47.9-106.7-106.7zM652.3 599.1l-9.5-6.4c-7.2-4.4-15.3-5.7-23.1-3.8-7.5 1.9-13.7 6.7-17.5 13.2-4.1 6.7-5.5 14.5-4.1 21.8 1.6 8 6.4 14.8 12.9 18.7l8 5.3c22.9 16.8 40.1 42.7 45.9 68.9 2.7 14 14.5 23.8 28.9 23.8h4.2l1.5-0.3c7.9-1.5 15.1-6.9 19.2-14.4 4.1-7.3 4.8-15.7 2.6-21.2-10.5-43.1-34.9-80.6-69-105.6z" p-id="5701" fill="#3c8fe8"></path></svg>