<?xml version="1.0" standalone="no"?><!DOCTYPE svg PUBLIC "-//W3C//DTD SVG 1.1//EN" "http://www.w3.org/Graphics/SVG/1.1/DTD/svg11.dtd"><svg t="1531136235107" class="icon" style="" viewBox="0 0 1024 1024" version="1.1" xmlns="http://www.w3.org/2000/svg" p-id="17514" xmlns:xlink="http://www.w3.org/1999/xlink" width="16" height="16"><defs><style type="text/css"></style></defs><path d="M670.3 627.1c12.5 12.7 12.5 33.3 0 46-12.5 12.7-32.7 12.7-45.2 0L512 558 399 673.1c-12.5 12.7-32.7 12.7-45.2 0s-12.5-33.3 0-46l113-115.1-113-115.1c-12.5-12.7-12.5-33.3 0-46 12.4-12.7 32.7-12.7 45.2 0L512 466l113-115.1c12.5-12.7 32.7-12.7 45.2 0s12.5 33.3 0 46L557.2 512l113.1 115.1z" p-id="17515"></path><path d="M512 950.7C270.1 950.7 73.3 753.9 73.3 512 73.3 269.9 269.9 73.3 512 73.3c241.9 0 438.7 196.8 438.7 438.7 0 32.5-3.6 64.8-10.6 96.2-4.1 18.1-22 29.5-40.2 25.5-18.1-4.1-29.6-22-25.5-40.2 5.9-26.6 9-54 9-81.5 0-204.8-166.6-371.4-371.4-371.4-204.8 0-371.4 166.6-371.4 371.4 0 204.8 166.6 371.4 371.4 371.4 35.1 0 69.9-4.9 103.2-14.5 17.8-5.2 36.5 5.1 41.7 23 5.1 17.9-5.2 36.5-23 41.6-39.4 11.4-80.4 17.2-121.9 17.2z" p-id="17516"></path><path d="M769.3 815.1c0 14 5.7 27.8 15.6 37.7 9.9 9.9 23.7 15.6 37.7 15.6 14 0 27.8-5.7 37.7-15.6 9.9-9.9 15.6-23.7 15.6-37.7 0-14-5.7-27.8-15.6-37.7-9.9-9.9-23.7-15.6-37.7-15.6-14 0-27.8 5.7-37.7 15.6-9.8 9.9-15.6 23.7-15.6 37.7z" p-id="17517"></path></svg>