<?xml version="1.0" standalone="no"?><!DOCTYPE svg PUBLIC "-//W3C//DTD SVG 1.1//EN" "http://www.w3.org/Graphics/SVG/1.1/DTD/svg11.dtd"><svg t="1531226522541" class="icon" style="" viewBox="0 0 1024 1024" version="1.1" xmlns="http://www.w3.org/2000/svg" p-id="3391" xmlns:xlink="http://www.w3.org/1999/xlink" width="16" height="16"><defs><style type="text/css"></style></defs><path d="M1010.439 603.858c-16.888-85.461-173.993-129.983-329.563-129.983h-6.653V145.847C674.223 50.151 507.906 0 343.124 0S12.026 50.15 12.026 145.847V663.22c0 95.185 166.317 145.336 331.098 145.336h6.653v69.597c0 95.696 166.317 145.847 331.099 145.847s331.098-50.15 331.098-145.847V603.858h-1.535zM680.876 966.685c-167.34 0-274.295-52.71-274.295-89.044 0-9.723 8.188-20.981 22.516-31.728 63.968 31.728 158.13 48.104 251.779 48.104s187.81-16.376 251.778-48.104c14.84 10.747 22.516 22.005 22.516 31.728 0 36.334-106.954 89.044-274.294 89.044zM68.318 662.709c0-9.723 8.188-20.982 22.517-31.728 63.968 31.728 158.129 47.592 251.778 47.592h6.652v72.667h-6.652c-167.34 0.512-274.295-52.198-274.295-88.531z m833.631 135.1c-11.77 5.63-25.075 10.747-40.428 15.352-46.057 14.33-107.466 24.052-180.645 24.052-73.18 0-134.59-10.234-180.646-24.052-13.817-4.094-26.1-8.7-36.846-13.817l-3.07-1.535c-12.282-5.63-22.517-11.77-30.705-17.91-2.047-1.536-3.582-2.56-5.629-4.095-10.747-9.211-16.888-18.423-16.888-26.61v-0.512c0-9.723 8.188-20.47 22.517-31.728 16.376 8.187 34.287 14.84 54.245 20.981 12.794 4.094 26.099 7.164 39.916 10.235 5.63 1.023 11.258 2.559 16.888 3.582 17.91 3.582 36.845 6.141 55.78 8.188 8.7 1.024 17.91 2.047 27.122 2.559 19.446 1.535 38.893 2.047 58.34 2.047 19.445 0 38.892-0.512 58.338-2.047 34.798-2.559 68.574-7.165 99.79-14.33 35.31-7.675 67.038-18.422 94.16-31.727 14.841 10.746 22.518 21.493 22.518 31.728s-8.188 20.981-22.517 31.728c-9.723 6.141-19.958 12.282-32.24 17.911zM122.051 582.877c-12.282-5.63-22.517-11.77-30.705-17.911-14.84-10.747-22.516-22.005-22.516-31.729 0-9.723 8.187-20.981 22.516-31.728 26.611 13.306 58.85 23.54 94.161 31.728 31.217 7.165 64.992 11.77 99.79 14.33 19.447 1.534 38.381 2.046 57.827 2.046 14.33 0 29.17-0.512 43.499-1.023a119.937 119.937 0 0 0-23.029 25.587c-8.7 13.817-13.817 28.658-13.817 45.033v3.07h-6.653c-73.179 0-134.588-10.234-180.645-24.563-15.353-4.094-28.658-9.211-40.428-14.84z m-53.733-178.6c0-9.722 8.188-20.469 22.517-31.727 26.61 13.305 58.85 23.54 94.16 31.728 31.217 7.164 64.992 11.77 99.79 14.329 19.447 1.535 38.893 2.047 58.34 2.047 19.446 0 38.892-0.512 58.338-2.047 34.799-2.559 68.574-7.165 99.79-14.33 35.31-7.675 67.039-18.422 94.161-31.727 14.84 10.746 22.517 22.005 22.517 31.728 0 9.723-8.188 20.981-22.517 31.728-8.188 6.14-18.422 12.282-30.704 17.911-11.77 5.63-25.076 10.747-40.428 15.352-46.057 14.33-107.466 24.564-180.646 24.564-73.18 0-134.589-10.235-180.645-24.564-15.353-4.605-28.658-9.723-40.428-15.352-12.282-5.63-22.517-11.77-30.705-17.911-15.352-10.747-23.54-22.005-23.54-31.728z m0-129.47c0-9.724 8.188-20.47 22.517-31.729 26.61 13.306 58.85 23.54 94.16 31.729 31.217 7.164 65.504 11.77 99.79 14.328 18.935 1.536 38.381 2.047 57.828 2.047 19.446 0 38.892-0.511 57.827-2.047 34.798-2.558 68.573-7.164 99.79-14.328 35.31-7.677 67.55-18.423 94.16-31.729 14.841 10.747 22.518 22.005 22.518 31.729s-8.188 20.981-22.517 31.728c-8.188 6.14-18.423 12.282-30.705 17.91-11.77 5.63-25.075 10.747-40.428 15.353-46.057 14.329-107.466 24.564-180.645 24.564-73.18 0-134.589-10.235-180.646-24.564-15.352-4.606-28.658-9.723-40.428-15.352-12.282-5.63-22.517-11.77-30.704-17.911-14.33-10.747-22.517-22.005-22.517-31.728z" p-id="3392"></path></svg>