<?xml version="1.0" standalone="no"?><!DOCTYPE svg PUBLIC "-//W3C//DTD SVG 1.1//EN" "http://www.w3.org/Graphics/SVG/1.1/DTD/svg11.dtd"><svg t="1530933196199" class="icon" style="" viewBox="0 0 1024 1024" version="1.1" xmlns="http://www.w3.org/2000/svg" p-id="7233" xmlns:xlink="http://www.w3.org/1999/xlink"><defs><style type="text/css"></style></defs><path d="M822.144 142.656c32.32 0 58.624 26.368 58.624 58.752l0 621.12c0 32.384-26.304 58.752-58.624 58.752L201.856 881.28c-32.32 0-58.624-26.368-58.624-58.752L143.232 201.408c0-32.384 26.304-58.752 58.624-58.752L822.144 142.656M822.144 63.424 201.856 63.424C125.76 63.424 64 125.184 64 201.408l0 621.12c0 76.16 61.76 137.984 137.856 137.984l620.224 0c76.16 0 137.856-61.824 137.856-137.984L959.936 201.408C960 125.184 898.304 63.424 822.144 63.424L822.144 63.424z" p-id="7234" fill="#ffffff"></path><path d="M512 258.496l82.304 166.912 184 26.752-133.12 129.856 31.296 183.488L512 678.912l-164.48 86.656 31.36-183.488L245.76 452.16l184-26.752L512 258.496z" p-id="7235" fill="#ffffff"></path></svg>