<?xml version="1.0" standalone="no"?><!DOCTYPE svg PUBLIC "-//W3C//DTD SVG 1.1//EN" "http://www.w3.org/Graphics/SVG/1.1/DTD/svg11.dtd"><svg t="1532328323104" class="icon" style="" viewBox="0 0 1024 1024" version="1.1" xmlns="http://www.w3.org/2000/svg" p-id="13507" xmlns:xlink="http://www.w3.org/1999/xlink" ><defs><style type="text/css"></style></defs><path d="M115.7 362.8c-0.5 9.3 2.4 18.1 8.8 24.5 7.1 7.1 17.3 9.9 27.7 8.5 2 0.2 4 0.4 6 0.4h707.6c23.5 0 42.6-15.6 42.6-35 0-19.3-19.1-35-42.6-35H235.1l91-91c16.6-16.6 19.1-41.1 5.3-54.8-13.6-13.6-38.2-11.3-54.8 5.3L129.8 332.5c-3.4 3.4-6.2 7.2-8.4 11.2-3.6 5.2-5.7 11.1-5.7 17.5-0.1 0.5-0.1 1.1 0 1.6zM908.3 606.1c0.3-9.1-2.5-17.7-8.8-24-6.2-6.2-14.6-9.1-23.5-8.8-3.3-0.7-6.7-1-10.2-1H158.2c-23.5 0-42.6 15.7-42.6 35 0 19.4 19.1 35 42.6 35h631.7l-92 92c-16.6 16.6-19.1 41.1-5.3 54.8 13.6 13.6 38.2 11.3 54.8-5.3L894.2 637c4.8-4.8 8.4-10.3 10.8-16 2.2-4.2 3.4-8.8 3.4-13.7 0-0.5 0-0.9-0.1-1.2z" p-id="13508" fill="#a1a1a1"></path></svg>