<?xml version="1.0" standalone="no"?><!DOCTYPE svg PUBLIC "-//W3C//DTD SVG 1.1//EN" "http://www.w3.org/Graphics/SVG/1.1/DTD/svg11.dtd"><svg t="1533296790008" class="icon" style="" viewBox="0 0 1024 1024" version="1.1" xmlns="http://www.w3.org/2000/svg" p-id="3512" xmlns:xlink="http://www.w3.org/1999/xlink" width="16" height="16"><defs><style type="text/css"></style></defs><path d="M511.950005 0c-282.772386 0-511.950005 229.177619-511.950005 511.950005 0 282.772386 229.177619 511.950005 511.950005 511.950005s511.950005-229.177619 511.950005-511.950005C1023.90001 229.177619 794.6224 0 511.950005 0zM511.950005 947.107509c-240.376526 0-435.157504-194.780978-435.157504-435.157504S271.573479 76.792501 511.950005 76.792501s435.157504 194.780978 435.157504 435.157504S752.22654 947.107509 511.950005 947.107509zM609.940436 646.836832c-12.398789 0-61.094034 71.892979-87.691436 71.892979-7.099307 0-10.598965-5.899424-10.598965-11.798848 0-13.498682 9.699053-34.696612 14.998535-47.395372l63.79377-164.983888c31.896885-82.091983-8.899131-104.089835-46.89542-104.089835-51.394981 0-97.390489 24.497608-132.887023 56.694463-11.498877 10.998926-40.096084 53.694756-40.096084 69.893174 0 5.399473 5.399473 11.698858 11.698858 11.698858 16.198418 0 47.895323-82.491944 80.59213-82.491944 7.099307 0 15.098526 7.599258 8.899131 22.797774l-61.993946 148.88546c-6.199395 14.398594-36.296455 63.69378-36.296455 104.389806 0 32.096866 22.097842 66.593497 53.994727 66.593497 89.491261 0 193.081144-104.889757 193.081144-129.487355C620.5394 651.936334 614.340006 646.836832 609.940436 646.836832zM592.142174 234.777073c-38.996192 0-72.592911 30.497022-72.592911 67.693389 0 34.696612 23.897666 57.594376 60.194122 57.594376 39.796114 0 73.492823-28.797188 73.492823-67.693389C653.336198 257.674836 627.638707 234.777073 592.142174 234.777073z" p-id="3513"></path></svg>