<?xml version="1.0" standalone="no"?><!DOCTYPE svg PUBLIC "-//W3C//DTD SVG 1.1//EN" "http://www.w3.org/Graphics/SVG/1.1/DTD/svg11.dtd"><svg t="1531307062174" class="icon" style="" viewBox="0 0 1024 1024" version="1.1" xmlns="http://www.w3.org/2000/svg" p-id="3919" xmlns:xlink="http://www.w3.org/1999/xlink" width="16" height="16"><defs><style type="text/css"></style></defs><path d="M917.9 71.4c-6.9-3.7-15.4-1.2-19.1 5.7L715.3 416.5c-10.9-10.3-22.5-19.7-34.5-28.2l161-297.8c3.7-6.8 1.1-15.4-5.7-19.1-6.9-3.7-15.4-1.2-19.1 5.7l-160.1 296c-38.6-22.2-81.6-35.8-126.6-39.8L661.6 90.5c3.7-6.8 1.2-15.4-5.7-19.1-6.8-3.7-15.4-1.2-19.1 5.7L499 332.1c-13.3 0.1-26.5 1.1-39.6 3L591.5 90.5c3.7-6.8 1.2-15.4-5.7-19.1-6.8-3.7-15.4-1.1-19.1 5.7L498.1 204 432.7 83.1c-0.4-0.7-1.3-1-2-0.6s-1 1.3-0.6 2l66.1 122.2c0.1 0.1 0.1 0.2 0.2 0.3l-30.3 56L365.6 77.2c-3.7-6.9-12.3-9.4-19.1-5.7-6.8 3.7-9.4 12.3-5.7 19.1L447.5 288c0.8 1.5 1.9 2.8 3.1 3.9l-27.3 50.4c-23.9 6.2-46.9 15.4-68.6 27.1L196.8 77.2c-3.7-6.9-12.3-9.4-19.1-5.7-6.9 3.7-9.4 12.3-5.7 19.1l158.6 293.2c-9.8 6.5-19.2 13.5-28.2 21L125.2 77.2c-3.7-6.9-12.2-9.4-19.1-5.7-6.9 3.7-9.4 12.3-5.7 19.1l177.9 329c0.9 1.6 2.1 3 3.4 4.2-8.1 8.1-15.8 16.7-23 25.7-21.5 26.9-38.2 57-49.7 89.3-11.9 33.4-17.9 68.6-17.9 104.4 0 83.1 32.4 161.3 91.1 220.1 58.7 58.8 136.9 91.1 220 91.1s161.3-32.4 220-91.2c58.7-58.8 91.1-136.9 91.1-220 0-76.4-27.4-148.6-77.4-205.4L923.6 90.5c3.7-6.8 1.1-15.4-5.7-19.1z m-415.7 853c-155 0-281.1-126.1-281.1-281.2 0-130.2 88.3-242.6 214.7-273.1 21.6-5.3 44-8 66.3-8 155 0 281.1 126.1 281.1 281.1 0.1 155-126 281.2-281 281.2z" p-id="3920"></path><path d="M506.9 850.1c-7.8 0-14.1 6.3-14.1 14.1V883c0 7.8 6.3 14.1 14.1 14.1S521 890.7 521 883v-18.8c0-7.8-6.3-14.1-14.1-14.1zM506.9 436.4c7.8 0 14.1-6.3 14.1-14.1v-18.8c0-7.8-6.3-14.1-14.1-14.1s-14.1 6.3-14.1 14.1v18.8c0 7.8 6.3 14.1 14.1 14.1zM577.7 852.9c-2-7.5-9.7-12-17.3-10s-12 9.8-10 17.3l4.9 18.2c2 7.5 9.8 12 17.3 10s12-9.7 10-17.3l-4.9-18.2zM436.1 433.4c2 7.5 9.8 12 17.3 10s12-9.7 10-17.3l-4.9-18.2c-2-7.5-9.7-12-17.3-10-7.6 2-12 9.8-10 17.3l4.9 18.2zM629.6 827.5c-3.9-6.8-12.6-9.1-19.3-5.2-6.8 3.9-9.1 12.6-5.2 19.3l9.4 16.3c3.9 6.8 12.6 9.1 19.3 5.2 6.8-3.9 9.1-12.6 5.2-19.3l-9.4-16.3zM384.2 458.9c3.9 6.8 12.6 9.1 19.3 5.2 6.7-3.9 9-12.5 5.2-19.3l-9.4-16.3c-3.9-6.8-12.6-9.1-19.3-5.2-6.8 3.9-9.1 12.6-5.2 19.3l9.4 16.3zM673.1 789.5c-5.5-5.5-14.4-5.5-19.9 0s-5.5 14.4 0 19.9l13.3 13.3c5.5 5.5 14.4 5.5 19.9 0s5.5-14.4 0-19.9l-13.3-13.3zM347.3 463.8c-5.5-5.5-14.4-5.5-19.9 0s-5.5 14.4 0 19.9l13.3 13.3c5.5 5.5 14.4 5.5 19.9 0 5.6-5.5 5.6-14.5 0-19.9l-13.3-13.3zM721.5 750.8l-16.3-9.4c-6.8-3.9-15.4-1.6-19.3 5.2s-1.5 15.4 5.2 19.3l16.3 9.4c6.8 3.9 15.4 1.5 19.3-5.2 3.9-6.7 1.6-15.3-5.2-19.3zM292.2 535.6l16.3 9.4c6.8 3.9 15.4 1.5 19.3-5.2 3.9-6.7 1.6-15.4-5.2-19.3l-16.3-9.4c-6.8-3.9-15.4-1.5-19.3 5.2-3.9 6.8-1.5 15.4 5.2 19.3zM742.1 691.6l-18.2-4.9c-7.5-2-15.3 2.5-17.3 10-2 7.6 2.5 15.3 10 17.3l18.2 4.9c7.5 2 15.3-2.5 17.3-10s-2.5-15.2-10-17.3zM271.6 594.8l18.2 4.9c7.5 2 15.3-2.5 17.3-10s-2.4-15.3-10-17.3l-18.2-4.9c-7.5-2-15.3 2.4-17.3 10s2.5 15.3 10 17.3zM727.8 629.1c-7.8 0-14.1 6.3-14.1 14.1s6.3 14.1 14.1 14.1h18.8c7.8 0 14.1-6.3 14.1-14.1s-6.3-14.1-14.1-14.1h-18.8zM286 657.3c7.8 0 14.1-6.3 14.1-14.1s-6.3-14.1-14.1-14.1h-18.8c-7.8 0-14.1 6.3-14.1 14.1s6.3 14.1 14.1 14.1H286zM706.6 589.7c2 7.6 9.8 12 17.3 10l18.2-4.9c7.5-2 12-9.8 10-17.3s-9.8-12-17.3-10l-18.2 4.9c-7.5 2-12 9.8-10 17.3zM307.1 696.8c-2-7.6-9.7-12-17.3-10l-18.2 4.9c-7.5 2-12 9.7-10 17.3s9.8 12 17.3 10l18.2-4.9c7.5-2 12-9.8 10-17.3zM685.9 539.8c3.9 6.8 12.6 9.1 19.3 5.2l16.3-9.4c6.8-3.9 9.1-12.6 5.2-19.3s-12.5-9-19.3-5.2l-16.3 9.4c-6.8 3.9-9.1 12.5-5.2 19.3zM327.8 746.6c-3.9-6.7-12.5-9-19.3-5.2l-16.3 9.4c-6.8 3.9-9.1 12.6-5.2 19.3 3.9 6.8 12.6 9.1 19.3 5.2l16.3-9.4c6.8-3.9 9.1-12.6 5.2-19.3zM673.1 496.9l13.3-13.3c5.5-5.5 5.5-14.4 0-19.9s-14.5-5.5-19.9 0L653.2 477c-5.5 5.5-5.5 14.4 0 19.9s14.4 5.5 19.9 0zM340.7 789.5l-13.3 13.3c-5.5 5.5-5.5 14.4 0 19.9s14.4 5.5 19.9 0l13.3-13.3c5.5-5.5 5.5-14.4 0-19.9s-14.4-5.5-19.9 0zM610.3 464.2c6.8 3.9 15.4 1.5 19.3-5.2l9.4-16.3c3.9-6.8 1.5-15.4-5.2-19.3-6.7-3.9-15.4-1.6-19.3 5.2l-9.4 16.3c-3.9 6.8-1.5 15.4 5.2 19.3zM403.5 822.3c-6.8-3.8-15.4-1.5-19.3 5.2l-9.4 16.3c-3.9 6.8-1.5 15.4 5.2 19.3 6.8 3.9 15.4 1.5 19.3-5.2l9.4-16.3c3.9-6.8 1.5-15.4-5.2-19.3zM560.4 443.5c7.6 2 15.3-2.5 17.3-10l4.9-18.2c2-7.5-2.5-15.3-10-17.3s-15.3 2.5-17.3 10l-4.9 18.2c-2 7.5 2.4 15.3 10 17.3zM453.4 843c-7.6-2-15.3 2.5-17.3 10l-4.9 18.2c-2 7.5 2.4 15.3 10 17.3s15.3-2.5 17.3-10l4.9-18.2c2-7.5-2.5-15.3-10-17.3zM543.2 625.8c23.3-12.7 34.9-29.6 34.9-50.9 0-15-5.7-28.4-17-40.3-13.8-14.5-32.1-21.8-54.9-21.8-13.3 0-25.4 2.5-36.1 7.5-10.7 5.1-19.1 11.9-25.1 20.7-6 8.7-10.5 20.4-13.5 35.1l42.8 7.3c1.2-10.5 4.6-18.6 10.2-24.1s12.4-8.3 20.3-8.3c8 0 14.5 2.5 19.3 7.3 4.9 4.8 7.3 11.3 7.3 19.5 0 9.6-3.3 17.3-9.9 23.1-6.7 5.8-16.2 8.5-28.8 8.2l-5.1 37.8c8.2-2.3 15.4-3.5 21.3-3.5 9.1 0 16.7 3.4 23 10.2 6.3 6.9 9.4 16.1 9.4 27.8 0 12.3-3.2 22.1-9.8 29.4-6.5 7.3-14.6 10.9-24.2 10.9-8.9 0-16.5-3-22.8-9.1s-10.2-14.8-11.6-26.3l-44.9 5.5c2.3 20.3 10.6 36.8 25.2 49.5 14.4 12.6 32.6 18.9 54.5 18.9 23.1 0 42.5-7.5 58-22.5s23.3-33.1 23.3-54.4c0-14.6-4.2-27.1-12.5-37.5s-19.4-17-33.3-20z" p-id="3921"></path></svg>