<?xml version="1.0" standalone="no"?><!DOCTYPE svg PUBLIC "-//W3C//DTD SVG 1.1//EN" "http://www.w3.org/Graphics/SVG/1.1/DTD/svg11.dtd"><svg t="1532587039680" class="icon" style="" viewBox="0 0 1024 1024" version="1.1" xmlns="http://www.w3.org/2000/svg" p-id="3593" xmlns:xlink="http://www.w3.org/1999/xlink" width="16" height="16"><defs><style type="text/css"></style></defs><path d="M789.9 663.1c-61.5 0-111.4 50.1-111.4 112 0 61.8 49.9 112 111.4 112 61.5 0 111.4-50.1 111.4-112 0.1-61.9-49.8-112-111.4-112z m78.5 95.3s-6.8 8.4-18.5 17.2l14.5 15.4c2 2.3 2 5.8-0.3 8.2-1.1 1.2-2.6 1.7-4 1.7s-2.8-0.6-4-1.7l-15.3-16.3c-7.4 5.2-16.2 10.2-25.9 13.7l6 20.4c0.9 3.2-0.9 6.4-4 7.3-0.3 0.3-0.9 0.3-1.4 0.3-2.3 0-4.8-1.7-5.4-4.4l-6-20.4c-4.5 0.9-9.4 1.5-14.2 1.5-4.8 0-9.7-0.6-14.2-1.5l-6 20.7c-0.6 2.6-2.8 4.4-5.4 4.4h-1.7c-3.1-0.9-4.8-4.1-4-7.3l6-20.7c-9.7-3.5-18.5-8.4-25.9-13.7l-15.6 16.6c-1.1 1.2-2.6 1.8-4 1.8s-2.8-0.6-3.4-1.7c-2.3-2-2.6-5.8-0.3-8.2l14.5-15.4c-10.8-8.7-17.6-16.6-18.2-17.5-2-2.3-1.7-6.1 0.6-8.2 2.3-2 6-1.7 8 0.6 0.3 0.3 33.2 38.8 69.6 38.8 37.5 0 69-38.2 69.3-38.5 2-2.6 5.4-3.2 8-1.2 2.3 2 2.9 5.5 1.2 8.1z" fill="" p-id="3594"></path><path d="M789.9 623.5c14.2 0 27.9 2.1 40.9 5.8V380.5c0-12.2-9.8-22-21.9-22.1H654.5L533.7 237.5c16.7-27.9 10.7-63.8-14.2-84.9-24.9-21-61.4-20.9-86.1 0.4-24.7 21.2-30.4 57.2-13.5 85L299.7 358.4H144.6c-12.2 0.1-21.9 10-21.9 22.1V823c0 12 9.8 22.1 21.9 22.1h511.8c-10.9-21-17.2-44.8-17.2-70.2-0.1-83.5 67.5-151.4 150.7-151.4zM454.6 266c14.5 5.1 30.3 5 44.8-0.2l92.6 92.6H362.2l92.4-92.4zM211.2 491.2h221.3v44.3H211.2v-44.3z m0 88.5H698V624H211.2v-44.3z m354.1 132.8H211.2v-44.3h354.1v44.3z" fill="" p-id="3595"></path></svg>