<?xml version="1.0" standalone="no"?><!DOCTYPE svg PUBLIC "-//W3C//DTD SVG 1.1//EN" "http://www.w3.org/Graphics/SVG/1.1/DTD/svg11.dtd"><svg t="1531031554529" class="icon" style="" viewBox="0 0 1024 1024" version="1.1" xmlns="http://www.w3.org/2000/svg" p-id="4885" xmlns:xlink="http://www.w3.org/1999/xlink" width="16" height="16"><defs><style type="text/css"></style></defs><path d="M879.104 885.76H144.896c-18.432 0-33.28-14.848-33.28-33.28v-3.584c0-18.432 14.848-33.28 33.28-33.28h734.208c18.432 0 33.28 14.848 33.28 33.28v3.584c0 18.432-14.848 33.28-33.28 33.28zM299.008 754.688H199.168c-11.264 0-20.48-9.216-20.48-20.48V471.04c0-22.528 18.432-40.96 40.96-40.96h58.88c22.528 0 40.96 18.432 40.96 40.96v263.168c0 11.264-9.216 20.48-20.48 20.48zM562.176 754.688H462.336c-11.264 0-20.48-9.216-20.48-20.48V330.24c0-22.528 18.432-40.96 40.96-40.96h58.88c22.528 0 40.96 18.432 40.96 40.96v403.968c0 11.264-9.216 20.48-20.48 20.48zM825.856 754.688h-99.84c-11.264 0-20.48-9.216-20.48-20.48V189.44c0-22.528 18.432-40.96 40.96-40.96h58.88c22.528 0 40.96 18.432 40.96 40.96v544.768c0 11.264-9.216 20.48-20.48 20.48z" p-id="4886"></path></svg>